{
.appVersion = "3151";
.storedFileType = "public.opentype-font";
.formatVersion = 3;
customParameters = (
{
name = vendorID;
value = "";
},
{
name = panose;
value = (
2,
0,
0,
0,
0,
0,
0,
0,
0,
0
);
},
{
name = unicodeRanges;
value = (
0,
1,
2,
3,
5,
7,
9,
31,
33,
35,
37,
38,
45,
60,
62
);
},
{
name = codePageRanges;
value = (
"1252",
"1250",
"1251",
"1254",
"1257",
"bit 29"
);
},
{
name = fsType;
value = (
2
);
},
{
name = glyphOrder;
value = (
.notdef,
space,
exclam,
quotedbl,
numbersign,
dollar,
percent,
ampersand.alt1,
quotesingle,
parenleft,
parenright,
asterisk,
plus,
comma,
hyphen,
period,
slash,
zero,
one,
two,
three,
four,
five,
six,
seven,
eight,
nine,
colon,
semicolon,
less,
equal,
greater,
question,
at,
A,
B,
C,
D,
E,
F,
G,
H,
I,
J,
K,
L,
M,
O,
uni20BD,
Q,
R,
S,
T,
U,
V,
W,
X,
Y,
Z,
bracketleft,
backslash,
bracketright,
asciicircum,
underscore,
braceleft,
bar,
braceright,
asciitilde,
uni00A0,
exclamdown,
cent,
sterling,
currency,
yen,
brokenbar,
section,
copyright,
ordfeminine,
guillemotleft,
logicalnot,
uni00AD,
registered,
degree,
plusminus,
twosuperior,
threesuperior,
mu,
paragraph,
periodcentered,
cedilla,
onesuperior,
ordmasculine,
guillemotright,
onequarter,
onehalf,
threequarters,
questiondown,
Agrave,
Aacute,
Acircumflex,
Atilde,
Adieresis,
Aring,
AE,
Ccedilla,
Egrave,
Eacute,
Ecircumflex,
Edieresis,
Igrave,
Iacute,
Icircumflex,
Idieresis,
Eth,
Ntilde,
Ograve,
Oacute,
Ocircumflex,
Otilde,
Odieresis,
multiply,
Oslash,
Ugrave,
Uacute,
Ucircumflex,
Udieresis,
Yacute,
Thorn,
germandbls,
agrave,
aacute,
acircumflex,
atilde,
adieresis,
aring,
ae,
ccedilla,
egrave,
eacute,
ecircumflex,
edieresis,
igrave,
iacute,
icircumflex,
idieresis,
eth,
ntilde,
ograve,
oacute,
ocircumflex,
otilde,
odieresis,
divide,
oslash,
ugrave,
uacute,
ucircumflex,
udieresis,
yacute,
thorn,
ydieresis,
Amacron,
amacron,
abreve,
Aogonek,
aogonek,
Cacute,
cacute,
Ccaron,
ccaron,
Dcaron,
dcaron,
Dcroat,
dcroat,
Emacron,
emacron,
Edotaccent,
edotaccent,
Eogonek,
eogonek,
Ecaron,

glyphs = (
{
glyphname = .notdef;
layers = (
{
hints = (
{
horizontal = 1;
place = (0, 100);
place = (0, 100);
type = Stem;
},
{
horizontal = 1;
place = (624, 90);
place = (624, 90);
type = Stem;
},
{
place = (87, 107);
place = (87, 107);
type = Stem;
},
{
place = (429, 107);
place = (429, 107);
type = Stem;
}
);
layerId = m01;
shapes = (
{
closed = 1;
nodes = (
(87,0,l),
(536,0,l),
(536,714,l),
(87,714,l)
);
},
{
closed = 1;
nodes = (
(194,100,l),
(194,624,l),
(429,624,l),
(429,100,l)
);
}
);
width = 623;
}
);
note = ".notdef";
},
{
glyphname = exclam;
layers = (
{
hints = (
{
horizontal = 1;
place = (0, 137);
place = (0, 137);
type = Stem;
},
{
horizontal = 1;
place = (714, -20);
target = down;
type = TopGhost;
},
{
place = (78, 107);
place = (78, 107);
type = Stem;
}
);
layerId = m01;
shapes = (
{
closed = 1;
nodes = (
(185,220,l),
(185,714,l),
(78,714,l),
(78,220,l)
);
},
{
closed = 1;
nodes = (
(194,0,l),
(194,137,l),
(70,137,l),
(70,0,l)
);
}
);
width = 264;
}
);
note = exclam;
unicode = 33;
},
{
glyphname = quotedbl;
kernLeft = quotedbl;
kernRight = quotedbl;
layers = (
{
hints = (
{
horizontal = 1;
place = (405, 21);
target = up;
type = BottomGhost;
},
{
horizontal = 1;
place = (714, -20);
target = down;
type = TopGhost;
},
{
place = (70, 110);
place = (70, 110);
type = Stem;
},
{
place = (266, 110);
place = (266, 110);
type = Stem;
}
);
layerId = m01;
shapes = (
{
closed = 1;
nodes = (
(70,405,l),
(180,405,l),
(180,714,l),
(70,714,l)
);
},
{
closed = 1;
nodes = (
(266,405,l),
(376,405,l),
(376,714,l),
(266,714,l)
);
}
);
width = 446;
}
);
note = quotedbl;
unicode = 34;
},
{
glyphname = numbersign;
layers = (
{
hints = (
{
horizontal = 1;
place = (0, 21);
target = up;
type = BottomGhost;
},
{
horizontal = 1;
place = (231, 93);
place = (231, 93);
type = Stem;
},
{
horizontal = 1;
place = (397, 93);
place = (397, 93);
type = Stem;
},
{
horizontal = 1;
place = (714, -20);
target = down;
type = TopGhost;
}
);
layerId = m01;
shapes = (
{
closed = 1;
nodes = (
(50,490,l),
(50,397,l),
(162,397,l),
(150,324,l),
(50,324,l),
(50,231,l),
(136,231,l),
(100,0,l),
(182,0,l),
(218,231,l),
(317,231,l),
(281,0,l),
(363,0,l),
(399,231,l),
(524,231,l),
(524,324,l),
(413,324,l),
(424,397,l),
(524,397,l),
(524,490,l),
(438,490,l),
(474,714,l),
(393,714,l),
(357,490,l),
(257,490,l),
(293,714,l),
(212,714,l),
(176,490,l)
);
},
{
closed = 1;
nodes = (
(243,397,l),
(343,397,l),
(331,324,l),
(232,324,l)
);
}
);
width = 574;
}
);
note = numbersign;
unicode = 35;
},
{
glyphname = dollar;
kernLeft = dollar;
kernRight = dollar;
layers = (
{
hints = (
{
horizontal = 1;
place = (-98, 21);
target = up;
type = BottomGhost;
},
{
horizontal = 1;
place = (798, -20);
target = down;
type = TopGhost;
},
{
place = (67, 109);
place = (67, 109);
type = Stem;
},
{
place = (254, 75);
place = (254, 75);
type = Stem;
},
{
place = (413, 109);
place = (413, 109);
type = Stem;
}
);
layerId = m01;
shapes = (
{
closed = 1;
nodes = (
(512,528,l),
(498,633,o),
(442,708,o),
(329,724,c),
(329,798,l),
(254,798,l),
(254,725,l),
(124,714,o),
(67,630,o),
(67,531,cs),
(67,419,o),
(133,381,o),
(221,344,cs),
(254,330,l),
(254,94,l),
(206,102,o),
(166,134,o),
(155,205,c),
(47,205,l),
(57,91,o),
(123,2,o),
(254,-11,c),
(254,-98,l),
(329,-98,l),
(329,-11,l),
(469,4,o),
(522,101,o),
(522,201,cs),
(522,318,o),
(454,362,o),
(358,403,cs),
(329,415,l),
(329,617,l),
(369,608,o),
(393,578,o),
(404,528,c)
);
},
{
closed = 1;
nodes = (
(413,146,o),
(384,102,o),
(329,94,c),
(329,298,l),
(389,272,o),
(413,248,o),
(413,194,cs)
);
},
{
closed = 1;
nodes = (
(176,582,o),
(204,616,o),
(254,621,c),
(254,447,l),
(196,471,o),
(176,489,o),
(176,538,cs)
);
}
);
width = 589;
}
);
note = dollar;
unicode = 36;
},
{
glyphname = percent;
layers = (
{
hints = (
{
horizontal = 1;
place = (-13, 91);
place = (-13, 91);
type = Stem;
},
{
horizontal = 1;
place = (206, 91);
place = (206, 91);
type = Stem;
},
{
horizontal = 1;
place = (417, 91);
place = (417, 91);
type = Stem;
},
{
horizontal = 1;
place = (636, 91);
place = (636, 91);
type = Stem;
},
{
place = (50, 90);
place = (50, 90);
type = Stem;
},
{
place = (261, 91);
place = (261, 91);
type = Stem;
},
{
place = (525, 90);
place = (525, 90);
type = Stem;
},
{
place = (313, 90);
place = (313, 90);
type = Stem;
}
);
layerId = m01;
shapes = (
{
closed = 1;
nodes = (
(107,727,o),
(50,657,o),
(50,572,cs),
(50,487,o),
(107,417,o),
(201,417,cs),
(295,417,o),
(352,487,o),
(352,572,cs),
(352,657,o),
(295,727,o),
(201,727,cs)
);
},
{
closed = 1;
nodes = (
(165,508,o),
(140,536,o),
(140,572,cs),
(140,608,o),
(165,636,o),
(201,636,cs),
(237,636,o),
(261,608,o),
(261,572,cs),
(261,536,o),
(237,508,o),
(201,508,cs)
);
},
{
closed = 1;
nodes = (
(370,297,o),
(313,227,o),
(313,142,cs),
(313,57,o),
(370,-13,o),
(464,-13,cs),
(558,-13,o),
(615,57,o),
(615,142,cs),
(615,227,o),
(558,297,o),
(464,297,cs)
);
},
{
closed = 1;
nodes = (
(573,576,l),
(91,234,l),
(91,137,l),
(573,479,l)
);
},
{
closed = 1;
nodes = (
(428,78,o),
(403,106,o),
(403,142,cs),
(403,178,o),
(428,206,o),
(464,206,cs),
(500,206,o),
(525,178,o),
(525,142,cs),
(525,106,o),
(500,78,o),
(464,78,cs)
);
}
);
width = 665;
}
);
note = percent;
unicode = 37;
},
{
glyphname = ampersand.alt1;
layers = (
{
hints = (
{
horizontal = 1;
place = (-13, 103);
place = (-13, 103);
type = Stem;
},
{
horizontal = 1;
place = (628, 99);
place = (628, 99);
type = Stem;
},
{
place = (80, 105);
place = (80, 105);
type = Stem;
},
{
place = (308, 107);
place = (308, 107);
type = Stem;
},
{
place = (31, 110);
place = (31, 110);
type = Stem;
},
{
horizontal = 1;
place = (-1, 21);
target = up;
type = BottomGhost;
}
);
layerId = m01;
shapes = (
{
closed = 1;
nodes = (
(497,152,l),
(532,205,o),
(554,273,o),
(563,351,c),
(457,351,l),
(451,307,o),
(441,268,o),
(425,234,c),
(297,382,l),
(322,402,ls),
(379,448,o),
(415,497,o),
(415,563,cs),
(415,664,o),
(344,727,o),
(243,727,cs),
(140,727,o),
(80,659,o),
(80,562,cs),
(80,508,o),
(97,475,o),
(131,434,cs),
(146,416,l),
(146,388,l),
(127,373,ls),
(77,334,o),
(31,279,o),
(31,194,cs),
(31,60,o),
(126,-13,o),
(251,-13,cs),
(316,-13,o),
(369,9,o),
(415,54,c),
(443,54,l),
(492,-1,l),
(630,-1,l)
);
},
{
closed = 1;
nodes = (
(191,90,o),
(141,130,o),
(141,202,cs),
(141,242,o),
(159,276,o),
(195,306,cs),
(215,323,l),
(364,144,l),
(334,111,o),
(297,90,o),
(253,90,cs)
);
},
{
closed = 1;
nodes = (
(282,628,o),
(308,603,o),
(308,562,cs),
(308,528,o),
(290,500,o),
(258,473,cs),
(236,455,l),
(223,470,ls),
(202,494,o),
(185,527,o),
(185,561,cs),
(185,604,o),
(208,628,o),
(246,628,cs)
);
}
);
width = 630;
}
);
note = ampersand.alt1;
},
{
glyphname = quotesingle;
kernLeft = quotedbl;
kernRight = quotedbl;
layers = (
{
hints = (
{
horizontal = 1;
place = (405, 21);
target = up;
type = BottomGhost;
},
{
horizontal = 1;
place = (714, -20);
target = down;
type = TopGhost;
},
{
place = (70, 110);
place = (70, 110);
type = Stem;
}
);
layerId = m01;
shapes = (
{
closed = 1;
nodes = (
(70,405,l),
(180,405,l),
(180,714,l),
(70,714,l)
);
}
);
width = 250;
}
);
note = quotesingle;
unicode = 39;
},
{
glyphname = parenleft;
layers = (
{
hints = (
{
horizontal = 1;
place = (-103, 21);
target = up;
type = BottomGhost;
},
{
horizontal = 1;
place = (797, -20);
target = down;
type = TopGhost;
},
{
place = (55, 104);
place = (55, 104);
type = Stem;
}
);
layerId = m01;
shapes = (
{
closed = 1;
nodes = (
(159,548,o),
(227,689,o),
(321,797,c),
(230,797,l),
(132,694,o),
(55,546,o),
(55,350,cs),
(55,150,o),
(136,1,o),
(239,-103,c),
(329,-103,l),
(231,6,o),
(159,149,o),
(159,350,cs)
);
}
);
width = 309;
}
);
note = parenleft;
unicode = 40;
},
{
glyphname = parenright;
layers = (
{
hints = (
{
horizontal = 1;
place = (-103, 21);
target = up;
type = BottomGhost;
},
{
horizontal = 1;
place = (797, -20);
target = down;
type = TopGhost;
},
{
place = (150, 104);
place = (150, 104);
type = Stem;
}
);
layerId = m01;
shapes = (
{
closed = 1;
nodes = (
(150,149,o),
(78,6,o),
(-20,-103,c),
(70,-103,l),
(173,1,o),
(254,150,o),
(254,350,cs),
(254,546,o),
(177,694,o),
(79,797,c),
(-12,797,l),
(82,689,o),
(150,548,o),
(150,350,cs)
);
}
);
width = 309;
}
);
note = parenright;
unicode = 41;
},
{
glyphname = asterisk;
kernLeft = quotedbl;
kernRight = quotedbl;
layers = (
{
hints = (
{
horizontal = 1;
place = (303, 21);
target = up;
type = BottomGhost;
},
{
horizontal = 1;
place = (714, -20);
target = down;
type = TopGhost;
},
{
place = (201, 91);
place = (201, 91);
type = Stem;
}
);
layerId = m01;
shapes = (
{
closed = 1;
nodes = (
(462,520,l),
(432,616,l),
(287,559,l),
(297,714,l),
(197,714,l),
(205,559,l),
(60,616,l),
(30,520,l),
(179,482,l),
(81,364,l),
(161,303,l),
(245,434,l),
(330,303,l),
(410,362,l),
(314,482,l)
);
}
);
width = 492;
}
);
note = asterisk;
unicode = 42;
},
{
glyphname = plus;
layers = (
{
hints = (
{
horizontal = 1;
place = (128, 21);
target = up;
type = BottomGhost;
},
{
horizontal = 1;
place = (315, 93);
place = (315, 93);
type = Stem;
},
{
horizontal = 1;
place = (595, -20);
target = down;
type = TopGhost;
},
{
place = (268, 93);
place = (268, 93);
type = Stem;
}
);
layerId = m01;
shapes = (
{
closed = 1;
nodes = (
(268,408,l),
(81,408,l),
(81,315,l),
(268,315,l),
(268,128,l),
(361,128,l),
(361,315,l),
(549,315,l),
(549,408,l),
(361,408,l),
(361,595,l),
(268,595,l)
);
}
);
width = 630;
}
);
note = plus;
unicode = 43;
},
{
glyphname = comma;
kernLeft = comma;
kernRight = comma;
layers = (
{
hints = (
{
horizontal = 1;
place = (-135, 21);
target = up;
type = BottomGhost;
},
{
horizontal = 1;
place = (0, 137);
place = (0, 137);
type = Stem;
},
{
place = (70, 124);
place = (70, 124);
type = Stem;
}
);
layerId = m01;
shapes = (
{
closed = 1;
nodes = (
(129,0,l),
(129,-28,l),
(63,-135,l),
(128,-135,l),
(194,-28,l),
(194,137,l),
(70,137,l),
(70,0,l)
);
}
);
width = 264;
}
);
note = comma;
unicode = 44;
},
{
glyphname = hyphen;
kernLeft = hyphen;
kernRight = hyphen;
layers = (
{
hints = (
{
horizontal = 1;
place = (315, 93);
place = (315, 93);
type = Stem;
}
);
layerId = m01;
shapes = (
{
closed = 1;
nodes = (
(383,315,l),
(383,408,l),
(40,408,l),
(40,315,l)
);
}
);
width = 423;
}
);
note = hyphen;
unicode = 45;
},
{
glyphname = period;
kernLeft = comma;
kernRight = comma;
layers = (
{
hints = (
{
horizontal = 1;
place = (0, 137);
place = (0, 137);
type = Stem;
},
{
place = (70, 124);
place = (70, 124);
type = Stem;
}
);
layerId = m01;
shapes = (
{
closed = 1;
nodes = (
(194,0,l),
(194,137,l),
(70,137,l),
(70,0,l)
);
}
);
width = 264;
}
);
note = period;
unicode = 46;
},
{
glyphname = slash;
layers = (
{
hints = (
{
horizontal = 1;
place = (0, 21);
target = up;
type = BottomGhost;
},
{
horizontal = 1;
place = (714, -20);
target = down;
type = TopGhost;
}
);
layerId = m01;
shapes = (
{
closed = 1;
nodes = (
(125,0,l),
(354,714,l),
(262,714,l),
(30,0,l)
);
}
);
width = 384;
}
);
note = slash;
unicode = 47;
},
{
glyphname = zero;
kernLeft = zero;
kernRight = zero;
layers = (
{
hints = (
{
horizontal = 1;
place = (-13, 101);
place = (-13, 101);
type = Stem;
},
{
horizontal = 1;
place = (627, 100);
place = (627, 100);
type = Stem;
},
{
place = (55, 106);
place = (55, 106);
type = Stem;
},
{
place = (423, 106);
place = (423, 106);
type = Stem;
}
);
layerId = m01;
shapes = (
{
closed = 1;
nodes = (
(120,727,o),
(55,573,o),
(55,357,cs),
(55,142,o),
(120,-13,o),
(292,-13,cs),
(464,-13,o),
(529,142,o),
(529,357,cs),
(529,573,o),
(464,727,o),
(292,727,cs)
);
},
{
closed = 1;
nodes = (
(161,522,o),
(190,627,o),
(292,627,cs),
(325,627,o),
(350,616,o),
(369,596,c),
(175,201,l),
(165,243,o),
(161,296,o),
(161,357,cs)
);
},
{
closed = 1;
nodes = (
(262,88,o),
(239,97,o),
(220,113,c),
(411,502,l),
(420,461,o),
(423,412,o),
(423,357,cs),
(423,193,o),
(394,88,o),
(292,88,cs)
);
}
);
width = 584;
}
);
note = zero;
unicode = 48;
},
{
glyphname = one;
layers = (
{
hints = (
{
horizontal = 1;
place = (0, 100);
place = (0, 100);
type = Stem;
},
{
horizontal = 1;
place = (714, -20);
target = down;
type = TopGhost;
},
{
place = (218, 107);
place = (218, 107);
type = Stem;
}
);
layerId = m01;
shapes = (
{
closed = 1;
nodes = (
(58,0,l),
(469,0,l),
(469,100,l),
(325,100,l),
(325,714,l),
(218,714,l),
(83,609,l),
(83,487,l),
(202,579,l),
(218,579,l),
(218,100,l),
(58,100,l)
);
}
);
width = 507;
}
);
note = one;
unicode = 49;
},
{
glyphname = two;
layers = (
{
hints = (
{
horizontal = 1;
place = (0, 100);
place = (0, 100);
type = Stem;
},
{
horizontal = 1;
place = (516, -20);
target = down;
type = TopGhost;
},
{
horizontal = 1;
place = (624, 103);
place = (624, 103);
type = Stem;
},
{
place = (371, 109);
place = (371, 109);
type = Stem;
}
);
layerId = m01;
shapes = (
{
closed = 1;
nodes = (
(332,624,o),
(371,589,o),
(371,520,cs),
(371,446,o),
(319,396,o),
(283,360,cs),
(48,127,l),
(48,0,l),
(486,0,l),
(486,100,l),
(195,100,l),
(195,128,l),
(342,278,ls),
(410,347,o),
(480,420,o),
(480,520,cs),
(480,658,o),
(395,727,o),
(267,727,cs),
(152,727,o),
(51,651,o),
(47,516,c),
(156,516,l),
(165,596,o),
(211,624,o),
(268,624,cs)
);
}
);
width = 537;
}
);
note = two;
unicode = 50;
},
{
glyphname = three;
layers = (
{
hints = (
{
horizontal = 1;
place = (-13, 103);
place = (-13, 103);
type = Stem;
},
{
horizontal = 1;
place = (351, 88);
place = (351, 88);
type = Stem;
},
{
horizontal = 1;
place = (614, 100);
place = (614, 100);
type = Stem;
},
{
place = (380, 109);
place = (380, 109);
type = Stem;
}
);
layerId = m01;
shapes = (
{
closed = 1;
nodes = (
(29,200,l),
(34,65,o),
(125,-13,o),
(261,-13,cs),
(393,-13,o),
(489,75,o),
(489,222,cs),
(489,355,o),
(417,433,o),
(306,439,c),
(306,467,l),
(458,586,l),
(458,714,l),
(72,714,l),
(72,614,l),
(330,614,l),
(330,586,l),
(178,467,l),
(178,346,l),
(191,349,o),
(212,351,o),
(234,351,cs),
(327,351,o),
(380,302,o),
(380,223,cs),
(380,135,o),
(335,90,o),
(261,90,cs),
(197,90,o),
(145,124,o),
(138,200,c)
);
}
);
width = 537;
}
);
note = three;
unicode = 51;
},
{
glyphname = four;
layers = (
{
hints = (
{
horizontal = 1;
place = (0, 21);
target = up;
type = BottomGhost;
},
{
horizontal = 1;
place = (156, 102);
place = (156, 102);
type = Stem;
},
{
horizontal = 1;
place = (714, -20);
target = down;
type = TopGhost;
},
{
place = (345, 107);
place = (345, 107);
type = Stem;
}
);
layerId = m01;
shapes = (
{
closed = 1;
nodes = (
(452,258,l),
(452,714,l),
(267,714,l),
(39,286,l),
(39,156,l),
(345,156,l),
(345,0,l),
(452,0,l),
(452,156,l),
(526,156,l),
(526,258,l)
);
},
{
closed = 1;
nodes = (
(149,258,l),
(149,286,l),
(317,604,l),
(345,604,l),
(345,258,l)
);
}
);
width = 571;
}
);
note = four;
unicode = 52;
},
{
glyphname = five;
layers = (
{
hints = (
{
horizontal = 1;
place = (-13, 103);
place = (-13, 103);
type = Stem;
},
{
horizontal = 1;
place = (325, -20);
target = down;
type = TopGhost;
},
{
horizontal = 1;
place = (377, 103);
place = (377, 103);
type = Stem;
},
{
horizontal = 1;
place = (614, 100);
place = (614, 100);
type = Stem;
},
{
place = (412, 109);
place = (412, 109);
type = Stem;
}
);
layerId = m01;
shapes = (
{
closed = 1;
nodes = (
(266,480,o),
(237,468,o),
(207,446,c),
(179,446,l),
(195,614,l),
(487,614,l),
(487,714,l),
(108,714,l),
(74,325,l),
(174,325,l),
(203,371,o),
(249,377,o),
(288,377,cs),
(369,377,o),
(412,320,o),
(412,241,cs),
(412,157,o),
(372,90,o),
(296,90,cs),
(227,90,o),
(177,123,o),
(166,200,c),
(58,200,l),
(65,77,o),
(158,-13,o),
(295,-13,cs),
(431,-13,o),
(521,87,o),
(521,241,cs),
(521,374,o),
(444,480,o),
(314,480,cs)
);
}
);
width = 574;
}
);
note = five;
unicode = 53;
},
{
glyphname = six;
kernLeft = zero;
kernRight = zero;
layers = (
{
hints = (
{
horizontal = 1;
place = (-13, 103);
place = (-13, 103);
type = Stem;
},
{
horizontal = 1;
place = (379, 99);
place = (379, 99);
type = Stem;
},
{
horizontal = 1;
place = (624, 103);
place = (624, 103);
type = Stem;
},
{
place = (55, 115);
place = (55, 115);
type = Stem;
},
{
place = (416, 109);
place = (416, 109);
type = Stem;
}
);
layerId = m01;
shapes = (
{
closed = 1;
nodes = (
(251,478,o),
(217,457,o),
(192,434,c),
(164,434,l),
(171,533,o),
(216,624,o),
(302,624,cs),
(357,624,o),
(383,599,o),
(396,558,c),
(505,558,l),
(489,653,o),
(428,727,o),
(307,727,cs),
(134,727,o),
(55,555,o),
(55,337,cs),
(55,81,o),
(158,-13,o),
(299,-13,cs),
(440,-13,o),
(525,96,o),
(525,236,cs),
(525,379,o),
(444,478,o),
(313,478,cs)
);
},
{
closed = 1;
nodes = (
(225,90,o),
(170,143,o),
(170,237,cs),
(170,328,o),
(224,379,o),
(293,379,cs),
(362,379,o),
(416,331,o),
(416,236,cs),
(416,141,o),
(364,90,o),
(294,90,cs)
);
}
);
width = 580;
}
);
note = six;
unicode = 54;
},
{
glyphname = seven;
layers = (
{
hints = (
{
horizontal = 1;
place = (0, 21);
target = up;
type = BottomGhost;
},
{
horizontal = 1;
place = (614, 100);
place = (614, 100);
type = Stem;
}
);
layerId = m01;
shapes = (
{
closed = 1;
nodes = (
(466,592,l),
(466,714,l),
(40,714,l),
(40,614,l),
(350,614,l),
(350,592,l),
(66,0,l),
(183,0,l)
);
}
);
width = 506;
}
);
note = seven;
unicode = 55;
},
{
glyphname = eight;
layers = (
{
hints = (
{
horizontal = 1;
place = (-13, 103);
place = (-13, 103);
type = Stem;
},
{
horizontal = 1;
place = (318, 103);
place = (318, 103);
type = Stem;
},
{
horizontal = 1;
place = (624, 103);
place = (624, 103);
type = Stem;
},
{
place = (72, 105);
place = (72, 105);
type = Stem;
},
{
place = (417, 104);
place = (417, 104);
type = Stem;
},
{
place = (51, 109);
place = (51, 109);
type = Stem;
},
{
place = (433, 109);
place = (433, 109);
type = Stem;
},
{
place = (433, 88);
place = (433, 88);
type = Stem;
}
);
layerId = m01;
shapes = (
{
closed = 1;
nodes = (
(445,390,l),
(482,409,o),
(521,455,o),
(521,533,cs),
(521,646,o),
(437,727,o),
(296,727,cs),
(156,727,o),
(72,646,o),
(72,533,cs),
(72,453,o),
(110,409,o),
(148,390,c),
(148,362,l),
(101,343,o),
(51,293,o),
(51,195,cs),
(51,77,o),
(146,-13,o),
(296,-13,cs),
(447,-13,o),
(542,77,o),
(542,195,cs),
(542,293,o),
(491,343,o),
(445,362,c)
);
},
{
closed = 1;
nodes = (
(362,624,o),
(417,591,o),
(417,523,cs),
(417,457,o),
(362,421,o),
(296,421,cs),
(232,421,o),
(177,457,o),
(177,523,cs),
(177,591,o),
(232,624,o),
(296,624,cs)
);
},
{
closed = 1;
nodes = (
(211,90,o),
(160,135,o),
(160,204,cs),
(160,275,o),
(211,318,o),
(296,318,cs),
(382,318,o),
(433,275,o),
(433,204,cs),
(433,135,o),
(382,90,o),
(296,90,cs)
);
}
);
width = 593;
}
);
note = eight;
unicode = 56;
},
{
glyphname = nine;
kernLeft = zero;
kernRight = zero;
layers = (
{
hints = (
{
horizontal = 1;
place = (-13, 103);
place = (-13, 103);
type = Stem;
},
{
horizontal = 1;
place = (236, 99);
place = (236, 99);
type = Stem;
},
{
horizontal = 1;
place = (624, 103);
place = (624, 103);
type = Stem;
},
{
place = (55, 109);
place = (55, 109);
type = Stem;
},
{
place = (410, 115);
place = (410, 115);
type = Stem;
}
);
layerId = m01;
shapes = (
{
closed = 1;
nodes = (
(329,236,o),
(363,257,o),
(388,280,c),
(416,280,l),
(409,181,o),
(364,90,o),
(278,90,cs),
(223,90,o),
(197,115,o),
(184,156,c),
(75,156,l),
(91,61,o),
(152,-13,o),
(273,-13,cs),
(446,-13,o),
(525,159,o),
(525,377,cs),
(525,633,o),
(422,727,o),
(281,727,cs),
(140,727,o),
(55,618,o),
(55,478,cs),
(55,335,o),
(136,236,o),
(267,236,cs)
);
},
{
closed = 1;
nodes = (
(355,624,o),
(410,571,o),
(410,477,cs),
(410,386,o),
(356,335,o),
(287,335,cs),
(218,335,o),
(164,383,o),
(164,478,cs),
(164,573,o),
(216,624,o),
(286,624,cs)
);
}
);
width = 580;
}
);
note = nine;
unicode = 57;
},
{
glyphname = colon;
kernLeft = colon;
layers = (
{
hints = (
{
horizontal = 1;
place = (0, 137);
place = (0, 137);
type = Stem;
},
{
place = (70, 124);
place = (70, 124);
type = Stem;
},
{
horizontal = 1;
place = (354, 137);
place = (354, 137);
type = Stem;
}
);
layerId = m01;
shapes = (
{
closed = 1;
nodes = (
(194,0,l),
(194,137,l),
(70,137,l),
(70,0,l)
);
},
{
closed = 1;
nodes = (
(194,354,l),
(194,491,l),
(70,491,l),
(70,354,l)
);
}
);
width = 264;
}
);
note = colon;
unicode = 58;
},
{
glyphname = semicolon;
kernLeft = colon;
layers = (
{
hints = (
{
horizontal = 1;
place = (-135, 21);
target = up;
type = BottomGhost;
},
{
horizontal = 1;
place = (0, 137);
place = (0, 137);
type = Stem;
},
{
place = (70, 124);
place = (70, 124);
type = Stem;
},
{
horizontal = 1;
place = (354, 137);
place = (354, 137);
type = Stem;
}
);
layerId = m01;
shapes = (
{
closed = 1;
nodes = (
(129,0,l),
(129,-28,l),
(63,-135,l),
(128,-135,l),
(194,-28,l),
(194,137,l),
(70,137,l),
(70,0,l)
);
},
{
closed = 1;
nodes = (
(194,354,l),
(194,491,l),
(70,491,l),
(70,354,l)
);
}
);
width = 264;
}
);
note = semicolon;
unicode = 59;
},
{
glyphname = less;
layers = (
{
hints = (
{
horizontal = 1;
place = (117, 21);
target = up;
type = BottomGhost;
},
{
horizontal = 1;
place = (603, -20);
target = down;
type = TopGhost;
}
);
layerId = m01;
shapes = (
{
closed = 1;
nodes = (
(549,117,l),
(549,214,l),
(190,346,l),
(190,374,l),
(549,506,l),
(549,603,l),
(81,422,l),
(81,298,l)
);
}
);
width = 630;
}
);
note = less;
unicode = 60;
},
{
glyphname = equal;
layers = (
{
hints = (
{
horizontal = 1;
place = (215, 93);
place = (215, 93);
type = Stem;
},
{
horizontal = 1;
place = (414, 93);
place = (414, 93);
type = Stem;
}
);
layerId = m01;
shapes = (
{
closed = 1;
nodes = (
(81,507,l),
(81,414,l),
(549,414,l),
(549,507,l)
);
},
{
closed = 1;
nodes = (
(81,308,l),
(81,215,l),
(549,215,l),
(549,308,l)
);
}
);
width = 630;
}
);
note = equal;
unicode = 61;
},
{
glyphname = greater;
layers = (
{
hints = (
{
horizontal = 1;
place = (117, 21);
target = up;
type = BottomGhost;
},
{
horizontal = 1;
place = (603, -20);
target = down;
type = TopGhost;
}
);
layerId = m01;
shapes = (
{
closed = 1;
nodes = (
(549,298,l),
(549,422,l),
(81,603,l),
(81,506,l),
(440,374,l),
(440,346,l),
(81,214,l),
(81,117,l)
);
}
);
width = 630;
}
);
note = greater;
unicode = 62;
},
{
glyphname = question;
layers = (
{
hints = (
{
horizontal = 1;
place = (0, 137);
place = (0, 137);
type = Stem;
},
{
horizontal = 1;
place = (624, 103);
place = (624, 103);
type = Stem;
},
{
place = (163, 124);
place = (163, 124);
type = Stem;
},
{
place = (328, 109);
place = (328, 109);
type = Stem;
}
);
layerId = m01;
shapes = (
{
closed = 1;
nodes = (
(114,727,o),
(35,646,o),
(21,525,c),
(128,525,l),
(140,596,o),
(178,624,o),
(235,624,cs),
(293,624,o),
(328,584,o),
(328,540,cs),
(328,489,o),
(311,473,o),
(268,415,cs),
(211,338,o),
(171,315,o),
(171,241,cs),
(171,220,l),
(278,220,l),
(278,242,ls),
(278,272,o),
(283,275,o),
(334,340,cs),
(402,426,o),
(437,459,o),
(437,540,cs),
(437,645,o),
(362,727,o),
(234,727,cs)
);
},
{
closed = 1;
nodes = (
(287,0,l),
(287,137,l),
(163,137,l),
(163,0,l)
);
}
);
width = 491;
}
);
note = question;
unicode = 63;
},
{
glyphname = at;
kernLeft = zero;
layers = (
{
hints = (
{
horizontal = 1;
place = (0, 75);
place = (0, 75);
type = Stem;
},
{
horizontal = 1;
place = (174, 71);
place = (174, 71);
type = Stem;
},
{
horizontal = 1;
place = (504, -20);
target = down;
type = TopGhost;
},
{
horizontal = 1;
place = (652, 75);
place = (652, 75);
type = Stem;
},
{
place = (55, 79);
place = (55, 79);
type = Stem;
},
{
place = (203, 83);
place = (203, 83);
type = Stem;
},
{
place = (508, 86);
place = (508, 86);
type = Stem;
},
{
horizontal = 1;
place = (479, 71);
place = (479, 71);
type = Stem;
}
);
layerId = m01;
shapes = (
{
closed = 1;
nodes = (
(157,727,o),
(55,594,o),
(55,363,cs),
(55,132,o),
(157,0,o),
(354,0,cs),
(426,0,l),
(426,75,l),
(354,75,ls),
(199,75,o),
(134,193,o),
(134,363,cs),
(134,529,o),
(189,652,o),
(344,652,cs),
(452,652,o),
(504,599,o),
(514,504,c),
(496,504,l),
(474,530,o),
(439,550,o),
(377,550,cs),
(267,550,o),
(203,467,o),
(203,362,cs),
(203,256,o),
(266,174,o),
(377,174,cs),
(440,174,o),
(475,196,o),
(497,221,c),
(515,221,l),
(515,184,l),
(594,184,l),
(594,488,ls),
(594,626,o),
(506,727,o),
(343,727,cs)
);
},
{
closed = 1;
nodes = (
(322,245,o),
(286,295,o),
(286,362,cs),
(286,429,o),
(322,479,o),
(397,479,cs),
(478,479,o),
(508,422,o),
(508,362,cs),
(508,302,o),
(478,245,o),
(397,245,cs)
);
}
);
width = 674;
}
);
note = at;
unicode = 64;
},
{
glyphname = A;
kernLeft = A;
kernRight = A;
layers = (
{
hints = (
{
horizontal = 1;
place = (0, 21);
target = up;
type = BottomGhost;
},
{
horizontal = 1;
place = (212, 100);
place = (212, 100);
type = Stem;
},
{
horizontal = 1;
place = (604, 110);
place = (604, 110);
type = Stem;
}
);
layerId = m01;
shapes = (
{
closed = 1;
nodes = (
(416,0,l),
(523,0,l),
(380,714,l),
(172,714,l),
(30,0,l),
(135,0,l),
(174,212,l),
(376,212,l)
);
},
{
closed = 1;
nodes = (
(248,604,l),
(303,604,l),
(357,312,l),
(193,312,l)
);
}
);
width = 553;
}
);
note = A;
unicode = 65;
},
{
glyphname = B;
kernRight = B;
layers = (
{
hints = (
{
horizontal = 1;
place = (0, 100);
place = (0, 100);
type = Stem;
},
{
horizontal = 1;
place = (321, 100);
place = (321, 100);
type = Stem;
},
{
horizontal = 1;
place = (614, 100);
place = (614, 100);
type = Stem;
},
{
place = (87, 107);
place = (87, 107);
type = Stem;
},
{
place = (417, 109);
place = (417, 109);
type = Stem;
}
);
layerId = m01;
shapes = (
{
closed = 1;
nodes = (
(449,391,l),
(501,420,o),
(526,467,o),
(526,529,cs),
(526,633,o),
(453,714,o),
(308,714,cs),
(87,714,l),
(87,0,l),
(300,0,ls),
(462,0,o),
(544,91,o),
(544,207,cs),
(544,277,o),
(514,330,o),
(449,363,c)
);
},
{
closed = 1;
nodes = (
(194,421,l),
(194,614,l),
(295,614,ls),
(384,614,o),
(417,578,o),
(417,517,cs),
(417,457,o),
(384,421,o),
(295,421,cs)
);
},
{
closed = 1;
nodes = (
(194,100,l),
(194,321,l),
(295,321,ls),
(397,321,o),
(435,280,o),
(435,210,cs),
(435,141,o),
(397,100,o),
(295,100,cs)
);
}
);
width = 594;
}
);
note = B;
unicode = 66;
},
{
glyphname = C;
kernLeft = zero;
kernRight = zero;
layers = (
{
hints = (
{
horizontal = 1;
place = (-13, 103);
place = (-13, 103);
type = Stem;
},
{
horizontal = 1;
place = (624, 103);
place = (624, 103);
type = Stem;
},
{
place = (55, 109);
place = (55, 109);
type = Stem;
}
);
layerId = m01;
shapes = (
{
closed = 1;
nodes = (
(535,525,l),
(510,648,o),
(447,727,o),
(313,727,cs),
(128,727,o),
(55,577,o),
(55,357,cs),
(55,138,o),
(128,-13,o),
(313,-13,cs),
(454,-13,o),
(521,75,o),
(544,209,c),
(436,209,l),
(417,117,o),
(375,90,o),
(308,90,cs),
(201,90,o),
(164,190,o),
(164,357,cs),
(164,524,o),
(201,624,o),
(308,624,cs),
(375,624,o),
(408,595,o),
(428,525,c)
);
}
);
width = 584;
}
);
note = C;
unicode = 67;
},
{
glyphname = D;
kernRight = zero;
layers = (
{
hints = (
{
horizontal = 1;
place = (0, 100);
place = (0, 100);
type = Stem;
},
{
horizontal = 1;
place = (614, 100);
place = (614, 100);
type = Stem;
},
{
place = (87, 107);
place = (87, 107);
type = Stem;
},
{
place = (442, 109);
place = (442, 109);
type = Stem;
}
);
layerId = m01;
shapes = (
{
closed = 1;
nodes = (
(87,714,l),
(87,0,l),
(272,0,ls),
(481,0,o),
(551,144,o),
(551,357,cs),
(551,571,o),
(481,714,o),
(272,714,cs)
);
},
{
closed = 1;
nodes = (
(194,614,l),
(260,614,ls),
(417,614,o),
(442,501,o),
(442,357,cs),
(442,213,o),
(417,100,o),
(260,100,cs),
(194,100,l)
);
}
);
width = 606;
}
);
note = D;
unicode = 68;
},
{
glyphname = E;
kernRight = E;
layers = (
{
hints = (
{
horizontal = 1;
place = (0, 100);
place = (0, 100);
type = Stem;
},
{
horizontal = 1;
place = (320, 100);
place = (320, 100);
type = Stem;
},
{
horizontal = 1;
place = (614, 100);
place = (614, 100);
type = Stem;
},
{
place = (87, 107);
place = (87, 107);
type = Stem;
}
);
layerId = m01;
shapes = (
{
closed = 1;
nodes = (
(194,100,l),
(194,320,l),
(410,320,l),
(410,420,l),
(194,420,l),
(194,614,l),
(488,614,l),
(488,714,l),
(87,714,l),
(87,0,l),
(488,0,l),
(488,100,l)
);
}
);
width = 538;
}
);
note = E;
unicode = 69;
},
{
glyphname = F;
kernRight = F;
layers = (
{
hints = (
{
horizontal = 1;
place = (0, 21);
target = up;
type = BottomGhost;
},
{
horizontal = 1;
place = (309, 100);
place = (309, 100);
type = Stem;
},
{
horizontal = 1;
place = (614, 100);
place = (614, 100);
type = Stem;
},
{
place = (87, 108);
place = (87, 108);
type = Stem;
}
);
layerId = m01;
shapes = (
{
closed = 1;
nodes = (
(489,614,l),
(489,714,l),
(87,714,l),
(87,0,l),
(195,0,l),
(195,309,l),
(417,309,l),
(417,409,l),
(195,409,l),
(195,614,l)
);
}
);
width = 531;
}
);
note = F;
unicode = 70;
},
{
glyphname = G;
kernLeft = zero;
kernRight = zero;
layers = (
{
hints = (
{
horizontal = 1;
place = (-13, 103);
place = (-13, 103);
type = Stem;
},
{
horizontal = 1;
place = (289, 100);
place = (289, 100);
type = Stem;
},
{
horizontal = 1;
place = (624, 103);
place = (624, 103);
type = Stem;
},
{
place = (55, 109);
place = (55, 109);
type = Stem;
},
{
place = (438, 108);
place = (438, 108);
type = Stem;
}
);
layerId = m01;
shapes = (
{
closed = 1;
nodes = (
(55,138,o),
(128,-13,o),
(313,-13,cs),
(478,-13,o),
(546,106,o),
(546,308,cs),
(546,389,l),
(276,389,l),
(276,289,l),
(438,289,l),
(438,279,ls),
(438,178,o),
(423,90,o),
(308,90,cs),
(201,90,o),
(164,190,o),
(164,357,cs),
(164,524,o),
(201,624,o),
(308,624,cs),
(375,624,o),
(408,595,o),
(428,525,c),
(535,525,l),
(510,648,o),
(447,727,o),
(313,727,cs),
(128,727,o),
(55,577,o),
(55,357,cs)
);
}
);
width = 601;
}
);
note = G;
unicode = 71;
},
{
glyphname = H;
layers = (
{
hints = (
{
horizontal = 1;
place = (0, 21);
target = up;
type = BottomGhost;
},
{
horizontal = 1;
place = (317, 102);
place = (317, 102);
type = Stem;
},
{
horizontal = 1;
place = (714, -20);
target = down;
type = TopGhost;
},
{
place = (87, 107);
place = (87, 107);
type = Stem;
},
{
place = (429, 107);
place = (429, 107);
type = Stem;
}
);
layerId = m01;
shapes = (
{
closed = 1;
nodes = (
(429,714,l),
(429,419,l),
(194,419,l),
(194,714,l),
(87,714,l),
(87,0,l),
(194,0,l),
(194,317,l),
(429,317,l),
(429,0,l),
(536,0,l),
(536,714,l)
);
}
);
width = 623;
}
);
note = H;
unicode = 72;
},
{
glyphname = I;
layers = (
{
hints = (
{
horizontal = 1;
place = (0, 21);
target = up;
type = BottomGhost;
},
{
horizontal = 1;
place = (714, -20);
target = down;
type = TopGhost;
},
{
place = (87, 107);
place = (87, 107);
type = Stem;
}
);
layerId = m01;
shapes = (
{
closed = 1;
nodes = (
(194,714,l),
(87,714,l),
(87,0,l),
(194,0,l)
);
}
);
width = 281;
}
);
note = I;
unicode = 73;
},
{
glyphname = J;
kernLeft = J;
kernRight = J;
layers = (
{
hints = (
{
horizontal = 1;
place = (-13, 104);
place = (-13, 104);
type = Stem;
},
{
horizontal = 1;
place = (714, -20);
target = down;
type = TopGhost;
},
{
place = (322, 107);
place = (322, 107);
type = Stem;
}
);
layerId = m01;
shapes = (
{
closed = 1;
nodes = (
(360,-13,o),
(429,62,o),
(429,192,cs),
(429,714,l),
(322,714,l),
(322,191,ls),
(322,120,o),
(291,91,o),
(236,91,cs),
(180,91,o),
(148,117,o),
(140,186,c),
(32,186,l),
(42,52,o),
(124,-13,o),
(236,-13,cs)
);
}
);
width = 509;
}
);
note = J;
unicode = 74;
},
{
glyphname = K;
kernRight = K;
layers = (
{
hints = (
{
horizontal = 1;
place = (0, 21);
target = up;
type = BottomGhost;
},
{
horizontal = 1;
place = (714, -20);
target = down;
type = TopGhost;
},
{
place = (87, 107);
place = (87, 107);
type = Stem;
}
);
layerId = m01;
shapes = (
{
closed = 1;
nodes = (
(194,212,l),
(289,352,l),
(332,352,l),
(445,0,l),
(555,0,l),
(395,506,l),
(536,714,l),
(421,714,l),
(194,379,l),
(194,714,l),
(87,714,l),
(87,0,l),
(194,0,l)
);
}
);
width = 575;
}
);
note = K;
unicode = 75;
},
{
glyphname = L;
kernRight = L;
layers = (
{
hints = (
{
horizontal = 1;
place = (0, 100);
place = (0, 100);
type = Stem;
},
{
horizontal = 1;
place = (714, -20);
target = down;
type = TopGhost;
},
{
place = (87, 107);
place = (87, 107);
type = Stem;
}
);
layerId = m01;
shapes = (
{
closed = 1;
nodes = (
(194,100,l),
(194,714,l),
(87,714,l),
(87,0,l),
(506,0,l),
(506,100,l)
);
}
);
width = 526;
}
);
note = L;
unicode = 76;
},
{
glyphname = M;
layers = (
{
hints = (
{
horizontal = 1;
place = (0, 21);
target = up;
type = BottomGhost;
},
{
horizontal = 1;
place = (604, 110);
place = (604, 110);
type = Stem;
},
{
place = (87, 103);
place = (87, 103);
type = Stem;
},
{
place = (538, 103);
place = (538, 103);
type = Stem;
}
);
layerId = m01;
shapes = (
{
closed = 1;
nodes = (
(443,714,l),
(380,383,l),
(352,383,l),
(289,714,l),
(87,714,l),
(87,0,l),
(190,0,l),
(190,604,l),
(218,604,l),
(283,270,l),
(445,270,l),
(510,604,l),
(538,604,l),
(538,0,l),
(641,0,l),
(641,714,l)
);
}
);
width = 728;
}
);
note = M;
unicode = 77;
},
{
glyphname = O;
kernLeft = zero;
kernRight = zero;
layers = (
{
hints = (
{
horizontal = 1;
place = (-13, 103);
place = (-13, 103);
type = Stem;
},
{
horizontal = 1;
place = (624, 103);
place = (624, 103);
type = Stem;
},
{
place = (55, 109);
place = (55, 109);
type = Stem;
},
{
place = (450, 109);
place = (450, 109);
type = Stem;
}
);
layerId = m01;
shapes = (
{
closed = 1;
nodes = (
(124,727,o),
(55,573,o),
(55,357,cs),
(55,142,o),
(124,-13,o),
(307,-13,cs),
(490,-13,o),
(559,142,o),
(559,357,cs),
(559,573,o),
(490,727,o),
(307,727,cs)
);
},
{
closed = 1;
nodes = (
(195,90,o),
(164,194,o),
(164,357,cs),
(164,520,o),
(195,624,o),
(307,624,cs),
(419,624,o),
(450,520,o),
(450,357,cs),
(450,194,o),
(419,90,o),
(307,90,cs)
);
}
);
width = 614;
}
);
note = O;
unicode = 79;
},
{
glyphname = uni20BD;
layers = (
{
hints = (
{
horizontal = 1;
place = (0, 21);
target = up;
type = BottomGhost;
},
{
horizontal = 1;
place = (155, 78);
place = (155, 78);
type = Stem;
},
{
horizontal = 1;
place = (292, 100);
place = (292, 100);
type = Stem;
},
{
horizontal = 1;
place = (614, 100);
place = (614, 100);
type = Stem;
},
{
place = (112, 107);
place = (112, 107);
type = Stem;
},
{
place = (460, 109);
place = (460, 109);
type = Stem;
}
);
layerId = m01;
shapes = (
{
closed = 1;
nodes = (
(20,292,l),
(112,292,l),
(112,233,l),
(20,233,l),
(20,155,l),
(112,155,l),
(112,0,l),
(219,0,l),
(219,155,l),
(415,155,l),
(415,233,l),
(219,233,l),
(219,292,l),
(334,292,ls),
(484,292,o),
(569,374,o),
(569,504,cs),
(569,634,o),
(484,714,o),
(334,714,cs),
(112,714,l),
(112,392,l),
(20,392,l)
);
},
{
closed = 1;
nodes = (
(219,392,l),
(219,614,l),
(320,614,ls),
(423,614,o),
(460,573,o),
(460,503,cs),
(460,433,o),
(423,392,o),
(320,392,cs)
);
}
);
width = 612;
}
);
note = uni20BD;
unicode = 8381;
},
{
glyphname = Q;
kernLeft = zero;
kernRight = zero;
layers = (
{
hints = (
{
horizontal = 1;
place = (-66, 21);
target = up;
type = BottomGhost;
},
{
horizontal = 1;
place = (-13, 103);
place = (-13, 103);
type = Stem;
},
{
horizontal = 1;
place = (319, -20);
target = down;
type = TopGhost;
},
{
horizontal = 1;
place = (624, 103);
place = (624, 103);
type = Stem;
},
{
place = (55, 109);
place = (55, 109);
type = Stem;
},
{
place = (450, 109);
place = (450, 109);
type = Stem;
}
);
layerId = m01;
shapes = (
{
closed = 1;
nodes = (
(124,727,o),
(55,573,o),
(55,357,cs),
(55,142,o),
(124,-13,o),
(307,-13,cs),
(356,-13,o),
(396,-2,o),
(430,18,c),
(482,-66,l),
(593,-66,l),
(498,85,l),
(540,151,o),
(559,246,o),
(559,357,cs),
(559,573,o),
(490,727,o),
(307,727,cs)
);
},
{
closed = 1;
nodes = (
(195,90,o),
(164,194,o),
(164,357,cs),
(164,520,o),
(195,624,o),
(307,624,cs),
(419,624,o),
(450,520,o),
(450,357,cs),
(450,291,o),
(445,235,o),
(431,191,c),
(352,319,l),
(245,319,l),
(375,108,l),
(356,96,o),
(334,90,o),
(307,90,cs)
);
}
);
width = 623;
}
);
note = Q;
unicode = 81;
},
{
glyphname = R;
kernRight = R;
layers = (
{
hints = (
{
horizontal = 1;
place = (0, 21);
target = up;
type = BottomGhost;
},
{
horizontal = 1;
place = (304, 100);
place = (304, 100);
type = Stem;
},
{
horizontal = 1;
place = (614, 100);
place = (614, 100);
type = Stem;
},
{
place = (87, 107);
place = (87, 107);
type = Stem;
},
{
place = (428, 108);
place = (428, 108);
type = Stem;
}
);
layerId = m01;
shapes = (
{
closed = 1;
nodes = (
(308,304,ls),
(321,304,o),
(334,304,o),
(346,306,c),
(435,0,l),
(548,0,l),
(448,337,l),
(505,372,o),
(536,432,o),
(536,509,cs),
(536,636,o),
(455,714,o),
(308,714,cs),
(87,714,l),
(87,0,l),
(194,0,l),
(194,304,l)
);
},
{
closed = 1;
nodes = (
(194,404,l),
(194,614,l),
(295,614,ls),
(393,614,o),
(428,575,o),
(428,509,cs),
(428,443,o),
(393,404,o),
(295,404,cs)
);
}
);
width = 603;
}
);
note = R;
unicode = 82;
},
{
glyphname = S;
kernLeft = dollar;
kernRight = dollar;
layers = (
{
hints = (
{
horizontal = 1;
place = (-13, 104);
place = (-13, 104);
type = Stem;
},
{
horizontal = 1;
place = (623, 104);
place = (623, 104);
type = Stem;
},
{
place = (67, 109);
place = (67, 109);
type = Stem;
},
{
place = (413, 109);
place = (413, 109);
type = Stem;
}
);
layerId = m01;
shapes = (
{
closed = 1;
nodes = (
(512,528,l),
(496,646,o),
(428,727,o),
(284,727,cs),
(133,727,o),
(67,638,o),
(67,531,cs),
(67,419,o),
(133,381,o),
(221,344,cs),
(323,301,ls),
(388,274,o),
(413,250,o),
(413,194,cs),
(413,138,o),
(372,91,o),
(296,91,cs),
(230,91,o),
(170,114,o),
(155,205,c),
(47,205,l),
(58,81,o),
(136,-13,o),
(290,-13,cs),
(459,-13,o),
(522,92,o),
(522,201,cs),
(522,318,o),
(454,362,o),
(358,403,cs),
(256,446,ls),
(197,471,o),
(176,489,o),
(176,538,cs),
(176,589,o),
(214,623,o),
(280,623,cs),
(350,623,o),
(387,597,o),
(404,528,c)
);
}
);
width = 579;
}
);
note = S;
unicode = 83;
},
{
glyphname = T;
kernLeft = T;
kernRight = T;
layers = (
{
hints = (
{
horizontal = 1;
place = (0, 21);
target = up;
type = BottomGhost;
},
{
horizontal = 1;
place = (614, 100);
place = (614, 100);
type = Stem;
},
{
place = (201, 107);
place = (201, 107);
type = Stem;
}
);
layerId = m01;
shapes = (
{
closed = 1;
nodes = (
(479,714,l),
(30,714,l),
(30,614,l),
(201,614,l),
(201,0,l),
(308,0,l),
(308,614,l),
(479,614,l)
);
}
);
width = 509;
}
);
note = T;
unicode = 84;
},
{
glyphname = U;
kernLeft = U;
kernRight = J;
layers = (
{
hints = (
{
horizontal = 1;
place = (-13, 103);
place = (-13, 103);
type = Stem;
},
{
horizontal = 1;
place = (714, -20);
target = down;
type = TopGhost;
},
{
place = (80, 107);
place = (80, 107);
type = Stem;
},
{
place = (433, 107);
place = (433, 107);
type = Stem;
}
);
layerId = m01;
shapes = (
{
closed = 1;
nodes = (
(433,714,l),
(433,248,ls),
(433,147,o),
(399,90,o),
(310,90,cs),
(221,90,o),
(187,147,o),
(187,248,cs),
(187,714,l),
(80,714,l),
(80,248,ls),
(80,76,o),
(151,-13,o),
(310,-13,cs),
(469,-13,o),
(540,76,o),
(540,248,cs),
(540,714,l)
);
}
);
width = 620;
}
);
note = U;
unicode = 85;
},
{
glyphname = V;
kernLeft = V;
kernRight = V;
layers = (
{
hints = (
{
horizontal = 1;
place = (0, 110);
place = (0, 110);
type = Stem;
},
{
horizontal = 1;
place = (714, -20);
target = down;
type = TopGhost;
}
);
layerId = m01;
shapes = (
{
closed = 1;
nodes = (
(137,714,l),
(30,714,l),
(166,0,l),
(386,0,l),
(522,714,l),
(417,714,l),
(306,110,l),
(247,110,l)
);
}
);
width = 552;
}
);
note = V;
unicode = 86;
},
{
glyphname = W;
kernLeft = W;
kernRight = W;
layers = (
{
hints = (
{
horizontal = 1;
place = (0, 131);
place = (0, 131);
type = Stem;
},
{
horizontal = 1;
place = (714, -20);
target = down;
type = TopGhost;
},
{
place = (84, 99);
place = (84, 99);
type = Stem;
},
{
place = (552, 98);
place = (552, 98);
type = Stem;
}
);
layerId = m01;
shapes = (
{
closed = 1;
nodes = (
(289,474,l),
(230,131,l),
(202,131,l),
(164,714,l),
(60,714,l),
(109,0,l),
(295,0,l),
(354,353,l),
(382,353,l),
(441,0,l),
(626,0,l),
(674,714,l),
(570,714,l),
(534,131,l),
(506,131,l),
(447,474,l)
);
}
);
width = 734;
}
);
note = W;
unicode = 87;
},
{
glyphname = X;
kernLeft = X;
kernRight = X;
layers = (
{
hints = (
{
horizontal = 1;
place = (0, 21);
target = up;
type = BottomGhost;
},
{
horizontal = 1;
place = (310, 132);
place = (310, 132);
type = Stem;
},
{
horizontal = 1;
place = (714, -20);
target = down;
type = TopGhost;
}
);
layerId = m01;
shapes = (
{
closed = 1;
nodes = (
(310,310,l),
(422,0,l),
(538,0,l),
(400,378,l),
(524,714,l),
(412,714,l),
(312,442,l),
(258,442,l),
(158,714,l),
(44,714,l),
(168,378,l),
(30,0,l),
(144,0,l),
(256,310,l)
);
}
);
width = 568;
}
);
note = X;
unicode = 88;
},
{
glyphname = Y;
kernLeft = Y;
kernRight = Y;
layers = (
{
hints = (
{
horizontal = 1;
place = (0, 21);
target = up;
type = BottomGhost;
},
{
horizontal = 1;
place = (714, -20);
target = down;
type = TopGhost;
},
{
place = (207, 107);
place = (207, 107);
type = Stem;
}
);
layerId = m01;
shapes = (
{
closed = 1;
nodes = (
(238,448,l),
(122,714,l),
(10,714,l),
(207,266,l),
(207,0,l),
(314,0,l),
(314,266,l),
(511,714,l),
(401,714,l),
(284,448,l)
);
}
);
width = 521;
}
);
note = Y;
unicode = 89;
},
{
glyphname = Z;
kernLeft = Z;
kernRight = Z;
layers = (
{
hints = (
{
horizontal = 1;
place = (0, 100);
place = (0, 100);
type = Stem;
},
{
horizontal = 1;
place = (614, 100);
place = (614, 100);
type = Stem;
}
);
layerId = m01;
shapes = (
{
closed = 1;
nodes = (
(486,714,l),
(56,714,l),
(56,614,l),
(362,614,l),
(362,584,l),
(40,128,l),
(40,0,l),
(497,0,l),
(497,100,l),
(166,100,l),
(166,128,l),
(486,584,l)
);
}
);
width = 537;
}
);
note = Z;
unicode = 90;
},
{
glyphname = bracketleft;
layers = (
{
hints = (
{
horizontal = 1;
place = (-103, 83);
place = (-103, 83);
type = Stem;
},
{
horizontal = 1;
place = (714, 83);
place = (714, 83);
type = Stem;
},
{
place = (87, 94);
place = (87, 94);
type = Stem;
}
);
layerId = m01;
shapes = (
{
closed = 1;
nodes = (
(334,-103,l),
(334,-20,l),
(181,-20,l),
(181,714,l),
(334,714,l),
(334,797,l),
(87,797,l),
(87,-103,l)
);
}
);
width = 364;
}
);
note = bracketleft;
unicode = 91;
},
{
glyphname = backslash;
layers = (
{
hints = (
{
horizontal = 1;
place = (0, 21);
target = up;
type = BottomGhost;
},
{
horizontal = 1;
place = (714, -20);
target = down;
type = TopGhost;
}
);
layerId = m01;
shapes = (
{
closed = 1;
nodes = (
(354,0,l),
(122,714,l),
(30,714,l),
(259,0,l)
);
}
);
width = 384;
}
);
note = backslash;
unicode = 92;
},
{
glyphname = bracketright;
layers = (
{
hints = (
{
horizontal = 1;
place = (-103, 83);
place = (-103, 83);
type = Stem;
},
{
horizontal = 1;
place = (714, 83);
place = (714, 83);
type = Stem;
},
{
place = (183, 94);
place = (183, 94);
type = Stem;
}
);
layerId = m01;
shapes = (
{
closed = 1;
nodes = (
(277,-103,l),
(277,797,l),
(30,797,l),
(30,714,l),
(183,714,l),
(183,-20,l),
(30,-20,l),
(30,-103,l)
);
}
);
width = 364;
}
);
note = bracketright;
unicode = 93;
},
{
glyphname = asciicircum;
layers = (
{
hints = (
{
horizontal = 1;
place = (246, 21);
target = up;
type = BottomGhost;
},
{
horizontal = 1;
place = (714, -20);
target = down;
type = TopGhost;
}
);
layerId = m01;
shapes = (
{
closed = 1;
nodes = (
(81,246,l),
(178,246,l),
(310,605,l),
(338,605,l),
(470,246,l),
(567,246,l),
(386,714,l),
(262,714,l)
);
}
);
width = 648;
}
);
note = asciicircum;
unicode = 94;
},
{
glyphname = underscore;
layers = (
{
hints = (
{
horizontal = 1;
place = (-133, 93);
place = (-133, 93);
type = Stem;
}
);
layerId = m01;
shapes = (
{
closed = 1;
nodes = (
(554,-133,l),
(554,-40,l),
(-1,-40,l),
(-1,-133,l)
);
}
);
width = 553;
}
);
note = underscore;
unicode = 95;
},
{
glyphname = braceleft;
layers = (
{
hints = (
{
horizontal = 1;
place = (-103, 83);
place = (-103, 83);
type = Stem;
},
{
horizontal = 1;
place = (305, 83);
place = (305, 83);
type = Stem;
},
{
horizontal = 1;
place = (714, 83);
place = (714, 83);
type = Stem;
},
{
place = (121, 94);
place = (121, 94);
type = Stem;
}
);
layerId = m01;
shapes = (
{
closed = 1;
nodes = (
(215,621,ls),
(215,683,o),
(246,714,o),
(308,714,cs),
(363,714,l),
(363,797,l),
(286,797,ls),
(176,797,o),
(121,742,o),
(121,632,cs),
(121,484,ls),
(121,423,o),
(107,388,o),
(57,388,cs),
(40,388,l),
(40,305,l),
(57,305,ls),
(107,305,o),
(121,270,o),
(121,209,cs),
(121,62,ls),
(121,-48,o),
(176,-103,o),
(286,-103,cs),
(363,-103,l),
(363,-20,l),
(308,-20,ls),
(246,-20,o),
(215,11,o),
(215,73,cs)
);
}
);
width = 393;
}
);
note = braceleft;
unicode = 123;
},
{
glyphname = bar;
layers = (
{
hints = (
{
horizontal = 1;
place = (0, 21);
target = up;
type = BottomGhost;
},
{
horizontal = 1;
place = (714, -20);
target = down;
type = TopGhost;
},
{
place = (87, 94);
place = (87, 94);
type = Stem;
}
);
layerId = m01;
shapes = (
{
closed = 1;
nodes = (
(87,0,l),
(181,0,l),
(181,714,l),
(87,714,l)
);
}
);
width = 268;
}
);
note = bar;
unicode = 124;
},
{
glyphname = braceright;
layers = (
{
hints = (
{
horizontal = 1;
place = (-103, 83);
place = (-103, 83);
type = Stem;
},
{
horizontal = 1;
place = (305, 83);
place = (305, 83);
type = Stem;
},
{
horizontal = 1;
place = (714, 83);
place = (714, 83);
type = Stem;
},
{
place = (178, 94);
place = (178, 94);
type = Stem;
}
);
layerId = m01;
shapes = (
{
closed = 1;
nodes = (
(178,73,ls),
(178,11,o),
(147,-20,o),
(85,-20,cs),
(30,-20,l),
(30,-103,l),
(107,-103,ls),
(217,-103,o),
(272,-48,o),
(272,62,cs),
(272,209,ls),
(272,270,o),
(286,305,o),
(336,305,cs),
(353,305,l),
(353,388,l),
(336,388,ls),
(286,388,o),
(272,423,o),
(272,484,cs),
(272,632,ls),
(272,742,o),
(217,797,o),
(107,797,cs),
(30,797,l),
(30,714,l),
(85,714,ls),
(147,714,o),
(178,683,o),
(178,621,cs)
);
}
);
width = 393;
}
);
note = braceright;
unicode = 125;
},
{
glyphname = asciitilde;
layers = (
{
hints = (
{
horizontal = 1;
place = (276, 98);
place = (276, 98);
type = Stem;
},
{
place = (81, 87);
place = (81, 87);
type = Stem;
},
{
place = (470, 87);
place = (470, 87);
type = Stem;
},
{
horizontal = 1;
place = (196, 98);
place = (196, 98);
type = Stem;
}
);
layerId = m01;
shapes = (
{
closed = 1;
nodes = (
(470,374,l),
(470,317,o),
(454,294,o),
(419,294,cs),
(363,294,o),
(300,374,o),
(210,374,cs),
(122,374,o),
(81,300,o),
(81,196,c),
(168,196,l),
(168,252,o),
(184,276,o),
(219,276,cs),
(275,276,o),
(339,196,o),
(428,196,cs),
(515,196,o),
(557,270,o),
(557,374,c)
);
}
);
width = 638;
}
);
note = asciitilde;
unicode = 126;
},
{
glyphname = exclamdown;
layers = (
{
hints = (
{
horizontal = 1;
place = (0, 20);
place = (0, 20);
type = Stem;
},
{
horizontal = 1;
place = (577, 137);
place = (577, 137);
type = Stem;
},
{
place = (78, 107);
place = (78, 107);
type = Stem;
}
);
layerId = m01;
shapes = (
{
closed = 1;
nodes = (
(78,494,l),
(78,0,l),
(185,0,l),
(185,494,l)
);
},
{
closed = 1;
nodes = (
(70,714,l),
(70,577,l),
(194,577,l),
(194,714,l)
);
}
);
width = 264;
}
);
note = exclamdown;
unicode = 161;
},
{
glyphname = cent;
kernLeft = zero;
kernRight = zero;
layers = (
{
hints = (
{
horizontal = 1;
place = (-98, 21);
target = up;
type = BottomGhost;
},
{
horizontal = 1;
place = (798, -20);
target = down;
type = TopGhost;
},
{
place = (55, 109);
place = (55, 109);
type = Stem;
},
{
place = (269, 75);
place = (269, 75);
type = Stem;
}
);
layerId = m01;
shapes = (
{
closed = 1;
nodes = (
(535,525,l),
(512,638,o),
(457,714,o),
(344,725,c),
(344,798,l),
(269,798,l),
(269,724,l),
(116,701,o),
(55,558,o),
(55,357,cs),
(55,156,o),
(116,12,o),
(269,-10,c),
(269,-98,l),
(344,-98,l),
(344,-11,l),
(464,0,o),
(523,85,o),
(544,209,c),
(436,209,l),
(420,134,o),
(391,100,o),
(344,93,c),
(344,620,l),
(387,614,o),
(412,581,o),
(428,525,c)
);
},
{
closed = 1;
nodes = (
(164,502,o),
(192,599,o),
(269,619,c),
(269,95,l),
(192,113,o),
(164,212,o),
(164,357,cs)
);
}
);
width = 584;
}
);
note = cent;
unicode = 162;
},
{
glyphname = sterling;
layers = (
{
hints = (
{
horizontal = 1;
place = (0, 100);
place = (0, 100);
type = Stem;
},
{
horizontal = 1;
place = (288, 100);
place = (288, 100);
type = Stem;
},
{
horizontal = 1;
place = (623, 104);
place = (623, 104);
type = Stem;
},
{
place = (116, 107);
place = (116, 107);
type = Stem;
}
);
layerId = m01;
shapes = (
{
closed = 1;
nodes = (
(223,523,ls),
(223,594,o),
(254,623,o),
(309,623,cs),
(365,623,o),
(397,597,o),
(405,528,c),
(513,528,l),
(503,662,o),
(421,727,o),
(309,727,cs),
(185,727,o),
(116,652,o),
(116,522,cs),
(116,388,l),
(50,388,l),
(50,288,l),
(116,288,l),
(116,176,ls),
(116,155,o),
(115,100,o),
(76,100,cs),
(50,100,l),
(50,0,l),
(537,0,l),
(537,100,l),
(202,100,l),
(202,128,l),
(222,150,o),
(223,175,o),
(223,209,cs),
(223,288,l),
(404,288,l),
(404,388,l),
(223,388,l)
);
}
);
width = 577;
}
);
note = sterling;
unicode = 163;
},
{
glyphname = currency;
layers = (
{
hints = (
{
horizontal = 1;
place = (76, 21);
target = up;
type = BottomGhost;
},
{
horizontal = 1;
place = (647, -20);
target = down;
type = TopGhost;
},
{
place = (99, 97);
place = (99, 97);
type = Stem;
},
{
place = (535, 98);
place = (535, 98);
type = Stem;
},
{
horizontal = 1;
place = (94, 90);
place = (94, 90);
type = Stem;
},
{
horizontal = 1;
place = (537, 91);
place = (537, 91);
type = Stem;
}
);
layerId = m01;
shapes = (
{
closed = 1;
nodes = (
(585,76,l),
(650,141,l),
(584,209,l),
(615,252,o),
(633,304,o),
(633,362,cs),
(633,416,o),
(613,470,o),
(585,512,c),
(650,579,l),
(585,647,l),
(517,581,l),
(475,610,o),
(422,628,o),
(367,628,cs),
(311,628,o),
(256,607,o),
(214,581,c),
(147,647,l),
(82,579,l),
(147,512,l),
(116,469,o),
(99,417,o),
(99,362,cs),
(99,307,o),
(118,252,o),
(147,209,c),
(81,142,l),
(147,76,l),
(214,142,l),
(259,110,o),
(308,94,o),
(367,94,cs),
(421,94,o),
(475,113,o),
(517,142,c)
);
},
{
closed = 1;
nodes = (
(271,184,o),
(196,261,o),
(196,362,cs),
(196,462,o),
(271,537,o),
(367,537,cs),
(462,537,o),
(535,462,o),
(535,362,cs),
(535,261,o),
(462,184,o),
(367,184,cs)
);
}
);
width = 731;
}
);
note = currency;
unicode = 164;
},
{
glyphname = yen;
kernLeft = Y;
kernRight = Y;
layers = (
{
hints = (
{
horizontal = 1;
place = (0, 21);
target = up;
type = BottomGhost;
},
{
horizontal = 1;
place = (233, 78);
place = (233, 78);
type = Stem;
},
{
horizontal = 1;
place = (370, 78);
place = (370, 78);
type = Stem;
},
{
horizontal = 1;
place = (714, -20);
target = down;
type = TopGhost;
},
{
place = (207, 107);
place = (207, 107);
type = Stem;
}
);
layerId = m01;
shapes = (
{
closed = 1;
nodes = (
(458,370,l),
(458,448,l),
(394,448,l),
(511,714,l),
(401,714,l),
(284,448,l),
(238,448,l),
(122,714,l),
(10,714,l),
(127,448,l),
(63,448,l),
(63,370,l),
(161,370,l),
(187,311,l),
(63,311,l),
(63,233,l),
(207,233,l),
(207,0,l),
(314,0,l),
(314,233,l),
(458,233,l),
(458,311,l),
(334,311,l),
(360,370,l)
);
}
);
width = 521;
}
);
note = yen;
unicode = 165;
},
{
glyphname = brokenbar;
layers = (
{
hints = (
{
horizontal = 1;
place = (0, 21);
target = up;
type = BottomGhost;
},
{
horizontal = 1;
place = (714, -20);
target = down;
type = TopGhost;
},
{
place = (87, 94);
place = (87, 94);
type = Stem;
}
);
layerId = m01;
shapes = (
{
closed = 1;
nodes = (
(87,452,l),
(181,452,l),
(181,714,l),
(87,714,l)
);
},
{
closed = 1;
nodes = (
(87,0,l),
(181,0,l),
(181,242,l),
(87,242,l)
);
}
);
width = 268;
}
);
note = brokenbar;
unicode = 166;
},
{
glyphname = section;
kernLeft = dollar;
kernRight = dollar;
layers = (
{
hints = (
{
horizontal = 1;
place = (-13, 103);
place = (-13, 103);
type = Stem;
},
{
horizontal = 1;
place = (624, 103);
place = (624, 103);
type = Stem;
},
{
place = (50, 107);
place = (50, 107);
type = Stem;
},
{
place = (358, 107);
place = (358, 107);
type = Stem;
}
);
layerId = m01;
shapes = (
{
closed = 1;
nodes = (
(50,189,l),
(64,68,o),
(143,-13,o),
(263,-13,cs),
(391,-13,o),
(465,59,o),
(465,164,cs),
(465,278,ls),
(465,371,o),
(408,427,o),
(342,467,cs),
(157,580,l),
(166,607,o),
(197,624,o),
(242,624,cs),
(307,624,o),
(346,597,o),
(358,525,c),
(465,525,l),
(451,646,o),
(372,727,o),
(252,727,cs),
(124,727,o),
(50,655,o),
(50,550,cs),
(50,436,ls),
(50,343,o),
(107,287,o),
(173,247,cs),
(358,134,l),
(349,107,o),
(318,90,o),
(273,90,cs),
(208,90,o),
(169,117,o),
(157,189,c)
);
},
{
closed = 1;
nodes = (
(157,466,l),
(268,398,ls),
(320,366,o),
(358,332,o),
(358,277,cs),
(358,247,l),
(247,316,ls),
(195,348,o),
(157,382,o),
(157,437,cs)
);
}
);
width = 525;
}
);
note = section;
unicode = 167;
},
{
glyphname = copyright;
layers = (
{
hints = (
{
horizontal = 1;
place = (87, 45);
place = (87, 45);
type = Stem;
},
{
horizontal = 1;
place = (214, 101);
place = (214, 101);
type = Stem;
},
{
horizontal = 1;
place = (411, 95);
place = (411, 95);
type = Stem;
},
{
horizontal = 1;
place = (590, 44);
place = (590, 44);
type = Stem;
},
{
place = (42, 48);
place = (42, 48);
type = Stem;
},
{
place = (188, 50);
place = (188, 50);
type = Stem;
},
{
place = (540, 47);
place = (540, 47);
type = Stem;
},
{
horizontal = 1;
place = (214, 45);
place = (214, 45);
type = Stem;
},
{
horizontal = 1;
place = (462, 44);
place = (462, 44);
type = Stem;
}
);
layerId = m01;
shapes = (
{
closed = 1;
nodes = (
(162,634,o),
(42,513,o),
(42,360,cs),
(42,207,o),
(161,87,o),
(315,87,cs),
(468,87,o),
(587,207,o),
(587,360,cs),
(587,513,o),
(468,634,o),
(315,634,cs)
);
},
{
closed = 1;
nodes = (
(186,132,o),
(90,231,o),
(90,360,cs),
(90,489,o),
(186,590,o),
(315,590,cs),
(443,590,o),
(540,489,o),
(540,360,cs),
(540,232,o),
(443,132,o),
(315,132,cs)
);
},
{
closed = 1;
nodes = (
(391,315,l),
(384,281,o),
(361,259,o),
(322,259,cs),
(263,259,o),
(238,304,o),
(238,360,cs),
(238,416,o),
(263,462,o),
(322,462,cs),
(361,462,o),
(381,443,o),
(389,411,c),
(439,411,l),
(430,467,o),
(386,506,o),
(322,506,cs),
(236,506,o),
(188,443,o),
(188,360,cs),
(188,278,o),
(236,214,o),
(322,214,cs),
(389,214,o),
(433,258,o),
(442,315,c)
);
}
);
width = 630;
}
);
note = copyright;
unicode = 169;
},
{
glyphname = ordfeminine;
layers = (
{
hints = (
{
horizontal = 1;
place = (334, 21);
target = up;
type = BottomGhost;
},
{
horizontal = 1;
place = (414, 76);
place = (414, 76);
type = Stem;
},
{
horizontal = 1;
place = (714, -20);
target = down;
type = TopGhost;
}
);
layerId = m01;
shapes = (
{
closed = 1;
nodes = (
(268,334,l),
(346,334,l),
(256,714,l),
(120,714,l),
(30,334,l),
(106,334,l),
(124,414,l),
(250,414,l)
);
},
{
closed = 1;
nodes = (
(173,630,l),
(201,630,l),
(232,490,l),
(141,490,l)
);
}
);
width = 376;
}
);
note = ordfeminine;
unicode = 170;
},
{
glyphname = guillemotleft;
layers = (
{
hints = (
{
horizontal = 1;
place = (167, 21);
target = up;
type = BottomGhost;
},
{
horizontal = 1;
place = (533, -20);
target = down;
type = TopGhost;
}
);
layerId = m01;
shapes = (
{
closed = 1;
nodes = (
(137,364,l),
(279,533,l),
(165,533,l),
(40,385,l),
(40,314,l),
(165,167,l),
(279,167,l),
(137,336,l)
);
},
{
closed = 1;
nodes = (
(337,364,l),
(479,533,l),
(365,533,l),
(240,385,l),
(240,314,l),
(365,167,l),
(479,167,l),
(337,336,l)
);
}
);
width = 509;
}
);
note = guillemotleft;
unicode = 171;
},
{
glyphname = logicalnot;
layers = (
{
hints = (
{
horizontal = 1;
place = (108, 21);
target = up;
type = BottomGhost;
},
{
horizontal = 1;
place = (305, 92);
place = (305, 92);
type = Stem;
},
{
place = (457, 92);
place = (457, 92);
type = Stem;
}
);
layerId = m01;
shapes = (
{
closed = 1;
nodes = (
(457,108,l),
(549,108,l),
(549,397,l),
(81,397,l),
(81,305,l),
(457,305,l)
);
}
);
width = 630;
}
);
note = logicalnot;
unicode = 172;
},
{
glyphname = uni00AD;
kernLeft = hyphen;
kernRight = hyphen;
layers = (
{
hints = (
{
horizontal = 1;
place = (315, 93);
place = (315, 93);
type = Stem;
}
);
layerId = m01;
shapes = (
{
closed = 1;
nodes = (
(383,315,l),
(383,408,l),
(40,408,l),
(40,315,l)
);
}
);
width = 423;
}
);
note = uni00AD;
unicode = 173;
},
{
glyphname = registered;
layers = (
{
hints = (
{
horizontal = 1;
place = (87, 45);
place = (87, 45);
type = Stem;
},
{
horizontal = 1;
place = (219, 155);
place = (219, 155);
type = Stem;
},
{
horizontal = 1;
place = (457, 44);
place = (457, 44);
type = Stem;
},
{
horizontal = 1;
place = (590, 44);
place = (590, 44);
type = Stem;
},
{
place = (42, 48);
place = (42, 48);
type = Stem;
},
{
place = (211, 50);
place = (211, 50);
type = Stem;
},
{
place = (386, 50);
place = (386, 50);
type = Stem;
},
{
place = (540, 47);
place = (540, 47);
type = Stem;
},
{
horizontal = 1;
place = (332, 42);
place = (332, 42);
type = Stem;
}
);
layerId = m01;
shapes = (
{
closed = 1;
nodes = (
(211,501,l),
(211,219,l),
(261,219,l),
(261,332,l),
(347,332,l),
(387,219,l),
(437,219,l),
(394,343,l),
(421,357,o),
(436,382,o),
(436,417,cs),
(436,469,o),
(401,501,o),
(341,501,cs)
);
},
{
closed = 1;
nodes = (
(261,374,l),
(261,457,l),
(333,457,ls),
(371,457,o),
(386,442,o),
(386,416,cs),
(386,391,o),
(371,374,o),
(333,374,cs)
);
},
{
closed = 1;
nodes = (
(162,634,o),
(42,513,o),
(42,360,cs),
(42,207,o),
(161,87,o),
(315,87,cs),
(468,87,o),
(587,207,o),
(587,360,cs),
(587,513,o),
(468,634,o),
(315,634,cs)
);
},
{
closed = 1;
nodes = (
(186,132,o),
(90,231,o),
(90,360,cs),
(90,489,o),
(186,590,o),
(315,590,cs),
(443,590,o),
(540,489,o),
(540,360,cs),
(540,232,o),
(443,132,o),
(315,132,cs)
);
}
);
width = 630;
}
);
note = registered;
unicode = 174;
},
{
glyphname = degree;
layers = (
{
hints = (
{
horizontal = 1;
place = (417, 91);
place = (417, 91);
type = Stem;
},
{
horizontal = 1;
place = (636, 91);
place = (636, 91);
type = Stem;
},
{
place = (50, 90);
place = (50, 90);
type = Stem;
},
{
place = (261, 91);
place = (261, 91);
type = Stem;
}
);
layerId = m01;
shapes = (
{
closed = 1;
nodes = (
(107,727,o),
(50,657,o),
(50,572,cs),
(50,487,o),
(107,417,o),
(201,417,cs),
(295,417,o),
(352,487,o),
(352,572,cs),
(352,657,o),
(295,727,o),
(201,727,cs)
);
},
{
closed = 1;
nodes = (
(165,508,o),
(140,536,o),
(140,572,cs),
(140,608,o),
(165,636,o),
(201,636,cs),
(237,636,o),
(261,608,o),
(261,572,cs),
(261,536,o),
(237,508,o),
(201,508,cs)
);
}
);
width = 402;
}
);
note = degree;
unicode = 176;
},
{
glyphname = plusminus;
layers = (
{
hints = (
{
horizontal = 1;
place = (0, 93);
place = (0, 93);
type = Stem;
},
{
horizontal = 1;
place = (353, 93);
place = (353, 93);
type = Stem;
},
{
horizontal = 1;
place = (633, -20);
target = down;
type = TopGhost;
},
{
place = (268, 93);
place = (268, 93);
type = Stem;
}
);
layerId = m01;
shapes = (
{
closed = 1;
nodes = (
(81,93,l),
(81,0,l),
(549,0,l),
(549,93,l)
);
},
{
closed = 1;
nodes = (
(268,446,l),
(81,446,l),
(81,353,l),
(268,353,l),
(268,166,l),
(361,166,l),
(361,353,l),
(549,353,l),
(549,446,l),
(361,446,l),
(361,633,l),
(268,633,l)
);
}
);
width = 630;
}
);
note = plusminus;
unicode = 177;
},
{
glyphname = twosuperior;
layers = (
{
hints = (
{
horizontal = 1;
place = (394, 67);
place = (394, 67);
type = Stem;
},
{
horizontal = 1;
place = (655, 65);
place = (655, 65);
type = Stem;
},
{
place = (40, 71);
place = (40, 71);
type = Stem;
},
{
place = (204, 71);
place = (204, 71);
type = Stem;
}
);
layerId = m01;
shapes = (
{
closed = 1;
nodes = (
(149,461,l),
(149,470,l),
(213,514,ls),
(250,540,o),
(275,570,o),
(275,616,cs),
(275,682,o),
(229,720,o),
(162,720,cs),
(93,720,o),
(42,683,o),
(40,605,c),
(111,605,l),
(112,638,o),
(131,655,o),
(159,655,cs),
(186,655,o),
(204,640,o),
(204,613,cs),
(204,579,o),
(168,556,o),
(129,530,cs),
(39,470,l),
(39,394,l),
(286,394,l),
(286,461,l)
);
}
);
width = 325;
}
);
note = twosuperior;
unicode = 178;
},
{
glyphname = threesuperior;
layers = (
{
hints = (
{
horizontal = 1;
place = (388, 66);
place = (388, 66);
type = Stem;
},
{
horizontal = 1;
place = (651, 63);
place = (651, 63);
type = Stem;
},
{
place = (30, 72);
place = (30, 72);
type = Stem;
},
{
place = (207, 72);
place = (207, 72);
type = Stem;
}
);
layerId = m01;
shapes = (
{
closed = 1;
nodes = (
(203,603,l),
(265,641,l),
(265,714,l),
(50,714,l),
(50,651,l),
(177,651,l),
(177,641,l),
(122,605,l),
(122,543,l),
(134,546,o),
(142,547,o),
(155,547,cs),
(187,547,o),
(207,528,o),
(207,499,cs),
(207,471,o),
(186,454,o),
(158,454,cs),
(127,454,o),
(104,471,o),
(102,504,c),
(30,504,l),
(34,436,o),
(82,388,o),
(156,388,cs),
(230,388,o),
(279,432,o),
(279,499,cs),
(279,554,o),
(244,587,o),
(203,594,c)
);
}
);
width = 319;
}
);
note = threesuperior;
unicode = 179;
},
{
glyphname = mu;
layers = (
{
hints = (
{
horizontal = 1;
place = (-189, 21);
target = up;
type = BottomGhost;
},
{
horizontal = 1;
place = (-12, 100);
place = (-12, 100);
type = Stem;
},
{
horizontal = 1;
place = (505, -20);
target = down;
type = TopGhost;
},
{
place = (87, 107);
place = (87, 107);
type = Stem;
},
{
place = (430, 107);
place = (430, 107);
type = Stem;
},
{
horizontal = 1;
place = (0, 88);
place = (0, 88);
type = Stem;
}
);
layerId = m01;
shapes = (
{
closed = 1;
nodes = (
(87,505,l),
(87,-189,l),
(194,-189,l),
(194,4,l),
(219,-7,o),
(248,-12,o),
(282,-12,cs),
(345,-12,o),
(399,14,o),
(430,51,c),
(430,0,l),
(537,0,l),
(537,505,l),
(430,505,l),
(430,235,ls),
(430,155,o),
(379,88,o),
(301,88,cs),
(233,88,o),
(194,125,o),
(194,198,cs),
(194,505,l)
);
}
);
width = 624;
}
);
note = mu;
unicode = 181;
},
{
glyphname = paragraph;
layers = (
{
hints = (
{
horizontal = 1;
place = (0, 21);
target = up;
type = BottomGhost;
},
{
horizontal = 1;
place = (614, 100);
place = (614, 100);
type = Stem;
},
{
place = (232, 67);
place = (232, 67);
type = Stem;
},
{
place = (387, 98);
place = (387, 98);
type = Stem;
}
);
layerId = m01;
shapes = (
{
closed = 1;
nodes = (
(299,0,l),
(299,614,l),
(387,614,l),
(387,0,l),
(485,0,l),
(485,614,l),
(538,614,l),
(538,714,l),
(242,714,ls),
(129,714,o),
(40,657,o),
(40,523,cs),
(40,390,o),
(137,333,o),
(232,333,c),
(232,0,l)
);
}
);
width = 603;
}
);
note = paragraph;
unicode = 182;
},
{
glyphname = periodcentered;
layers = (
{
hints = (
{
horizontal = 1;
place = (264, 137);
place = (264, 137);
type = Stem;
},
{
place = (70, 124);
place = (70, 124);
type = Stem;
}
);
layerId = m01;
shapes = (
{
closed = 1;
nodes = (
(194,264,l),
(194,401,l),
(70,401,l),
(70,264,l)
);
}
);
width = 264;
}
);
note = periodcentered;
unicode = 183;
},
{
glyphname = cedilla;
layers = (
{
hints = (
{
horizontal = 1;
place = (-229, 56);
place = (-229, 56);
type = Stem;
},
{
horizontal = 1;
place = (-116, 138);
place = (-116, 138);
type = Stem;
},
{
place = (183, 75);
place = (183, 75);
type = Stem;
},
{
horizontal = 1;
place = (-104, 56);
place = (-104, 56);
type = Stem;
},
{
horizontal = 1;
place = (-229, 81);
place = (-229, 81);
type = Stem;
}
);
layerId = m01;
shapes = (
{
closed = 1;
nodes = (
(107,22,l),
(54,-116,l),
(116,-116,l),
(123,-109,o),
(134,-104,o),
(147,-104,cs),
(168,-104,o),
(183,-117,o),
(183,-138,cs),
(183,-159,o),
(168,-173,o),
(147,-173,cs),
(126,-173,o),
(115,-161,o),
(112,-148,c),
(40,-148,l),
(42,-188,o),
(77,-229,o),
(145,-229,cs),
(225,-229,o),
(258,-181,o),
(258,-134,cs),
(258,-81,o),
(224,-48,o),
(181,-48,cs),
(164,-48,o),
(151,-51,o),
(142,-58,c),
(128,-58,l),
(158,22,l)
);
}
);
width = 298;
}
);
note = cedilla;
unicode = 184;
},
{
glyphname = onesuperior;
layers = (
{
hints = (
{
horizontal = 1;
place = (394, 67);
place = (394, 67);
type = Stem;
},
{
horizontal = 1;
place = (714, -20);
target = down;
type = TopGhost;
},
{
place = (53, 147);
place = (53, 147);
type = Stem;
},
{
place = (128, 72);
place = (128, 72);
type = Stem;
}
);
layerId = m01;
shapes = (
{
closed = 1;
nodes = (
(280,394,l),
(280,461,l),
(200,461,l),
(200,714,l),
(134,714,l),
(53,666,l),
(53,594,l),
(119,634,l),
(128,634,l),
(128,461,l),
(39,461,l),
(39,394,l)
);
}
);
width = 319;
}
);
note = onesuperior;
unicode = 185;
},
{
glyphname = ordmasculine;
layers = (
{
hints = (
{
horizontal = 1;
place = (327, 77);
place = (327, 77);
type = Stem;
},
{
horizontal = 1;
place = (645, 76);
place = (645, 76);
type = Stem;
},
{
place = (47, 83);
place = (47, 83);
type = Stem;
},
{
place = (287, 81);
place = (287, 81);
type = Stem;
}
);
layerId = m01;
shapes = (
{
closed = 1;
nodes = (
(90,721,o),
(47,638,o),
(47,523,cs),
(47,410,o),
(90,327,o),
(208,327,cs),
(325,327,o),
(368,410,o),
(368,523,cs),
(368,638,o),
(325,721,o),
(208,721,cs)
);
},
{
closed = 1;
nodes = (
(146,404,o),
(130,451,o),
(130,524,cs),
(130,599,o),
(146,645,o),
(208,645,cs),
(270,645,o),
(287,599,o),
(287,524,cs),
(287,451,o),
(270,404,o),
(208,404,cs)
);
}
);
width = 415;
}
);
note = ordmasculine;
unicode = 186;
},
{
glyphname = guillemotright;
layers = (
{
hints = (
{
horizontal = 1;
place = (167, 21);
target = up;
type = BottomGhost;
},
{
horizontal = 1;
place = (533, -20);
target = down;
type = TopGhost;
}
);
layerId = m01;
shapes = (
{
closed = 1;
nodes = (
(172,336,l),
(30,167,l),
(144,167,l),
(269,314,l),
(269,385,l),
(144,533,l),
(30,533,l),
(172,364,l)
);
},
{
closed = 1;
nodes = (
(372,336,l),
(230,167,l),
(344,167,l),
(469,314,l),
(469,385,l),
(344,533,l),
(230,533,l),
(372,364,l)
);
}
);
width = 509;
}
);
note = guillemotright;
unicode = 187;
},
{
glyphname = onequarter;
layers = (
{
hints = (
{
horizontal = 1;
place = (398, 67);
place = (398, 67);
type = Stem;
},
{
horizontal = 1;
place = (718, -20);
target = down;
type = TopGhost;
},
{
place = (53, 147);
place = (53, 147);
type = Stem;
},
{
place = (128, 72);
place = (128, 72);
type = Stem;
},
{
horizontal = 1;
place = (0, 21);
target = up;
type = BottomGhost;
},
{
horizontal = 1;
place = (67, 62);
place = (67, 62);
type = Stem;
},
{
horizontal = 1;
place = (320, -20);
target = down;
type = TopGhost;
},
{
place = (534, 69);
place = (534, 69);
type = Stem;
},
{
horizontal = 1;
place = (137, 21);
target = up;
type = BottomGhost;
},
{
horizontal = 1;
place = (576, -20);
target = down;
type = TopGhost;
}
);
layerId = m01;
shapes = (
{
closed = 1;
nodes = (
(280,398,l),
(280,465,l),
(200,465,l),
(200,718,l),
(134,718,l),
(53,670,l),
(53,598,l),
(119,638,l),
(128,638,l),
(128,465,l),
(39,465,l),
(39,398,l)
);
},
{
closed = 1;
nodes = (
(603,129,l),
(603,320,l),
(515,320,l),
(378,138,l),
(378,67,l),
(533,67,l),
(533,0,l),
(603,0,l),
(603,67,l),
(644,67,l),
(644,129,l)
);
},
{
closed = 1;
nodes = (
(455,129,l),
(455,138,l),
(525,233,l),
(534,233,l),
(534,129,l)
);
},
{
closed = 1;
nodes = (
(624,576,l),
(142,234,l),
(142,137,l),
(624,479,l)
);
}
);
width = 683;
}
);
note = onequarter;
unicode = 188;
},
{
glyphname = onehalf;
layers = (
{
hints = (
{
horizontal = 1;
place = (0, 67);
place = (0, 67);
type = Stem;
},
{
horizontal = 1;
place = (261, 65);
place = (261, 65);
type = Stem;
},
{
place = (440, 71);
place = (440, 71);
type = Stem;
},
{
place = (604, 71);
place = (604, 71);
type = Stem;
},
{
horizontal = 1;
place = (398, 67);
place = (398, 67);
type = Stem;
},
{
horizontal = 1;
place = (718, -20);
target = down;
type = TopGhost;
},
{
place = (53, 147);
place = (53, 147);
type = Stem;
},
{
place = (128, 72);
place = (128, 72);
type = Stem;
},
{
horizontal = 1;
place = (137, 21);
target = up;
type = BottomGhost;
},
{
horizontal = 1;
place = (576, -20);
target = down;
type = TopGhost;
}
);
layerId = m01;
shapes = (
{
closed = 1;
nodes = (
(549,67,l),
(549,76,l),
(613,120,ls),
(650,146,o),
(675,176,o),
(675,222,cs),
(675,288,o),
(629,326,o),
(562,326,cs),
(493,326,o),
(442,289,o),
(440,211,c),
(511,211,l),
(512,244,o),
(531,261,o),
(559,261,cs),
(586,261,o),
(604,246,o),
(604,219,cs),
(604,185,o),
(568,162,o),
(529,136,cs),
(439,76,l),
(439,0,l),
(686,0,l),
(686,67,l)
);
},
{
closed = 1;
nodes = (
(280,398,l),
(280,465,l),
(200,465,l),
(200,718,l),
(134,718,l),
(53,670,l),
(53,598,l),
(119,638,l),
(128,638,l),
(128,465,l),
(39,465,l),
(39,398,l)
);
},
{
closed = 1;
nodes = (
(624,576,l),
(142,234,l),
(142,137,l),
(624,479,l)
);
}
);
width = 725;
}
);
note = onehalf;
unicode = 189;
},
{
glyphname = threequarters;
layers = (
{
hints = (
{
horizontal = 1;
place = (392, 66);
place = (392, 66);
type = Stem;
},
{
horizontal = 1;
place = (655, 63);
place = (655, 63);
type = Stem;
},
{
place = (30, 72);
place = (30, 72);
type = Stem;
},
{
place = (207, 72);
place = (207, 72);
type = Stem;
},
{
horizontal = 1;
place = (137, 21);
target = up;
type = BottomGhost;
},
{
horizontal = 1;
place = (576, -20);
target = down;
type = TopGhost;
},
{
horizontal = 1;
place = (0, 21);
target = up;
type = BottomGhost;
},
{
horizontal = 1;
place = (67, 62);
place = (67, 62);
type = Stem;
},
{
horizontal = 1;
place = (320, -20);
target = down;
type = TopGhost;
},
{
place = (497, 69);
place = (497, 69);
type = Stem;
}
);
layerId = m01;
shapes = (
{
closed = 1;
nodes = (
(203,607,l),
(265,645,l),
(265,718,l),
(50,718,l),
(50,655,l),
(177,655,l),
(177,645,l),
(122,609,l),
(122,547,l),
(134,550,o),
(142,551,o),
(155,551,cs),
(187,551,o),
(207,532,o),
(207,503,cs),
(207,475,o),
(186,458,o),
(158,458,cs),
(127,458,o),
(104,475,o),
(102,508,c),
(30,508,l),
(34,440,o),
(82,392,o),
(156,392,cs),
(230,392,o),
(279,436,o),
(279,503,cs),
(279,558,o),
(244,591,o),
(203,598,c)
);
},
{
closed = 1;
nodes = (
(587,576,l),
(105,234,l),
(105,137,l),
(587,479,l)
);
},
{
closed = 1;
nodes = (
(566,129,l),
(566,320,l),
(478,320,l),
(341,138,l),
(341,67,l),
(496,67,l),
(496,0,l),
(566,0,l),
(566,67,l),
(607,67,l),
(607,129,l)
);
},
{
closed = 1;
nodes = (
(418,129,l),
(418,138,l),
(488,233,l),
(497,233,l),
(497,129,l)
);
}
);
width = 646;
}
);
note = threequarters;
unicode = 190;
},
{
glyphname = questiondown;
layers = (
{
hints = (
{
horizontal = 1;
place = (0, 103);
place = (0, 103);
type = Stem;
},
{
horizontal = 1;
place = (590, 137);
place = (590, 137);
type = Stem;
},
{
place = (54, 109);
place = (54, 109);
type = Stem;
},
{
place = (204, 124);
place = (204, 124);
type = Stem;
}
);
layerId = m01;
shapes = (
{
closed = 1;
nodes = (
(377,0,o),
(456,81,o),
(470,202,c),
(363,202,l),
(351,131,o),
(313,103,o),
(256,103,cs),
(198,103,o),
(163,143,o),
(163,187,cs),
(163,238,o),
(180,254,o),
(223,312,cs),
(280,389,o),
(320,412,o),
(320,486,cs),
(320,507,l),
(213,507,l),
(213,485,ls),
(213,455,o),
(208,452,o),
(157,387,cs),
(89,301,o),
(54,268,o),
(54,187,cs),
(54,82,o),
(129,0,o),
(257,0,cs)
);
},
{
closed = 1;
nodes = (
(204,727,l),
(204,590,l),
(328,590,l),
(328,727,l)
);
}
);
width = 491;
}
);
note = questiondown;
unicode = 191;
},
{
glyphname = Agrave;
kernLeft = A;
kernRight = A;
layers = (
{
hints = (
{
horizontal = 1;
place = (767, 129);
place = (767, 129);
type = Stem;
},
{
horizontal = 1;
place = (0, 21);
target = up;
type = BottomGhost;
},
{
horizontal = 1;
place = (212, 100);
place = (212, 100);
type = Stem;
},
{
horizontal = 1;
place = (604, 110);
place = (604, 110);
type = Stem;
}
);
layerId = m01;
shapes = (
{
closed = 1;
nodes = (
(227,767,l),
(334,767,l),
(248,896,l),
(119,896,l)
);
},
{
closed = 1;
nodes = (
(416,0,l),
(523,0,l),
(380,714,l),
(172,714,l),
(30,0,l),
(135,0,l),
(174,212,l),
(376,212,l)
);
},
{
closed = 1;
nodes = (
(248,604,l),
(303,604,l),
(357,312,l),
(193,312,l)
);
}
);
width = 553;
}
);
note = Agrave;
unicode = 192;
},
{
glyphname = Aacute;
kernLeft = A;
kernRight = A;
layers = (
{
hints = (
{
horizontal = 1;
place = (0, 21);
target = up;
type = BottomGhost;
},
{
horizontal = 1;
place = (212, 100);
place = (212, 100);
type = Stem;
},
{
horizontal = 1;
place = (604, 110);
place = (604, 110);
type = Stem;
},
{
horizontal = 1;
place = (767, 129);
place = (767, 129);
type = Stem;
}
);
layerId = m01;
shapes = (
{
closed = 1;
nodes = (
(416,0,l),
(523,0,l),
(380,714,l),
(172,714,l),
(30,0,l),
(135,0,l),
(174,212,l),
(376,212,l)
);
},
{
closed = 1;
nodes = (
(248,604,l),
(303,604,l),
(357,312,l),
(193,312,l)
);
},
{
closed = 1;
nodes = (
(432,896,l),
(302,896,l),
(217,767,l),
(323,767,l)
);
}
);
width = 553;
}
);
note = Aacute;
unicode = 193;
},
{
glyphname = Acircumflex;
kernLeft = A;
kernRight = A;
layers = (
{
hints = (
{
horizontal = 1;
place = (0, 21);
target = up;
type = BottomGhost;
},
{
horizontal = 1;
place = (212, 100);
place = (212, 100);
type = Stem;
},
{
horizontal = 1;
place = (604, 110);
place = (604, 110);
type = Stem;
},
{
horizontal = 1;
place = (767, 21);
target = up;
type = BottomGhost;
},
{
horizontal = 1;
place = (896, -20);
target = down;
type = TopGhost;
}
);
layerId = m01;
shapes = (
{
closed = 1;
nodes = (
(416,0,l),
(523,0,l),
(380,714,l),
(172,714,l),
(30,0,l),
(135,0,l),
(174,212,l),
(376,212,l)
);
},
{
closed = 1;
nodes = (
(248,604,l),
(303,604,l),
(357,312,l),
(193,312,l)
);
},
{
closed = 1;
nodes = (
(352,896,l),
(204,896,l),
(98,767,l),
(203,767,l),
(263,838,l),
(291,838,l),
(351,767,l),
(458,767,l)
);
}
);
width = 553;
}
);
note = Acircumflex;
unicode = 194;
},
{
glyphname = Atilde;
kernLeft = A;
kernRight = A;
layers = (
{
hints = (
{
horizontal = 1;
place = (0, 21);
target = up;
type = BottomGhost;
},
{
horizontal = 1;
place = (212, 100);
place = (212, 100);
type = Stem;
},
{
horizontal = 1;
place = (604, 110);
place = (604, 110);
type = Stem;
},
{
horizontal = 1;
place = (818, 78);
place = (818, 78);
type = Stem;
},
{
place = (114, 69);
place = (114, 69);
type = Stem;
},
{
place = (372, 69);
place = (372, 69);
type = Stem;
},
{
horizontal = 1;
place = (767, 77);
place = (767, 77);
type = Stem;
}
);
layerId = m01;
shapes = (
{
closed = 1;
nodes = (
(416,0,l),
(523,0,l),
(380,714,l),
(172,714,l),
(30,0,l),
(135,0,l),
(174,212,l),
(376,212,l)
);
},
{
closed = 1;
nodes = (
(248,604,l),
(303,604,l),
(357,312,l),
(193,312,l)
);
},
{
closed = 1;
nodes = (
(372,896,l),
(372,858,o),
(363,844,o),
(341,844,cs),
(306,844,o),
(276,896,o),
(211,896,cs),
(152,896,o),
(114,856,o),
(114,767,c),
(183,767,l),
(183,804,o),
(195,818,o),
(217,818,cs),
(252,818,o),
(279,767,o),
(345,767,cs),
(405,767,o),
(441,806,o),
(441,896,c)
);
}
);
width = 553;
}
);
note = Atilde;
unicode = 195;
},
{
glyphname = Adieresis;
kernLeft = A;
kernRight = A;
layers = (
{
hints = (
{
horizontal = 1;
place = (0, 21);
target = up;
type = BottomGhost;
},
{
horizontal = 1;
place = (212, 100);
place = (212, 100);
type = Stem;
},
{
horizontal = 1;
place = (604, 110);
place = (604, 110);
type = Stem;
},
{
horizontal = 1;
place = (792, 104);
place = (792, 104);
type = Stem;
},
{
place = (117, 114);
place = (117, 114);
type = Stem;
},
{
place = (323, 114);
place = (323, 114);
type = Stem;
}
);
layerId = m01;
shapes = (
{
closed = 1;
nodes = (
(416,0,l),
(523,0,l),
(380,714,l),
(172,714,l),
(30,0,l),
(135,0,l),
(174,212,l),
(376,212,l)
);
},
{
closed = 1;
nodes = (
(248,604,l),
(303,604,l),
(357,312,l),
(193,312,l)
);
},
{
closed = 1;
nodes = (
(437,792,l),
(437,896,l),
(323,896,l),
(323,792,l)
);
},
{
closed = 1;
nodes = (
(231,792,l),
(231,896,l),
(117,896,l),
(117,792,l)
);
}
);
width = 553;
}
);
note = Adieresis;
unicode = 196;
},
{
glyphname = Aring;
kernLeft = A;
kernRight = A;
layers = (
{
hints = (
{
horizontal = 1;
place = (0, 21);
target = up;
type = BottomGhost;
},
{
horizontal = 1;
place = (212, 100);
place = (212, 100);
type = Stem;
},
{
horizontal = 1;
place = (604, 103);
place = (604, 103);
type = Stem;
},
{
horizontal = 1;
place = (787, 69);
place = (787, 69);
type = Stem;
},
{
place = (167, 69);
place = (167, 69);
type = Stem;
},
{
place = (316, 69);
place = (316, 69);
type = Stem;
}
);
layerId = m01;
shapes = (
{
closed = 1;
nodes = (
(416,0,l),
(523,0,l),
(380,714,l),
(383,724,o),
(385,735,o),
(385,747,cs),
(385,807,o),
(336,856,o),
(276,856,cs),
(216,856,o),
(167,807,o),
(167,747,cs),
(167,735,o),
(168,724,o),
(172,714,c),
(30,0,l),
(135,0,l),
(174,212,l),
(376,212,l)
);
},
{
closed = 1;
nodes = (
(248,604,l),
(303,604,l),
(357,312,l),
(193,312,l)
);
},
{
closed = 1;
nodes = (
(236,769,o),
(254,787,o),
(276,787,cs),
(298,787,o),
(316,769,o),
(316,747,cs),
(316,725,o),
(298,707,o),
(276,707,cs),
(254,707,o),
(236,725,o),
(236,747,cs)
);
}
);
width = 553;
}
);
note = Aring;
unicode = 197;
},
{
glyphname = AE;
kernRight = E;
layers = (
{
hints = (
{
horizontal = 1;
place = (0, 100);
place = (0, 100);
type = Stem;
},
{
horizontal = 1;
place = (212, 100);
place = (212, 100);
type = Stem;
},
{
horizontal = 1;
place = (320, 100);
place = (320, 100);
type = Stem;
},
{
horizontal = 1;
place = (614, 100);
place = (614, 100);
type = Stem;
},
{
place = (345, 107);
place = (345, 107);
type = Stem;
}
);
layerId = m01;
shapes = (
{
closed = 1;
nodes = (
(345,0,l),
(667,0,l),
(667,100,l),
(452,100,l),
(452,320,l),
(608,320,l),
(608,420,l),
(452,420,l),
(452,614,l),
(667,614,l),
(667,714,l),
(220,714,l),
(28,0,l),
(134,0,l),
(189,212,l),
(345,212,l)
);
},
{
closed = 1;
nodes = (
(290,604,l),
(345,604,l),
(345,312,l),
(215,312,l)
);
}
);
width = 717;
}
);
note = AE;
unicode = 198;
},
{
glyphname = Ccedilla;
kernLeft = zero;
layers = (
{
hints = (
{
horizontal = 1;
place = (-229, 56);
place = (-229, 56);
type = Stem;
},
{
horizontal = 1;
place = (-104, 56);
place = (-104, 56);
type = Stem;
},
{
horizontal = 1;
place = (-13, 103);
place = (-13, 103);
type = Stem;
},
{
horizontal = 1;
place = (624, 103);
place = (624, 103);
type = Stem;
},
{
place = (55, 109);
place = (55, 109);
type = Stem;
},
{
place = (349, 75);
place = (349, 75);
type = Stem;
},
{
horizontal = 1;
place = (-229, 81);
place = (-229, 81);
type = Stem;
}
);
layerId = m01;
shapes = (
{
closed = 1;
nodes = (
(535,525,l),
(510,648,o),
(447,727,o),
(313,727,cs),
(128,727,o),
(55,577,o),
(55,357,cs),
(55,159,o),
(114,17,o),
(261,-8,c),
(220,-116,l),
(282,-116,l),
(289,-109,o),
(300,-104,o),
(313,-104,cs),
(334,-104,o),
(349,-117,o),
(349,-138,cs),
(349,-159,o),
(334,-173,o),
(313,-173,cs),
(292,-173,o),
(281,-161,o),
(278,-148,c),
(206,-148,l),
(208,-188,o),
(243,-229,o),
(311,-229,cs),
(391,-229,o),
(424,-181,o),
(424,-134,cs),
(424,-81,o),
(390,-48,o),
(347,-48,cs),
(330,-48,o),
(317,-51,o),
(308,-58,c),
(294,-58,l),
(311,-13,l),
(313,-13,ls),
(454,-13,o),
(521,75,o),
(544,209,c),
(436,209,l),
(417,117,o),
(375,90,o),
(308,90,cs),
(201,90,o),
(164,190,o),
(164,357,cs),
(164,524,o),
(201,624,o),
(308,624,cs),
(375,624,o),
(408,595,o),
(428,525,c)
);
}
);
width = 584;
}
);
note = Ccedilla;
unicode = 199;
},
{
glyphname = Egrave;
kernRight = E;
layers = (
{
hints = (
{
horizontal = 1;
place = (0, 100);
place = (0, 100);
type = Stem;
},
{
horizontal = 1;
place = (320, 100);
place = (320, 100);
type = Stem;
},
{
horizontal = 1;
place = (614, 100);
place = (614, 100);
type = Stem;
},
{
place = (87, 107);
place = (87, 107);
type = Stem;
},
{
horizontal = 1;
place = (767, 129);
place = (767, 129);
type = Stem;
}
);
layerId = m01;
shapes = (
{
closed = 1;
nodes = (
(194,100,l),
(194,320,l),
(410,320,l),
(410,420,l),
(194,420,l),
(194,614,l),
(488,614,l),
(488,714,l),
(87,714,l),
(87,0,l),
(488,0,l),
(488,100,l)
);
},
{
closed = 1;
nodes = (
(253,767,l),
(360,767,l),
(274,896,l),
(145,896,l)
);
}
);
width = 538;
}
);
note = Egrave;
unicode = 200;
},
{
glyphname = Eacute;
kernRight = E;
layers = (
{
hints = (
{
horizontal = 1;
place = (0, 100);
place = (0, 100);
type = Stem;
},
{
horizontal = 1;
place = (320, 100);
place = (320, 100);
type = Stem;
},
{
horizontal = 1;
place = (614, 100);
place = (614, 100);
type = Stem;
},
{
place = (87, 107);
place = (87, 107);
type = Stem;
},
{
horizontal = 1;
place = (767, 129);
place = (767, 129);
type = Stem;
}
);
layerId = m01;
shapes = (
{
closed = 1;
nodes = (
(194,100,l),
(194,320,l),
(410,320,l),
(410,420,l),
(194,420,l),
(194,614,l),
(488,614,l),
(488,714,l),
(87,714,l),
(87,0,l),
(488,0,l),
(488,100,l)
);
},
{
closed = 1;
nodes = (
(424,896,l),
(294,896,l),
(209,767,l),
(315,767,l)
);
}
);
width = 538;
}
);
note = Eacute;
unicode = 201;
},
{
glyphname = Ecircumflex;
kernRight = E;
layers = (
{
hints = (
{
horizontal = 1;
place = (0, 100);
place = (0, 100);
type = Stem;
},
{
horizontal = 1;
place = (320, 100);
place = (320, 100);
type = Stem;
},
{
horizontal = 1;
place = (614, 100);
place = (614, 100);
type = Stem;
},
{
place = (87, 107);
place = (87, 107);
type = Stem;
},
{
horizontal = 1;
place = (767, 21);
target = up;
type = BottomGhost;
},
{
horizontal = 1;
place = (896, -20);
target = down;
type = TopGhost;
}
);
layerId = m01;
shapes = (
{
closed = 1;
nodes = (
(194,100,l),
(194,320,l),
(410,320,l),
(410,420,l),
(194,420,l),
(194,614,l),
(488,614,l),
(488,714,l),
(87,714,l),
(87,0,l),
(488,0,l),
(488,100,l)
);
},
{
closed = 1;
nodes = (
(362,896,l),
(214,896,l),
(108,767,l),
(213,767,l),
(273,838,l),
(301,838,l),
(361,767,l),
(468,767,l)
);
}
);
width = 538;
}
);
note = Ecircumflex;
unicode = 202;
},
{
glyphname = Edieresis;
kernRight = E;
layers = (
{
hints = (
{
horizontal = 1;
place = (0, 100);
place = (0, 100);
type = Stem;
},
{
horizontal = 1;
place = (320, 100);
place = (320, 100);
type = Stem;
},
{
horizontal = 1;
place = (614, 100);
place = (614, 100);
type = Stem;
},
{
place = (87, 107);
place = (87, 107);
type = Stem;
},
{
horizontal = 1;
place = (792, 104);
place = (792, 104);
type = Stem;
},
{
place = (132, 114);
place = (132, 114);
type = Stem;
},
{
place = (338, 114);
place = (338, 114);
type = Stem;
}
);
layerId = m01;
shapes = (
{
closed = 1;
nodes = (
(194,100,l),
(194,320,l),
(410,320,l),
(410,420,l),
(194,420,l),
(194,614,l),
(488,614,l),
(488,714,l),
(87,714,l),
(87,0,l),
(488,0,l),
(488,100,l)
);
},
{
closed = 1;
nodes = (
(452,792,l),
(452,896,l),
(338,896,l),
(338,792,l)
);
},
{
closed = 1;
nodes = (
(246,792,l),
(246,896,l),
(132,896,l),
(132,792,l)
);
}
);
width = 538;
}
);
note = Edieresis;
unicode = 203;
},
{
glyphname = Igrave;
layers = (
{
hints = (
{
horizontal = 1;
place = (0, 21);
target = up;
type = BottomGhost;
},
{
horizontal = 1;
place = (714, -20);
target = down;
type = TopGhost;
},
{
place = (87, 107);
place = (87, 107);
type = Stem;
},
{
horizontal = 1;
place = (767, 129);
place = (767, 129);
type = Stem;
}
);
layerId = m01;
shapes = (
{
closed = 1;
nodes = (
(194,714,l),
(87,714,l),
(87,0,l),
(194,0,l)
);
},
{
closed = 1;
nodes = (
(88,767,l),
(195,767,l),
(109,896,l),
(-20,896,l)
);
}
);
width = 281;
}
);
note = Igrave;
unicode = 204;
},
{
glyphname = Iacute;
layers = (
{
hints = (
{
horizontal = 1;
place = (0, 21);
target = up;
type = BottomGhost;
},
{
horizontal = 1;
place = (714, -20);
target = down;
type = TopGhost;
},
{
place = (87, 107);
place = (87, 107);
type = Stem;
},
{
horizontal = 1;
place = (767, 129);
place = (767, 129);
type = Stem;
}
);
layerId = m01;
shapes = (
{
closed = 1;
nodes = (
(194,714,l),
(87,714,l),
(87,0,l),
(194,0,l)
);
},
{
closed = 1;
nodes = (
(302,896,l),
(172,896,l),
(87,767,l),
(193,767,l)
);
}
);
width = 281;
}
);
note = Iacute;
unicode = 205;
},
{
glyphname = Icircumflex;
layers = (
{
hints = (
{
horizontal = 1;
place = (0, 21);
target = up;
type = BottomGhost;
},
{
horizontal = 1;
place = (714, -20);
target = down;
type = TopGhost;
},
{
place = (87, 107);
place = (87, 107);
type = Stem;
},
{
horizontal = 1;
place = (767, 21);
target = up;
type = BottomGhost;
},
{
horizontal = 1;
place = (896, -20);
target = down;
type = TopGhost;
}
);
layerId = m01;
shapes = (
{
closed = 1;
nodes = (
(194,714,l),
(87,714,l),
(87,0,l),
(194,0,l)
);
},
{
closed = 1;
nodes = (
(214,896,l),
(66,896,l),
(-40,767,l),
(65,767,l),
(125,838,l),
(153,838,l),
(213,767,l),
(320,767,l)
);
}
);
width = 281;
}
);
note = Icircumflex;
unicode = 206;
},
{
glyphname = Idieresis;
layers = (
{
hints = (
{
horizontal = 1;
place = (0, 21);
target = up;
type = BottomGhost;
},
{
horizontal = 1;
place = (714, -20);
target = down;
type = TopGhost;
},
{
place = (87, 107);
place = (87, 107);
type = Stem;
},
{
horizontal = 1;
place = (792, 104);
place = (792, 104);
type = Stem;
},
{
place = (-20, 114);
place = (-20, 114);
type = Stem;
},
{
place = (186, 114);
place = (186, 114);
type = Stem;
}
);
layerId = m01;
shapes = (
{
closed = 1;
nodes = (
(194,714,l),
(87,714,l),
(87,0,l),
(194,0,l)
);
},
{
closed = 1;
nodes = (
(300,792,l),
(300,896,l),
(186,896,l),
(186,792,l)
);
},
{
closed = 1;
nodes = (
(94,792,l),
(94,896,l),
(-20,896,l),
(-20,792,l)
);
}
);
width = 281;
}
);
note = Idieresis;
unicode = 207;
},
{
glyphname = Eth;
kernRight = zero;
layers = (
{
hints = (
{
horizontal = 1;
place = (0, 100);
place = (0, 100);
type = Stem;
},
{
horizontal = 1;
place = (320, 100);
place = (320, 100);
type = Stem;
},
{
horizontal = 1;
place = (614, 100);
place = (614, 100);
type = Stem;
},
{
place = (87, 107);
place = (87, 107);
type = Stem;
},
{
place = (442, 109);
place = (442, 109);
type = Stem;
}
);
layerId = m01;
shapes = (
{
closed = 1;
nodes = (
(87,714,l),
(87,420,l),
(24,420,l),
(24,320,l),
(87,320,l),
(87,0,l),
(272,0,ls),
(481,0,o),
(551,144,o),
(551,357,cs),
(551,571,o),
(481,714,o),
(272,714,cs)
);
},
{
closed = 1;
nodes = (
(194,614,l),
(260,614,ls),
(417,614,o),
(442,501,o),
(442,357,cs),
(442,213,o),
(417,100,o),
(260,100,cs),
(194,100,l),
(194,320,l),
(303,320,l),
(303,420,l),
(194,420,l)
);
}
);
width = 606;
}
);
note = Eth;
unicode = 208;
},
{
glyphname = Ntilde;
layers = (
{
hints = (
{
horizontal = 1;
place = (818, 78);
place = (818, 78);
type = Stem;
},
{
place = (162, 69);
place = (162, 69);
type = Stem;
},
{
place = (420, 69);
place = (420, 69);
type = Stem;
},
{
horizontal = 1;
place = (767, 77);
place = (767, 77);
type = Stem;
},
{
horizontal = 1;
place = (0, 21);
target = up;
type = BottomGhost;
},
{
horizontal = 1;
place = (714, -20);
target = down;
type = TopGhost;
},
{
place = (87, 103);
place = (87, 103);
type = Stem;
},
{
place = (456, 103);
place = (456, 103);
type = Stem;
}
);
layerId = m01;
shapes = (
{
closed = 1;
nodes = (
(420,896,l),
(420,858,o),
(411,844,o),
(389,844,cs),
(354,844,o),
(324,896,o),
(259,896,cs),
(200,896,o),
(162,856,o),
(162,767,c),
(231,767,l),
(231,804,o),
(243,818,o),
(265,818,cs),
(300,818,o),
(327,767,o),
(393,767,cs),
(453,767,o),
(489,806,o),
(489,896,c)
);
},
{
closed = 1;
nodes = (
(456,714,l),
(456,110,l),
(428,110,l),
(297,714,l),
(87,714,l),
(87,0,l),
(190,0,l),
(190,604,l),
(218,604,l),
(349,0,l),
(559,0,l),
(559,714,l)
);
}
);
width = 646;
}
);
note = Ntilde;
unicode = 209;
},
{
glyphname = Ograve;
kernLeft = zero;
kernRight = zero;
layers = (
{
hints = (
{
horizontal = 1;
place = (-13, 103);
place = (-13, 103);
type = Stem;
},
{
horizontal = 1;
place = (624, 103);
place = (624, 103);
type = Stem;
},
{
place = (55, 109);
place = (55, 109);
type = Stem;
},
{
place = (450, 109);
place = (450, 109);
type = Stem;
},
{
horizontal = 1;
place = (767, 129);
place = (767, 129);
type = Stem;
}
);
layerId = m01;
shapes = (
{
closed = 1;
nodes = (
(124,727,o),
(55,573,o),
(55,357,cs),
(55,142,o),
(124,-13,o),
(307,-13,cs),
(490,-13,o),
(559,142,o),
(559,357,cs),
(559,573,o),
(490,727,o),
(307,727,cs)
);
},
{
closed = 1;
nodes = (
(195,90,o),
(164,194,o),
(164,357,cs),
(164,520,o),
(195,624,o),
(307,624,cs),
(419,624,o),
(450,520,o),
(450,357,cs),
(450,194,o),
(419,90,o),
(307,90,cs)
);
},
{
closed = 1;
nodes = (
(272,767,l),
(379,767,l),
(293,896,l),
(164,896,l)
);
}
);
width = 614;
}
);
note = Ograve;
unicode = 210;
},
{
glyphname = Oacute;
kernLeft = zero;
kernRight = zero;
layers = (
{
hints = (
{
horizontal = 1;
place = (-13, 103);
place = (-13, 103);
type = Stem;
},
{
horizontal = 1;
place = (624, 103);
place = (624, 103);
type = Stem;
},
{
place = (55, 109);
place = (55, 109);
type = Stem;
},
{
place = (450, 109);
place = (450, 109);
type = Stem;
},
{
horizontal = 1;
place = (767, 129);
place = (767, 129);
type = Stem;
}
);
layerId = m01;
shapes = (
{
closed = 1;
nodes = (
(124,727,o),
(55,573,o),
(55,357,cs),
(55,142,o),
(124,-13,o),
(307,-13,cs),
(490,-13,o),
(559,142,o),
(559,357,cs),
(559,573,o),
(490,727,o),
(307,727,cs)
);
},
{
closed = 1;
nodes = (
(195,90,o),
(164,194,o),
(164,357,cs),
(164,520,o),
(195,624,o),
(307,624,cs),
(419,624,o),
(450,520,o),
(450,357,cs),
(450,194,o),
(419,90,o),
(307,90,cs)
);
},
{
closed = 1;
nodes = (
(453,896,l),
(323,896,l),
(238,767,l),
(344,767,l)
);
}
);
width = 614;
}
);
note = Oacute;
unicode = 211;
},
{
glyphname = Ocircumflex;
kernLeft = zero;
kernRight = zero;
layers = (
{
hints = (
{
horizontal = 1;
place = (-13, 103);
place = (-13, 103);
type = Stem;
},
{
horizontal = 1;
place = (624, 103);
place = (624, 103);
type = Stem;
},
{
place = (55, 109);
place = (55, 109);
type = Stem;
},
{
place = (450, 109);
place = (450, 109);
type = Stem;
},
{
horizontal = 1;
place = (767, 21);
target = up;
type = BottomGhost;
},
{
horizontal = 1;
place = (896, -20);
target = down;
type = TopGhost;
}
);
layerId = m01;
shapes = (
{
closed = 1;
nodes = (
(124,727,o),
(55,573,o),
(55,357,cs),
(55,142,o),
(124,-13,o),
(307,-13,cs),
(490,-13,o),
(559,142,o),
(559,357,cs),
(559,573,o),
(490,727,o),
(307,727,cs)
);
},
{
closed = 1;
nodes = (
(195,90,o),
(164,194,o),
(164,357,cs),
(164,520,o),
(195,624,o),
(307,624,cs),
(419,624,o),
(450,520,o),
(450,357,cs),
(450,194,o),
(419,90,o),
(307,90,cs)
);
},
{
closed = 1;
nodes = (
(381,896,l),
(233,896,l),
(127,767,l),
(232,767,l),
(292,838,l),
(320,838,l),
(380,767,l),
(487,767,l)
);
}
);
width = 614;
}
);
note = Ocircumflex;
unicode = 212;
},
{
glyphname = Otilde;
kernLeft = zero;
kernRight = zero;
layers = (
{
hints = (
{
horizontal = 1;
place = (-13, 103);
place = (-13, 103);
type = Stem;
},
{
horizontal = 1;
place = (624, 103);
place = (624, 103);
type = Stem;
},
{
place = (55, 109);
place = (55, 109);
type = Stem;
},
{
place = (450, 109);
place = (450, 109);
type = Stem;
},
{
horizontal = 1;
place = (818, 78);
place = (818, 78);
type = Stem;
},
{
place = (143, 69);
place = (143, 69);
type = Stem;
},
{
place = (401, 69);
place = (401, 69);
type = Stem;
},
{
horizontal = 1;
place = (767, 77);
place = (767, 77);
type = Stem;
}
);
layerId = m01;
shapes = (
{
closed = 1;
nodes = (
(124,727,o),
(55,573,o),
(55,357,cs),
(55,142,o),
(124,-13,o),
(307,-13,cs),
(490,-13,o),
(559,142,o),
(559,357,cs),
(559,573,o),
(490,727,o),
(307,727,cs)
);
},
{
closed = 1;
nodes = (
(195,90,o),
(164,194,o),
(164,357,cs),
(164,520,o),
(195,624,o),
(307,624,cs),
(419,624,o),
(450,520,o),
(450,357,cs),
(450,194,o),
(419,90,o),
(307,90,cs)
);
},
{
closed = 1;
nodes = (
(401,896,l),
(401,858,o),
(392,844,o),
(370,844,cs),
(335,844,o),
(305,896,o),
(240,896,cs),
(181,896,o),
(143,856,o),
(143,767,c),
(212,767,l),
(212,804,o),
(224,818,o),
(246,818,cs),
(281,818,o),
(308,767,o),
(374,767,cs),
(434,767,o),
(470,806,o),
(470,896,c)
);
}
);
width = 614;
}
);
note = Otilde;
unicode = 213;
},
{
glyphname = Odieresis;
kernLeft = zero;
kernRight = zero;
layers = (
{
hints = (
{
horizontal = 1;
place = (-13, 103);
place = (-13, 103);
type = Stem;
},
{
horizontal = 1;
place = (624, 103);
place = (624, 103);
type = Stem;
},
{
place = (55, 109);
place = (55, 109);
type = Stem;
},
{
place = (450, 109);
place = (450, 109);
type = Stem;
},
{
horizontal = 1;
place = (792, 104);
place = (792, 104);
type = Stem;
},
{
place = (147, 114);
place = (147, 114);
type = Stem;
},
{
place = (353, 114);
place = (353, 114);
type = Stem;
}
);
layerId = m01;
shapes = (
{
closed = 1;
nodes = (
(124,727,o),
(55,573,o),
(55,357,cs),
(55,142,o),
(124,-13,o),
(307,-13,cs),
(490,-13,o),
(559,142,o),
(559,357,cs),
(559,573,o),
(490,727,o),
(307,727,cs)
);
},
{
closed = 1;
nodes = (
(195,90,o),
(164,194,o),
(164,357,cs),
(164,520,o),
(195,624,o),
(307,624,cs),
(419,624,o),
(450,520,o),
(450,357,cs),
(450,194,o),
(419,90,o),
(307,90,cs)
);
},
{
closed = 1;
nodes = (
(467,792,l),
(467,896,l),
(353,896,l),
(353,792,l)
);
},
{
closed = 1;
nodes = (
(261,792,l),
(261,896,l),
(147,896,l),
(147,792,l)
);
}
);
width = 614;
}
);
note = Odieresis;
unicode = 214;
},
{
glyphname = multiply;
layers = (
{
hints = (
{
horizontal = 1;
place = (156, 21);
target = up;
type = BottomGhost;
},
{
horizontal = 1;
place = (567, -20);
target = down;
type = TopGhost;
}
);
layerId = m01;
shapes = (
{
closed = 1;
nodes = (
(286,427,l),
(147,567,l),
(81,501,l),
(220,362,l),
(81,222,l),
(147,157,l),
(286,296,l),
(426,156,l),
(492,222,l),
(352,362,l),
(491,501,l),
(425,567,l)
);
}
);
width = 573;
}
);
note = multiply;
unicode = 215;
},
{
glyphname = Oslash;
kernLeft = zero;
kernRight = zero;
layers = (
{
hints = (
{
horizontal = 1;
place = (0, 21);
target = up;
type = BottomGhost;
},
{
horizontal = 1;
place = (624, 103);
place = (624, 103);
type = Stem;
},
{
place = (55, 109);
place = (55, 109);
type = Stem;
},
{
place = (450, 109);
place = (450, 109);
type = Stem;
},
{
horizontal = 1;
place = (-13, 103);
place = (-13, 103);
type = Stem;
},
{
horizontal = 1;
place = (714, -20);
target = down;
type = TopGhost;
}
);
layerId = m01;
shapes = (
{
closed = 1;
nodes = (
(124,727,o),
(55,573,o),
(55,357,cs),
(55,251,o),
(72,160,o),
(110,95,c),
(55,0,l),
(143,0,l),
(162,33,l),
(199,3,o),
(247,-13,o),
(307,-13,cs),
(490,-13,o),
(559,142,o),
(559,357,cs),
(559,463,o),
(542,554,o),
(503,619,c),
(559,714,l),
(471,714,l),
(451,681,l),
(414,710,o),
(367,727,o),
(307,727,cs)
);
},
{
closed = 1;
nodes = (
(164,520,o),
(195,624,o),
(307,624,cs),
(346,624,o),
(375,611,o),
(397,587,c),
(177,210,l),
(168,250,o),
(164,300,o),
(164,357,cs)
);
},
{
closed = 1;
nodes = (
(268,90,o),
(238,103,o),
(217,126,c),
(436,504,l),
(446,463,o),
(450,414,o),
(450,357,cs),
(450,194,o),
(419,90,o),
(307,90,cs)
);
}
);
width = 614;
}
);
note = Oslash;
unicode = 216;
},
{
glyphname = Ugrave;
kernLeft = U;
kernRight = J;
layers = (
{
hints = (
{
horizontal = 1;
place = (-13, 103);
place = (-13, 103);
type = Stem;
},
{
horizontal = 1;
place = (714, -20);
target = down;
type = TopGhost;
},
{
place = (80, 107);
place = (80, 107);
type = Stem;
},
{
place = (433, 107);
place = (433, 107);
type = Stem;
},
{
horizontal = 1;
place = (767, 129);
place = (767, 129);
type = Stem;
}
);
layerId = m01;
shapes = (
{
closed = 1;
nodes = (
(433,714,l),
(433,248,ls),
(433,147,o),
(399,90,o),
(310,90,cs),
(221,90,o),
(187,147,o),
(187,248,cs),
(187,714,l),
(80,714,l),
(80,248,ls),
(80,76,o),
(151,-13,o),
(310,-13,cs),
(469,-13,o),
(540,76,o),
(540,248,cs),
(540,714,l)
);
},
{
closed = 1;
nodes = (
(269,767,l),
(376,767,l),
(290,896,l),
(161,896,l)
);
}
);
width = 620;
}
);
note = Ugrave;
unicode = 217;
},
{
glyphname = Uacute;
kernLeft = U;
kernRight = J;
layers = (
{
hints = (
{
horizontal = 1;
place = (-13, 103);
place = (-13, 103);
type = Stem;
},
{
horizontal = 1;
place = (714, -20);
target = down;
type = TopGhost;
},
{
place = (80, 107);
place = (80, 107);
type = Stem;
},
{
place = (433, 107);
place = (433, 107);
type = Stem;
},
{
horizontal = 1;
place = (767, 129);
place = (767, 129);
type = Stem;
}
);
layerId = m01;
shapes = (
{
closed = 1;
nodes = (
(433,714,l),
(433,248,ls),
(433,147,o),
(399,90,o),
(310,90,cs),
(221,90,o),
(187,147,o),
(187,248,cs),
(187,714,l),
(80,714,l),
(80,248,ls),
(80,76,o),
(151,-13,o),
(310,-13,cs),
(469,-13,o),
(540,76,o),
(540,248,cs),
(540,714,l)
);
},
{
closed = 1;
nodes = (
(465,896,l),
(335,896,l),
(250,767,l),
(356,767,l)
);
}
);
width = 620;
}
);
note = Uacute;
unicode = 218;
},
{
glyphname = Ucircumflex;
kernLeft = U;
kernRight = J;
layers = (
{
hints = (
{
horizontal = 1;
place = (-13, 103);
place = (-13, 103);
type = Stem;
},
{
horizontal = 1;
place = (714, -20);
target = down;
type = TopGhost;
},
{
place = (80, 107);
place = (80, 107);
type = Stem;
},
{
place = (433, 107);
place = (433, 107);
type = Stem;
},
{
horizontal = 1;
place = (767, 21);
target = up;
type = BottomGhost;
},
{
horizontal = 1;
place = (896, -20);
target = down;
type = TopGhost;
}
);
layerId = m01;
shapes = (
{
closed = 1;
nodes = (
(433,714,l),
(433,248,ls),
(433,147,o),
(399,90,o),
(310,90,cs),
(221,90,o),
(187,147,o),
(187,248,cs),
(187,714,l),
(80,714,l),
(80,248,ls),
(80,76,o),
(151,-13,o),
(310,-13,cs),
(469,-13,o),
(540,76,o),
(540,248,cs),
(540,714,l)
);
},
{
closed = 1;
nodes = (
(384,896,l),
(236,896,l),
(130,767,l),
(235,767,l),
(295,838,l),
(323,838,l),
(383,767,l),
(490,767,l)
);
}
);
width = 620;
}
);
note = Ucircumflex;
unicode = 219;
},
{
glyphname = Udieresis;
kernLeft = U;
kernRight = J;
layers = (
{
hints = (
{
horizontal = 1;
place = (-13, 103);
place = (-13, 103);
type = Stem;
},
{
horizontal = 1;
place = (714, -20);
target = down;
type = TopGhost;
},
{
place = (80, 107);
place = (80, 107);
type = Stem;
},
{
place = (433, 107);
place = (433, 107);
type = Stem;
},
{
horizontal = 1;
place = (792, 104);
place = (792, 104);
type = Stem;
},
{
place = (150, 114);
place = (150, 114);
type = Stem;
},
{
place = (356, 114);
place = (356, 114);
type = Stem;
}
);
layerId = m01;
shapes = (
{
closed = 1;
nodes = (
(433,714,l),
(433,248,ls),
(433,147,o),
(399,90,o),
(310,90,cs),
(221,90,o),
(187,147,o),
(187,248,cs),
(187,714,l),
(80,714,l),
(80,248,ls),
(80,76,o),
(151,-13,o),
(310,-13,cs),
(469,-13,o),
(540,76,o),
(540,248,cs),
(540,714,l)
);
},
{
closed = 1;
nodes = (
(470,792,l),
(470,896,l),
(356,896,l),
(356,792,l)
);
},
{
closed = 1;
nodes = (
(264,792,l),
(264,896,l),
(150,896,l),
(150,792,l)
);
}
);
width = 620;
}
);
note = Udieresis;
unicode = 220;
},
{
glyphname = Yacute;
kernLeft = Y;
kernRight = Y;
layers = (
{
hints = (
{
horizontal = 1;
place = (0, 21);
target = up;
type = BottomGhost;
},
{
horizontal = 1;
place = (714, -20);
target = down;
type = TopGhost;
},
{
place = (207, 107);
place = (207, 107);
type = Stem;
},
{
horizontal = 1;
place = (767, 129);
place = (767, 129);
type = Stem;
}
);
layerId = m01;
shapes = (
{
closed = 1;
nodes = (
(238,448,l),
(122,714,l),
(10,714,l),
(207,266,l),
(207,0,l),
(314,0,l),
(314,266,l),
(511,714,l),
(401,714,l),
(284,448,l)
);
},
{
closed = 1;
nodes = (
(416,896,l),
(286,896,l),
(201,767,l),
(307,767,l)
);
}
);
width = 521;
}
);
note = Yacute;
unicode = 221;
},
{
glyphname = Thorn;
layers = (
{
hints = (
{
horizontal = 1;
place = (0, 21);
target = up;
type = BottomGhost;
},
{
horizontal = 1;
place = (147, 100);
place = (147, 100);
type = Stem;
},
{
horizontal = 1;
place = (469, 100);
place = (469, 100);
type = Stem;
},
{
horizontal = 1;
place = (714, -20);
target = down;
type = TopGhost;
},
{
place = (87, 107);
place = (87, 107);
type = Stem;
},
{
place = (435, 109);
place = (435, 109);
type = Stem;
}
);
layerId = m01;
shapes = (
{
closed = 1;
nodes = (
(194,714,l),
(87,714,l),
(87,0,l),
(194,0,l),
(194,147,l),
(309,147,ls),
(459,147,o),
(544,229,o),
(544,359,cs),
(544,489,o),
(459,569,o),
(309,569,cs),
(194,569,l)
);
},
{
closed = 1;
nodes = (
(194,247,l),
(194,469,l),
(295,469,ls),
(398,469,o),
(435,428,o),
(435,358,cs),
(435,288,o),
(398,247,o),
(295,247,cs)
);
}
);
width = 584;
}
);
note = Thorn;
unicode = 222;
},
{
glyphname = germandbls;
kernLeft = dollar;
kernRight = dollar;
layers = (
{
hints = (
{
horizontal = 1;
place = (-13, 104);
place = (-13, 104);
type = Stem;
},
{
horizontal = 1;
place = (623, 104);
place = (623, 104);
type = Stem;
},
{
place = (67, 109);
place = (67, 109);
type = Stem;
},
{
place = (413, 109);
place = (413, 109);
type = Stem;
},
{
place = (646, 109);
place = (646, 109);
type = Stem;
},
{
place = (992, 109);
place = (992, 109);
type = Stem;
}
);
layerId = m01;
shapes = (
{
closed = 1;
nodes = (
(512,528,l),
(496,646,o),
(428,727,o),
(284,727,cs),
(133,727,o),
(67,638,o),
(67,531,cs),
(67,419,o),
(133,381,o),
(221,344,cs),
(323,301,ls),
(388,274,o),
(413,250,o),
(413,194,cs),
(413,138,o),
(372,91,o),
(296,91,cs),
(230,91,o),
(170,114,o),
(155,205,c),
(47,205,l),
(58,81,o),
(136,-13,o),
(290,-13,cs),
(459,-13,o),
(522,92,o),
(522,201,cs),
(522,318,o),
(454,362,o),
(358,403,cs),
(256,446,ls),
(197,471,o),
(176,489,o),
(176,538,cs),
(176,589,o),
(214,623,o),
(280,623,cs),
(350,623,o),
(387,597,o),
(404,528,c)
);
},
{
closed = 1;
nodes = (
(1091,528,l),
(1075,646,o),
(1007,727,o),
(863,727,cs),
(712,727,o),
(646,638,o),
(646,531,cs),
(646,419,o),
(712,381,o),
(800,344,cs),
(902,301,ls),
(967,274,o),
(992,250,o),
(992,194,cs),
(992,138,o),
(951,91,o),
(875,91,cs),
(809,91,o),
(749,114,o),
(734,205,c),
(626,205,l),
(637,81,o),
(715,-13,o),
(869,-13,cs),
(1038,-13,o),
(1101,92,o),
(1101,201,cs),
(1101,318,o),
(1033,362,o),
(937,403,cs),
(835,446,ls),
(776,471,o),
(755,489,o),
(755,538,cs),
(755,589,o),
(793,623,o),
(859,623,cs),
(929,623,o),
(966,597,o),
(983,528,c)
);
}
);
width = 1158;
}
);
note = germandbls;
unicode = 223;
},
{
glyphname = agrave;
kernLeft = A;
kernRight = A;
layers = (
{
hints = (
{
horizontal = 1;
place = (767, 129);
place = (767, 129);
type = Stem;
},
{
horizontal = 1;
place = (0, 21);
target = up;
type = BottomGhost;
},
{
horizontal = 1;
place = (212, 100);
place = (212, 100);
type = Stem;
},
{
horizontal = 1;
place = (604, 110);
place = (604, 110);
type = Stem;
}
);
layerId = m01;
shapes = (
{
closed = 1;
nodes = (
(227,767,l),
(334,767,l),
(248,896,l),
(119,896,l)
);
},
{
closed = 1;
nodes = (
(416,0,l),
(523,0,l),
(380,714,l),
(172,714,l),
(30,0,l),
(135,0,l),
(174,212,l),
(376,212,l)
);
},
{
closed = 1;
nodes = (
(248,604,l),
(303,604,l),
(357,312,l),
(193,312,l)
);
}
);
width = 553;
}
);
note = agrave;
unicode = 224;
},
{
glyphname = aacute;
kernLeft = A;
kernRight = A;
layers = (
{
hints = (
{
horizontal = 1;
place = (0, 21);
target = up;
type = BottomGhost;
},
{
horizontal = 1;
place = (212, 100);
place = (212, 100);
type = Stem;
},
{
horizontal = 1;
place = (604, 110);
place = (604, 110);
type = Stem;
},
{
horizontal = 1;
place = (767, 129);
place = (767, 129);
type = Stem;
}
);
layerId = m01;
shapes = (
{
closed = 1;
nodes = (
(416,0,l),
(523,0,l),
(380,714,l),
(172,714,l),
(30,0,l),
(135,0,l),
(174,212,l),
(376,212,l)
);
},
{
closed = 1;
nodes = (
(248,604,l),
(303,604,l),
(357,312,l),
(193,312,l)
);
},
{
closed = 1;
nodes = (
(432,896,l),
(302,896,l),
(217,767,l),
(323,767,l)
);
}
);
width = 553;
}
);
note = aacute;
unicode = 225;
},
{
glyphname = acircumflex;
kernLeft = A;
kernRight = A;
layers = (
{
hints = (
{
horizontal = 1;
place = (0, 21);
target = up;
type = BottomGhost;
},
{
horizontal = 1;
place = (212, 100);
place = (212, 100);
type = Stem;
},
{
horizontal = 1;
place = (604, 110);
place = (604, 110);
type = Stem;
},
{
horizontal = 1;
place = (767, 21);
target = up;
type = BottomGhost;
},
{
horizontal = 1;
place = (896, -20);
target = down;
type = TopGhost;
}
);
layerId = m01;
shapes = (
{
closed = 1;
nodes = (
(416,0,l),
(523,0,l),
(380,714,l),
(172,714,l),
(30,0,l),
(135,0,l),
(174,212,l),
(376,212,l)
);
},
{
closed = 1;
nodes = (
(248,604,l),
(303,604,l),
(357,312,l),
(193,312,l)
);
},
{
closed = 1;
nodes = (
(352,896,l),
(204,896,l),
(98,767,l),
(203,767,l),
(263,838,l),
(291,838,l),
(351,767,l),
(458,767,l)
);
}
);
width = 553;
}
);
note = acircumflex;
unicode = 226;
},
{
glyphname = atilde;
kernLeft = A;
kernRight = A;
layers = (
{
hints = (
{
horizontal = 1;
place = (0, 21);
target = up;
type = BottomGhost;
},
{
horizontal = 1;
place = (212, 100);
place = (212, 100);
type = Stem;
},
{
horizontal = 1;
place = (604, 110);
place = (604, 110);
type = Stem;
},
{
horizontal = 1;
place = (818, 78);
place = (818, 78);
type = Stem;
},
{
place = (114, 69);
place = (114, 69);
type = Stem;
},
{
place = (372, 69);
place = (372, 69);
type = Stem;
},
{
horizontal = 1;
place = (767, 77);
place = (767, 77);
type = Stem;
}
);
layerId = m01;
shapes = (
{
closed = 1;
nodes = (
(416,0,l),
(523,0,l),
(380,714,l),
(172,714,l),
(30,0,l),
(135,0,l),
(174,212,l),
(376,212,l)
);
},
{
closed = 1;
nodes = (
(248,604,l),
(303,604,l),
(357,312,l),
(193,312,l)
);
},
{
closed = 1;
nodes = (
(372,896,l),
(372,858,o),
(363,844,o),
(341,844,cs),
(306,844,o),
(276,896,o),
(211,896,cs),
(152,896,o),
(114,856,o),
(114,767,c),
(183,767,l),
(183,804,o),
(195,818,o),
(217,818,cs),
(252,818,o),
(279,767,o),
(345,767,cs),
(405,767,o),
(441,806,o),
(441,896,c)
);
}
);
width = 553;
}
);
note = atilde;
unicode = 227;
},
{
glyphname = adieresis;
kernLeft = A;
kernRight = A;
layers = (
{
hints = (
{
horizontal = 1;
place = (0, 21);
target = up;
type = BottomGhost;
},
{
horizontal = 1;
place = (212, 100);
place = (212, 100);
type = Stem;
},
{
horizontal = 1;
place = (604, 110);
place = (604, 110);
type = Stem;
},
{
horizontal = 1;
place = (792, 104);
place = (792, 104);
type = Stem;
},
{
place = (117, 114);
place = (117, 114);
type = Stem;
},
{
place = (323, 114);
place = (323, 114);
type = Stem;
}
);
layerId = m01;
shapes = (
{
closed = 1;
nodes = (
(416,0,l),
(523,0,l),
(380,714,l),
(172,714,l),
(30,0,l),
(135,0,l),
(174,212,l),
(376,212,l)
);
},
{
closed = 1;
nodes = (
(248,604,l),
(303,604,l),
(357,312,l),
(193,312,l)
);
},
{
closed = 1;
nodes = (
(437,792,l),
(437,896,l),
(323,896,l),
(323,792,l)
);
},
{
closed = 1;
nodes = (
(231,792,l),
(231,896,l),
(117,896,l),
(117,792,l)
);
}
);
width = 553;
}
);
note = adieresis;
unicode = 228;
},
{
glyphname = aring;
kernLeft = A;
kernRight = A;
layers = (
{
hints = (
{
horizontal = 1;
place = (0, 21);
target = up;
type = BottomGhost;
},
{
horizontal = 1;
place = (212, 100);
place = (212, 100);
type = Stem;
},
{
horizontal = 1;
place = (604, 103);
place = (604, 103);
type = Stem;
},
{
horizontal = 1;
place = (787, 69);
place = (787, 69);
type = Stem;
},
{
place = (167, 69);
place = (167, 69);
type = Stem;
},
{
place = (316, 69);
place = (316, 69);
type = Stem;
}
);
layerId = m01;
shapes = (
{
closed = 1;
nodes = (
(416,0,l),
(523,0,l),
(380,714,l),
(383,724,o),
(385,735,o),
(385,747,cs),
(385,807,o),
(336,856,o),
(276,856,cs),
(216,856,o),
(167,807,o),
(167,747,cs),
(167,735,o),
(168,724,o),
(172,714,c),
(30,0,l),
(135,0,l),
(174,212,l),
(376,212,l)
);
},
{
closed = 1;
nodes = (
(248,604,l),
(303,604,l),
(357,312,l),
(193,312,l)
);
},
{
closed = 1;
nodes = (
(236,769,o),
(254,787,o),
(276,787,cs),
(298,787,o),
(316,769,o),
(316,747,cs),
(316,725,o),
(298,707,o),
(276,707,cs),
(254,707,o),
(236,725,o),
(236,747,cs)
);
}
);
width = 553;
}
);
note = aring;
unicode = 229;
},
{
glyphname = ae;
kernRight = E;
layers = (
{
hints = (
{
horizontal = 1;
place = (0, 100);
place = (0, 100);
type = Stem;
},
{
horizontal = 1;
place = (212, 100);
place = (212, 100);
type = Stem;
},
{
horizontal = 1;
place = (320, 100);
place = (320, 100);
type = Stem;
},
{
horizontal = 1;
place = (614, 100);
place = (614, 100);
type = Stem;
},
{
place = (345, 107);
place = (345, 107);
type = Stem;
}
);
layerId = m01;
shapes = (
{
closed = 1;
nodes = (
(345,0,l),
(667,0,l),
(667,100,l),
(452,100,l),
(452,320,l),
(608,320,l),
(608,420,l),
(452,420,l),
(452,614,l),
(667,614,l),
(667,714,l),
(220,714,l),
(28,0,l),
(134,0,l),
(189,212,l),
(345,212,l)
);
},
{
closed = 1;
nodes = (
(290,604,l),
(345,604,l),
(345,312,l),
(215,312,l)
);
}
);
width = 717;
}
);
note = ae;
unicode = 230;
},
{
glyphname = ccedilla;
kernLeft = zero;
kernRight = zero;
layers = (
{
hints = (
{
horizontal = 1;
place = (-229, 56);
place = (-229, 56);
type = Stem;
},
{
horizontal = 1;
place = (-104, 56);
place = (-104, 56);
type = Stem;
},
{
horizontal = 1;
place = (-13, 103);
place = (-13, 103);
type = Stem;
},
{
horizontal = 1;
place = (624, 103);
place = (624, 103);
type = Stem;
},
{
place = (55, 109);
place = (55, 109);
type = Stem;
},
{
place = (349, 75);
place = (349, 75);
type = Stem;
},
{
horizontal = 1;
place = (-229, 81);
place = (-229, 81);
type = Stem;
}
);
layerId = m01;
shapes = (
{
closed = 1;
nodes = (
(535,525,l),
(510,648,o),
(447,727,o),
(313,727,cs),
(128,727,o),
(55,577,o),
(55,357,cs),
(55,159,o),
(114,17,o),
(261,-8,c),
(220,-116,l),
(282,-116,l),
(289,-109,o),
(300,-104,o),
(313,-104,cs),
(334,-104,o),
(349,-117,o),
(349,-138,cs),
(349,-159,o),
(334,-173,o),
(313,-173,cs),
(292,-173,o),
(281,-161,o),
(278,-148,c),
(206,-148,l),
(208,-188,o),
(243,-229,o),
(311,-229,cs),
(391,-229,o),
(424,-181,o),
(424,-134,cs),
(424,-81,o),
(390,-48,o),
(347,-48,cs),
(330,-48,o),
(317,-51,o),
(308,-58,c),
(294,-58,l),
(311,-13,l),
(313,-13,ls),
(454,-13,o),
(521,75,o),
(544,209,c),
(436,209,l),
(417,117,o),
(375,90,o),
(308,90,cs),
(201,90,o),
(164,190,o),
(164,357,cs),
(164,524,o),
(201,624,o),
(308,624,cs),
(375,624,o),
(408,595,o),
(428,525,c)
);
}
);
width = 584;
}
);
note = ccedilla;
unicode = 231;
},
{
glyphname = egrave;
kernRight = E;
layers = (
{
hints = (
{
horizontal = 1;
place = (0, 100);
place = (0, 100);
type = Stem;
},
{
horizontal = 1;
place = (320, 100);
place = (320, 100);
type = Stem;
},
{
horizontal = 1;
place = (614, 100);
place = (614, 100);
type = Stem;
},
{
place = (87, 107);
place = (87, 107);
type = Stem;
},
{
horizontal = 1;
place = (767, 129);
place = (767, 129);
type = Stem;
}
);
layerId = m01;
shapes = (
{
closed = 1;
nodes = (
(194,100,l),
(194,320,l),
(410,320,l),
(410,420,l),
(194,420,l),
(194,614,l),
(488,614,l),
(488,714,l),
(87,714,l),
(87,0,l),
(488,0,l),
(488,100,l)
);
},
{
closed = 1;
nodes = (
(253,767,l),
(360,767,l),
(274,896,l),
(145,896,l)
);
}
);
width = 538;
}
);
note = egrave;
unicode = 232;
},
{
glyphname = eacute;
kernRight = E;
layers = (
{
hints = (
{
horizontal = 1;
place = (0, 100);
place = (0, 100);
type = Stem;
},
{
horizontal = 1;
place = (320, 100);
place = (320, 100);
type = Stem;
},
{
horizontal = 1;
place = (614, 100);
place = (614, 100);
type = Stem;
},
{
place = (87, 107);
place = (87, 107);
type = Stem;
},
{
horizontal = 1;
place = (767, 129);
place = (767, 129);
type = Stem;
}
);
layerId = m01;
shapes = (
{
closed = 1;
nodes = (
(194,100,l),
(194,320,l),
(410,320,l),
(410,420,l),
(194,420,l),
(194,614,l),
(488,614,l),
(488,714,l),
(87,714,l),
(87,0,l),
(488,0,l),
(488,100,l)
);
},
{
closed = 1;
nodes = (
(424,896,l),
(294,896,l),
(209,767,l),
(315,767,l)
);
}
);
width = 538;
}
);
note = eacute;
unicode = 233;
},
{
glyphname = ecircumflex;
kernRight = E;
layers = (
{
hints = (
{
horizontal = 1;
place = (0, 100);
place = (0, 100);
type = Stem;
},
{
horizontal = 1;
place = (320, 100);
place = (320, 100);
type = Stem;
},
{
horizontal = 1;
place = (614, 100);
place = (614, 100);
type = Stem;
},
{
place = (87, 107);
place = (87, 107);
type = Stem;
},
{
horizontal = 1;
place = (767, 21);
target = up;
type = BottomGhost;
},
{
horizontal = 1;
place = (896, -20);
target = down;
type = TopGhost;
}
);
layerId = m01;
shapes = (
{
closed = 1;
nodes = (
(194,100,l),
(194,320,l),
(410,320,l),
(410,420,l),
(194,420,l),
(194,614,l),
(488,614,l),
(488,714,l),
(87,714,l),
(87,0,l),
(488,0,l),
(488,100,l)
);
},
{
closed = 1;
nodes = (
(362,896,l),
(214,896,l),
(108,767,l),
(213,767,l),
(273,838,l),
(301,838,l),
(361,767,l),
(468,767,l)
);
}
);
width = 538;
}
);
note = ecircumflex;
unicode = 234;
},
{
glyphname = edieresis;
kernRight = E;
layers = (
{
hints = (
{
horizontal = 1;
place = (0, 100);
place = (0, 100);
type = Stem;
},
{
horizontal = 1;
place = (320, 100);
place = (320, 100);
type = Stem;
},
{
horizontal = 1;
place = (614, 100);
place = (614, 100);
type = Stem;
},
{
place = (87, 107);
place = (87, 107);
type = Stem;
},
{
horizontal = 1;
place = (792, 104);
place = (792, 104);
type = Stem;
},
{
place = (132, 114);
place = (132, 114);
type = Stem;
},
{
place = (338, 114);
place = (338, 114);
type = Stem;
}
);
layerId = m01;
shapes = (
{
closed = 1;
nodes = (
(194,100,l),
(194,320,l),
(410,320,l),
(410,420,l),
(194,420,l),
(194,614,l),
(488,614,l),
(488,714,l),
(87,714,l),
(87,0,l),
(488,0,l),
(488,100,l)
);
},
{
closed = 1;
nodes = (
(452,792,l),
(452,896,l),
(338,896,l),
(338,792,l)
);
},
{
closed = 1;
nodes = (
(246,792,l),
(246,896,l),
(132,896,l),
(132,792,l)
);
}
);
width = 538;
}
);
note = edieresis;
unicode = 235;
},
{
glyphname = igrave;
layers = (
{
hints = (
{
horizontal = 1;
place = (0, 21);
target = up;
type = BottomGhost;
},
{
horizontal = 1;
place = (714, -20);
target = down;
type = TopGhost;
},
{
place = (87, 107);
place = (87, 107);
type = Stem;
},
{
horizontal = 1;
place = (767, 129);
place = (767, 129);
type = Stem;
}
);
layerId = m01;
shapes = (
{
closed = 1;
nodes = (
(194,714,l),
(87,714,l),
(87,0,l),
(194,0,l)
);
},
{
closed = 1;
nodes = (
(88,767,l),
(195,767,l),
(109,896,l),
(-20,896,l)
);
}
);
width = 281;
}
);
note = igrave;
unicode = 236;
},
{
glyphname = iacute;
layers = (
{
hints = (
{
horizontal = 1;
place = (0, 21);
target = up;
type = BottomGhost;
},
{
horizontal = 1;
place = (714, -20);
target = down;
type = TopGhost;
},
{
place = (87, 107);
place = (87, 107);
type = Stem;
},
{
horizontal = 1;
place = (767, 129);
place = (767, 129);
type = Stem;
}
);
layerId = m01;
shapes = (
{
closed = 1;
nodes = (
(194,714,l),
(87,714,l),
(87,0,l),
(194,0,l)
);
},
{
closed = 1;
nodes = (
(302,896,l),
(172,896,l),
(87,767,l),
(193,767,l)
);
}
);
width = 281;
}
);
note = iacute;
unicode = 237;
},
{
glyphname = icircumflex;
layers = (
{
hints = (
{
horizontal = 1;
place = (0, 21);
target = up;
type = BottomGhost;
},
{
horizontal = 1;
place = (714, -20);
target = down;
type = TopGhost;
},
{
place = (87, 107);
place = (87, 107);
type = Stem;
},
{
horizontal = 1;
place = (767, 21);
target = up;
type = BottomGhost;
},
{
horizontal = 1;
place = (896, -20);
target = down;
type = TopGhost;
}
);
layerId = m01;
shapes = (
{
closed = 1;
nodes = (
(194,714,l),
(87,714,l),
(87,0,l),
(194,0,l)
);
},
{
closed = 1;
nodes = (
(214,896,l),
(66,896,l),
(-40,767,l),
(65,767,l),
(125,838,l),
(153,838,l),
(213,767,l),
(320,767,l)
);
}
);
width = 281;
}
);
note = icircumflex;
unicode = 238;
},
{
glyphname = idieresis;
layers = (
{
hints = (
{
horizontal = 1;
place = (0, 21);
target = up;
type = BottomGhost;
},
{
horizontal = 1;
place = (714, -20);
target = down;
type = TopGhost;
},
{
place = (87, 107);
place = (87, 107);
type = Stem;
},
{
horizontal = 1;
place = (792, 104);
place = (792, 104);
type = Stem;
},
{
place = (-20, 114);
place = (-20, 114);
type = Stem;
},
{
place = (186, 114);
place = (186, 114);
type = Stem;
}
);
layerId = m01;
shapes = (
{
closed = 1;
nodes = (
(194,714,l),
(87,714,l),
(87,0,l),
(194,0,l)
);
},
{
closed = 1;
nodes = (
(300,792,l),
(300,896,l),
(186,896,l),
(186,792,l)
);
},
{
closed = 1;
nodes = (
(94,792,l),
(94,896,l),
(-20,896,l),
(-20,792,l)
);
}
);
width = 281;
}
);
note = idieresis;
unicode = 239;
},
{
glyphname = eth;
kernRight = zero;
layers = (
{
hints = (
{
horizontal = 1;
place = (0, 100);
place = (0, 100);
type = Stem;
},
{
horizontal = 1;
place = (320, 100);
place = (320, 100);
type = Stem;
},
{
horizontal = 1;
place = (614, 100);
place = (614, 100);
type = Stem;
},
{
place = (87, 107);
place = (87, 107);
type = Stem;
},
{
place = (442, 109);
place = (442, 109);
type = Stem;
}
);
layerId = m01;
shapes = (
{
closed = 1;
nodes = (
(87,714,l),
(87,420,l),
(24,420,l),
(24,320,l),
(87,320,l),
(87,0,l),
(272,0,ls),
(481,0,o),
(551,144,o),
(551,357,cs),
(551,571,o),
(481,714,o),
(272,714,cs)
);
},
{
closed = 1;
nodes = (
(194,614,l),
(260,614,ls),
(417,614,o),
(442,501,o),
(442,357,cs),
(442,213,o),
(417,100,o),
(260,100,cs),
(194,100,l),
(194,320,l),
(303,320,l),
(303,420,l),
(194,420,l)
);
}
);
width = 606;
}
);
note = eth;
unicode = 240;
},
{
glyphname = ntilde;
layers = (
{
hints = (
{
horizontal = 1;
place = (818, 78);
place = (818, 78);
type = Stem;
},
{
place = (162, 69);
place = (162, 69);
type = Stem;
},
{
place = (420, 69);
place = (420, 69);
type = Stem;
},
{
horizontal = 1;
place = (767, 77);
place = (767, 77);
type = Stem;
},
{
horizontal = 1;
place = (0, 21);
target = up;
type = BottomGhost;
},
{
horizontal = 1;
place = (714, -20);
target = down;
type = TopGhost;
},
{
place = (87, 103);
place = (87, 103);
type = Stem;
},
{
place = (456, 103);
place = (456, 103);
type = Stem;
}
);
layerId = m01;
shapes = (
{
closed = 1;
nodes = (
(420,896,l),
(420,858,o),
(411,844,o),
(389,844,cs),
(354,844,o),
(324,896,o),
(259,896,cs),
(200,896,o),
(162,856,o),
(162,767,c),
(231,767,l),
(231,804,o),
(243,818,o),
(265,818,cs),
(300,818,o),
(327,767,o),
(393,767,cs),
(453,767,o),
(489,806,o),
(489,896,c)
);
},
{
closed = 1;
nodes = (
(456,714,l),
(456,110,l),
(428,110,l),
(297,714,l),
(87,714,l),
(87,0,l),
(190,0,l),
(190,604,l),
(218,604,l),
(349,0,l),
(559,0,l),
(559,714,l)
);
}
);
width = 646;
}
);
note = ntilde;
unicode = 241;
},
{
glyphname = ograve;
kernLeft = zero;
kernRight = zero;
layers = (
{
hints = (
{
horizontal = 1;
place = (-13, 103);
place = (-13, 103);
type = Stem;
},
{
horizontal = 1;
place = (624, 103);
place = (624, 103);
type = Stem;
},
{
place = (55, 109);
place = (55, 109);
type = Stem;
},
{
place = (450, 109);
place = (450, 109);
type = Stem;
},
{
horizontal = 1;
place = (767, 129);
place = (767, 129);
type = Stem;
}
);
layerId = m01;
shapes = (
{
closed = 1;
nodes = (
(124,727,o),
(55,573,o),
(55,357,cs),
(55,142,o),
(124,-13,o),
(307,-13,cs),
(490,-13,o),
(559,142,o),
(559,357,cs),
(559,573,o),
(490,727,o),
(307,727,cs)
);
},
{
closed = 1;
nodes = (
(195,90,o),
(164,194,o),
(164,357,cs),
(164,520,o),
(195,624,o),
(307,624,cs),
(419,624,o),
(450,520,o),
(450,357,cs),
(450,194,o),
(419,90,o),
(307,90,cs)
);
},
{
closed = 1;
nodes = (
(272,767,l),
(379,767,l),
(293,896,l),
(164,896,l)
);
}
);
width = 614;
}
);
note = ograve;
unicode = 242;
},
{
glyphname = oacute;
kernLeft = zero;
kernRight = zero;
layers = (
{
hints = (
{
horizontal = 1;
place = (-13, 103);
place = (-13, 103);
type = Stem;
},
{
horizontal = 1;
place = (624, 103);
place = (624, 103);
type = Stem;
},
{
place = (55, 109);
place = (55, 109);
type = Stem;
},
{
place = (450, 109);
place = (450, 109);
type = Stem;
},
{
horizontal = 1;
place = (767, 129);
place = (767, 129);
type = Stem;
}
);
layerId = m01;
shapes = (
{
closed = 1;
nodes = (
(124,727,o),
(55,573,o),
(55,357,cs),
(55,142,o),
(124,-13,o),
(307,-13,cs),
(490,-13,o),
(559,142,o),
(559,357,cs),
(559,573,o),
(490,727,o),
(307,727,cs)
);
},
{
closed = 1;
nodes = (
(195,90,o),
(164,194,o),
(164,357,cs),
(164,520,o),
(195,624,o),
(307,624,cs),
(419,624,o),
(450,520,o),
(450,357,cs),
(450,194,o),
(419,90,o),
(307,90,cs)
);
},
{
closed = 1;
nodes = (
(453,896,l),
(323,896,l),
(238,767,l),
(344,767,l)
);
}
);
width = 614;
}
);
note = oacute;
unicode = 243;
},
{
glyphname = ocircumflex;
kernLeft = zero;
kernRight = zero;
layers = (
{
hints = (
{
horizontal = 1;
place = (-13, 103);
place = (-13, 103);
type = Stem;
},
{
horizontal = 1;
place = (624, 103);
place = (624, 103);
type = Stem;
},
{
place = (55, 109);
place = (55, 109);
type = Stem;
},
{
place = (450, 109);
place = (450, 109);
type = Stem;
},
{
horizontal = 1;
place = (767, 21);
target = up;
type = BottomGhost;
},
{
horizontal = 1;
place = (896, -20);
target = down;
type = TopGhost;
}
);
layerId = m01;
shapes = (
{
closed = 1;
nodes = (
(124,727,o),
(55,573,o),
(55,357,cs),
(55,142,o),
(124,-13,o),
(307,-13,cs),
(490,-13,o),
(559,142,o),
(559,357,cs),
(559,573,o),
(490,727,o),
(307,727,cs)
);
},
{
closed = 1;
nodes = (
(195,90,o),
(164,194,o),
(164,357,cs),
(164,520,o),
(195,624,o),
(307,624,cs),
(419,624,o),
(450,520,o),
(450,357,cs),
(450,194,o),
(419,90,o),
(307,90,cs)
);
},
{
closed = 1;
nodes = (
(381,896,l),
(233,896,l),
(127,767,l),
(232,767,l),
(292,838,l),
(320,838,l),
(380,767,l),
(487,767,l)
);
}
);
width = 614;
}
);
note = ocircumflex;
unicode = 244;
},
{
glyphname = otilde;
kernLeft = zero;
kernRight = zero;
layers = (
{
hints = (
{
horizontal = 1;
place = (-13, 103);
place = (-13, 103);
type = Stem;
},
{
horizontal = 1;
place = (624, 103);
place = (624, 103);
type = Stem;
},
{
place = (55, 109);
place = (55, 109);
type = Stem;
},
{
place = (450, 109);
place = (450, 109);
type = Stem;
},
{
horizontal = 1;
place = (818, 78);
place = (818, 78);
type = Stem;
},
{
place = (143, 69);
place = (143, 69);
type = Stem;
},
{
place = (401, 69);
place = (401, 69);
type = Stem;
},
{
horizontal = 1;
place = (767, 77);
place = (767, 77);
type = Stem;
}
);
layerId = m01;
shapes = (
{
closed = 1;
nodes = (
(124,727,o),
(55,573,o),
(55,357,cs),
(55,142,o),
(124,-13,o),
(307,-13,cs),
(490,-13,o),
(559,142,o),
(559,357,cs),
(559,573,o),
(490,727,o),
(307,727,cs)
);
},
{
closed = 1;
nodes = (
(195,90,o),
(164,194,o),
(164,357,cs),
(164,520,o),
(195,624,o),
(307,624,cs),
(419,624,o),
(450,520,o),
(450,357,cs),
(450,194,o),
(419,90,o),
(307,90,cs)
);
},
{
closed = 1;
nodes = (
(401,896,l),
(401,858,o),
(392,844,o),
(370,844,cs),
(335,844,o),
(305,896,o),
(240,896,cs),
(181,896,o),
(143,856,o),
(143,767,c),
(212,767,l),
(212,804,o),
(224,818,o),
(246,818,cs),
(281,818,o),
(308,767,o),
(374,767,cs),
(434,767,o),
(470,806,o),
(470,896,c)
);
}
);
width = 614;
}
);
note = otilde;
unicode = 245;
},
{
glyphname = odieresis;
kernLeft = zero;
kernRight = zero;
layers = (
{
hints = (
{
horizontal = 1;
place = (-13, 103);
place = (-13, 103);
type = Stem;
},
{
horizontal = 1;
place = (624, 103);
place = (624, 103);
type = Stem;
},
{
place = (55, 109);
place = (55, 109);
type = Stem;
},
{
place = (450, 109);
place = (450, 109);
type = Stem;
},
{
horizontal = 1;
place = (792, 104);
place = (792, 104);
type = Stem;
},
{
place = (147, 114);
place = (147, 114);
type = Stem;
},
{
place = (353, 114);
place = (353, 114);
type = Stem;
}
);
layerId = m01;
shapes = (
{
closed = 1;
nodes = (
(124,727,o),
(55,573,o),
(55,357,cs),
(55,142,o),
(124,-13,o),
(307,-13,cs),
(490,-13,o),
(559,142,o),
(559,357,cs),
(559,573,o),
(490,727,o),
(307,727,cs)
);
},
{
closed = 1;
nodes = (
(195,90,o),
(164,194,o),
(164,357,cs),
(164,520,o),
(195,624,o),
(307,624,cs),
(419,624,o),
(450,520,o),
(450,357,cs),
(450,194,o),
(419,90,o),
(307,90,cs)
);
},
{
closed = 1;
nodes = (
(467,792,l),
(467,896,l),
(353,896,l),
(353,792,l)
);
},
{
closed = 1;
nodes = (
(261,792,l),
(261,896,l),
(147,896,l),
(147,792,l)
);
}
);
width = 614;
}
);
note = odieresis;
unicode = 246;
},
{
glyphname = divide;
layers = (
{
hints = (
{
place = (102, 121);
place = (102, 121);
type = Stem;
},
{
place = (315, 93);
place = (315, 93);
type = Stem;
},
{
place = (500, 121);
place = (500, 121);
type = Stem;
},
{
place = (256, 120);
place = (256, 120);
type = Stem;
}
);
layerId = m01;
shapes = (
{
closed = 1;
nodes = (
(376,102,l),
(376,223,l),
(256,223,l),
(256,102,l)
);
},
{
closed = 1;
nodes = (
(376,500,l),
(376,621,l),
(256,621,l),
(256,500,l)
);
},
{
closed = 1;
nodes = (
(81,408,l),
(81,315,l),
(549,315,l),
(549,408,l)
);
}
);
width = 630;
}
);
note = divide;
unicode = 247;
},
{
glyphname = oslash;
kernLeft = zero;
kernRight = zero;
layers = (
{
hints = (
{
horizontal = 1;
place = (0, 21);
target = up;
type = BottomGhost;
},
{
horizontal = 1;
place = (624, 103);
place = (624, 103);
type = Stem;
},
{
place = (55, 109);
place = (55, 109);
type = Stem;
},
{
place = (450, 109);
place = (450, 109);
type = Stem;
},
{
horizontal = 1;
place = (-13, 103);
place = (-13, 103);
type = Stem;
},
{
horizontal = 1;
place = (714, -20);
target = down;
type = TopGhost;
}
);
layerId = m01;
shapes = (
{
closed = 1;
nodes = (
(124,727,o),
(55,573,o),
(55,357,cs),
(55,251,o),
(72,160,o),
(110,95,c),
(55,0,l),
(143,0,l),
(162,33,l),
(199,3,o),
(247,-13,o),
(307,-13,cs),
(490,-13,o),
(559,142,o),
(559,357,cs),
(559,463,o),
(542,554,o),
(503,619,c),
(559,714,l),
(471,714,l),
(451,681,l),
(414,710,o),
(367,727,o),
(307,727,cs)
);
},
{
closed = 1;
nodes = (
(164,520,o),
(195,624,o),
(307,624,cs),
(346,624,o),
(375,611,o),
(397,587,c),
(177,210,l),
(168,250,o),
(164,300,o),
(164,357,cs)
);
},
{
closed = 1;
nodes = (
(268,90,o),
(238,103,o),
(217,126,c),
(436,504,l),
(446,463,o),
(450,414,o),
(450,357,cs),
(450,194,o),
(419,90,o),
(307,90,cs)
);
}
);
width = 614;
}
);
note = oslash;
unicode = 248;
},
{
glyphname = ugrave;
kernLeft = U;
kernRight = J;
layers = (
{
hints = (
{
horizontal = 1;
place = (-13, 103);
place = (-13, 103);
type = Stem;
},
{
horizontal = 1;
place = (714, -20);
target = down;
type = TopGhost;
},
{
place = (80, 107);
place = (80, 107);
type = Stem;
},
{
place = (433, 107);
place = (433, 107);
type = Stem;
},
{
horizontal = 1;
place = (767, 129);
place = (767, 129);
type = Stem;
}
);
layerId = m01;
shapes = (
{
closed = 1;
nodes = (
(433,714,l),
(433,248,ls),
(433,147,o),
(399,90,o),
(310,90,cs),
(221,90,o),
(187,147,o),
(187,248,cs),
(187,714,l),
(80,714,l),
(80,248,ls),
(80,76,o),
(151,-13,o),
(310,-13,cs),
(469,-13,o),
(540,76,o),
(540,248,cs),
(540,714,l)
);
},
{
closed = 1;
nodes = (
(269,767,l),
(376,767,l),
(290,896,l),
(161,896,l)
);
}
);
width = 620;
}
);
note = ugrave;
unicode = 249;
},
{
glyphname = uacute;
kernLeft = U;
kernRight = J;
layers = (
{
hints = (
{
horizontal = 1;
place = (-13, 103);
place = (-13, 103);
type = Stem;
},
{
horizontal = 1;
place = (714, -20);
target = down;
type = TopGhost;
},
{
place = (80, 107);
place = (80, 107);
type = Stem;
},
{
place = (433, 107);
place = (433, 107);
type = Stem;
},
{
horizontal = 1;
place = (767, 129);
place = (767, 129);
type = Stem;
}
);
layerId = m01;
shapes = (
{
closed = 1;
nodes = (
(433,714,l),
(433,248,ls),
(433,147,o),
(399,90,o),
(310,90,cs),
(221,90,o),
(187,147,o),
(187,248,cs),
(187,714,l),
(80,714,l),
(80,248,ls),
(80,76,o),
(151,-13,o),
(310,-13,cs),
(469,-13,o),
(540,76,o),
(540,248,cs),
(540,714,l)
);
},
{
closed = 1;
nodes = (
(465,896,l),
(335,896,l),
(250,767,l),
(356,767,l)
);
}
);
width = 620;
}
);
note = uacute;
unicode = 250;
},
{
glyphname = ucircumflex;
kernLeft = U;
kernRight = J;
layers = (
{
hints = (
{
horizontal = 1;
place = (-13, 103);
place = (-13, 103);
type = Stem;
},
{
horizontal = 1;
place = (714, -20);
target = down;
type = TopGhost;
},
{
place = (80, 107);
place = (80, 107);
type = Stem;
},
{
place = (433, 107);
place = (433, 107);
type = Stem;
},
{
horizontal = 1;
place = (767, 21);
target = up;
type = BottomGhost;
},
{
horizontal = 1;
place = (896, -20);
target = down;
type = TopGhost;
}
);
layerId = m01;
shapes = (
{
closed = 1;
nodes = (
(433,714,l),
(433,248,ls),
(433,147,o),
(399,90,o),
(310,90,cs),
(221,90,o),
(187,147,o),
(187,248,cs),
(187,714,l),
(80,714,l),
(80,248,ls),
(80,76,o),
(151,-13,o),
(310,-13,cs),
(469,-13,o),
(540,76,o),
(540,248,cs),
(540,714,l)
);
},
{
closed = 1;
nodes = (
(384,896,l),
(236,896,l),
(130,767,l),
(235,767,l),
(295,838,l),
(323,838,l),
(383,767,l),
(490,767,l)
);
}
);
width = 620;
}
);
note = ucircumflex;
unicode = 251;
},
{
glyphname = udieresis;
kernLeft = U;
kernRight = J;
layers = (
{
hints = (
{
horizontal = 1;
place = (-13, 103);
place = (-13, 103);
type = Stem;
},
{
horizontal = 1;
place = (714, -20);
target = down;
type = TopGhost;
},
{
place = (80, 107);
place = (80, 107);
type = Stem;
},
{
place = (433, 107);
place = (433, 107);
type = Stem;
},
{
horizontal = 1;
place = (792, 104);
place = (792, 104);
type = Stem;
},
{
place = (150, 114);
place = (150, 114);
type = Stem;
},
{
place = (356, 114);
place = (356, 114);
type = Stem;
}
);
layerId = m01;
shapes = (
{
closed = 1;
nodes = (
(433,714,l),
(433,248,ls),
(433,147,o),
(399,90,o),
(310,90,cs),
(221,90,o),
(187,147,o),
(187,248,cs),
(187,714,l),
(80,714,l),
(80,248,ls),
(80,76,o),
(151,-13,o),
(310,-13,cs),
(469,-13,o),
(540,76,o),
(540,248,cs),
(540,714,l)
);
},
{
closed = 1;
nodes = (
(470,792,l),
(470,896,l),
(356,896,l),
(356,792,l)
);
},
{
closed = 1;
nodes = (
(264,792,l),
(264,896,l),
(150,896,l),
(150,792,l)
);
}
);
width = 620;
}
);
note = udieresis;
unicode = 252;
},
{
glyphname = yacute;
kernLeft = Y;
kernRight = Y;
layers = (
{
hints = (
{
horizontal = 1;
place = (0, 21);
target = up;
type = BottomGhost;
},
{
horizontal = 1;
place = (714, -20);
target = down;
type = TopGhost;
},
{
place = (207, 107);
place = (207, 107);
type = Stem;
},
{
horizontal = 1;
place = (767, 129);
place = (767, 129);
type = Stem;
}
);
layerId = m01;
shapes = (
{
closed = 1;
nodes = (
(238,448,l),
(122,714,l),
(10,714,l),
(207,266,l),
(207,0,l),
(314,0,l),
(314,266,l),
(511,714,l),
(401,714,l),
(284,448,l)
);
},
{
closed = 1;
nodes = (
(416,896,l),
(286,896,l),
(201,767,l),
(307,767,l)
);
}
);
width = 521;
}
);
note = yacute;
unicode = 253;
},
{
glyphname = thorn;
layers = (
{
hints = (
{
horizontal = 1;
place = (0, 21);
target = up;
type = BottomGhost;
},
{
horizontal = 1;
place = (147, 100);
place = (147, 100);
type = Stem;
},
{
horizontal = 1;
place = (469, 100);
place = (469, 100);
type = Stem;
},
{
horizontal = 1;
place = (714, -20);
target = down;
type = TopGhost;
},
{
place = (87, 107);
place = (87, 107);
type = Stem;
},
{
place = (435, 109);
place = (435, 109);
type = Stem;
}
);
layerId = m01;
shapes = (
{
closed = 1;
nodes = (
(194,714,l),
(87,714,l),
(87,0,l),
(194,0,l),
(194,147,l),
(309,147,ls),
(459,147,o),
(544,229,o),
(544,359,cs),
(544,489,o),
(459,569,o),
(309,569,cs),
(194,569,l)
);
},
{
closed = 1;
nodes = (
(194,247,l),
(194,469,l),
(295,469,ls),
(398,469,o),
(435,428,o),
(435,358,cs),
(435,288,o),
(398,247,o),
(295,247,cs)
);
}
);
width = 584;
}
);
note = thorn;
unicode = 254;
},
{
glyphname = ydieresis;
kernLeft = Y;
kernRight = Y;
layers = (
{
hints = (
{
horizontal = 1;
place = (0, 21);
target = up;
type = BottomGhost;
},
{
horizontal = 1;
place = (714, -20);
target = down;
type = TopGhost;
},
{
place = (207, 107);
place = (207, 107);
type = Stem;
},
{
horizontal = 1;
place = (792, 104);
place = (792, 104);
type = Stem;
},
{
place = (101, 114);
place = (101, 114);
type = Stem;
},
{
place = (307, 114);
place = (307, 114);
type = Stem;
}
);
layerId = m01;
shapes = (
{
closed = 1;
nodes = (
(238,448,l),
(122,714,l),
(10,714,l),
(207,266,l),
(207,0,l),
(314,0,l),
(314,266,l),
(511,714,l),
(401,714,l),
(284,448,l)
);
},
{
closed = 1;
nodes = (
(421,792,l),
(421,896,l),
(307,896,l),
(307,792,l)
);
},
{
closed = 1;
nodes = (
(215,792,l),
(215,896,l),
(101,896,l),
(101,792,l)
);
}
);
width = 521;
}
);
note = ydieresis;
unicode = 255;
},
{
glyphname = Amacron;
kernLeft = A;
kernRight = A;
layers = (
{
hints = (
{
horizontal = 1;
place = (0, 21);
target = up;
type = BottomGhost;
},
{
horizontal = 1;
place = (212, 100);
place = (212, 100);
type = Stem;
},
{
horizontal = 1;
place = (604, 110);
place = (604, 110);
type = Stem;
},
{
horizontal = 1;
place = (805, 84);
place = (805, 84);
type = Stem;
}
);
layerId = m01;
shapes = (
{
closed = 1;
nodes = (
(416,0,l),
(523,0,l),
(380,714,l),
(172,714,l),
(30,0,l),
(135,0,l),
(174,212,l),
(376,212,l)
);
},
{
closed = 1;
nodes = (
(248,604,l),
(303,604,l),
(357,312,l),
(193,312,l)
);
},
{
closed = 1;
nodes = (
(417,805,l),
(417,889,l),
(135,889,l),
(135,805,l)
);
}
);
width = 553;
}
);
note = Amacron;
unicode = 256;
},
{
glyphname = amacron;
kernLeft = A;
kernRight = A;
layers = (
{
hints = (
{
horizontal = 1;
place = (0, 21);
target = up;
type = BottomGhost;
},
{
horizontal = 1;
place = (212, 100);
place = (212, 100);
type = Stem;
},
{
horizontal = 1;
place = (604, 110);
place = (604, 110);
type = Stem;
},
{
horizontal = 1;
place = (805, 84);
place = (805, 84);
type = Stem;
}
);
layerId = m01;
shapes = (
{
closed = 1;
nodes = (
(416,0,l),
(523,0,l),
(380,714,l),
(172,714,l),
(30,0,l),
(135,0,l),
(174,212,l),
(376,212,l)
);
},
{
closed = 1;
nodes = (
(248,604,l),
(303,604,l),
(357,312,l),
(193,312,l)
);
},
{
closed = 1;
nodes = (
(417,805,l),
(417,889,l),
(135,889,l),
(135,805,l)
);
}
);
width = 553;
}
);
note = amacron;
unicode = 257;
},
{
glyphname = abreve;
kernLeft = A;
kernRight = A;
layers = (
{
hints = (
{
horizontal = 1;
place = (0, 21);
target = up;
type = BottomGhost;
},
{
horizontal = 1;
place = (212, 100);
place = (212, 100);
type = Stem;
},
{
horizontal = 1;
place = (604, 110);
place = (604, 110);
type = Stem;
},
{
horizontal = 1;
place = (767, 78);
place = (767, 78);
type = Stem;
},
{
place = (138, 83);
place = (138, 83);
type = Stem;
},
{
place = (332, 83);
place = (332, 83);
type = Stem;
}
);
layerId = m01;
shapes = (
{
closed = 1;
nodes = (
(416,0,l),
(523,0,l),
(380,714,l),
(172,714,l),
(30,0,l),
(135,0,l),
(174,212,l),
(376,212,l)
);
},
{
closed = 1;
nodes = (
(248,604,l),
(303,604,l),
(357,312,l),
(193,312,l)
);
},
{
closed = 1;
nodes = (
(332,896,l),
(332,864,o),
(312,845,o),
(276,845,cs),
(241,845,o),
(221,864,o),
(221,896,c),
(138,896,l),
(139,814,o),
(191,767,o),
(276,767,cs),
(362,767,o),
(415,814,o),
(415,896,c)
);
}
);
width = 553;
}
);
note = abreve;
unicode = 259;
},
{
glyphname = Aogonek;
kernLeft = A;
kernRight = A;
layers = (
{
hints = (
{
horizontal = 1;
place = (-200, 72);
place = (-200, 72);
type = Stem;
},
{
horizontal = 1;
place = (0, 21);
target = up;
type = BottomGhost;
},
{
horizontal = 1;
place = (212, 100);
place = (212, 100);
type = Stem;
},
{
horizontal = 1;
place = (604, 110);
place = (604, 110);
type = Stem;
},
{
place = (363, 88);
place = (363, 88);
type = Stem;
}
);
layerId = m01;
shapes = (
{
closed = 1;
nodes = (
(380,714,l),
(172,714,l),
(30,0,l),
(135,0,l),
(174,212,l),
(376,212,l),
(416,0,l),
(381,-24,o),
(363,-64,o),
(363,-99,cs),
(363,-169,o),
(412,-200,o),
(493,-200,cs),
(523,-200,l),
(523,-128,l),
(477,-128,o),
(451,-117,o),
(451,-83,cs),
(451,-56,o),
(471,-25,o),
(523,0,c)
);
},
{
closed = 1;
nodes = (
(248,604,l),
(303,604,l),
(357,312,l),
(193,312,l)
);
}
);
width = 553;
}
);
note = Aogonek;
unicode = 260;
},
{
glyphname = aogonek;
kernLeft = A;
kernRight = A;
layers = (
{
hints = (
{
horizontal = 1;
place = (-200, 72);
place = (-200, 72);
type = Stem;
},
{
horizontal = 1;
place = (0, 21);
target = up;
type = BottomGhost;
},
{
horizontal = 1;
place = (212, 100);
place = (212, 100);
type = Stem;
},
{
horizontal = 1;
place = (604, 110);
place = (604, 110);
type = Stem;
},
{
place = (363, 88);
place = (363, 88);
type = Stem;
}
);
layerId = m01;
shapes = (
{
closed = 1;
nodes = (
(380,714,l),
(172,714,l),
(30,0,l),
(135,0,l),
(174,212,l),
(376,212,l),
(416,0,l),
(381,-24,o),
(363,-64,o),
(363,-99,cs),
(363,-169,o),
(412,-200,o),
(493,-200,cs),
(523,-200,l),
(523,-128,l),
(477,-128,o),
(451,-117,o),
(451,-83,cs),
(451,-56,o),
(471,-25,o),
(523,0,c)
);
},
{
closed = 1;
nodes = (
(248,604,l),
(303,604,l),
(357,312,l),
(193,312,l)
);
}
);
width = 553;
}
);
note = aogonek;
unicode = 261;
},
{
glyphname = Cacute;
kernLeft = zero;
layers = (
{
hints = (
{
horizontal = 1;
place = (-13, 103);
place = (-13, 103);
type = Stem;
},
{
horizontal = 1;
place = (624, 103);
place = (624, 103);
type = Stem;
},
{
place = (55, 109);
place = (55, 109);
type = Stem;
},
{
horizontal = 1;
place = (767, 129);
place = (767, 129);
type = Stem;
}
);
layerId = m01;
shapes = (
{
closed = 1;
nodes = (
(535,525,l),
(510,648,o),
(447,727,o),
(313,727,cs),
(128,727,o),
(55,577,o),
(55,357,cs),
(55,138,o),
(128,-13,o),
(313,-13,cs),
(454,-13,o),
(521,75,o),
(544,209,c),
(436,209,l),
(417,117,o),
(375,90,o),
(308,90,cs),
(201,90,o),
(164,190,o),
(164,357,cs),
(164,524,o),
(201,624,o),
(308,624,cs),
(375,624,o),
(408,595,o),
(428,525,c)
);
},
{
closed = 1;
nodes = (
(465,896,l),
(335,896,l),
(250,767,l),
(356,767,l)
);
}
);
width = 584;
}
);
note = Cacute;
unicode = 262;
},
{
glyphname = cacute;
kernLeft = zero;
layers = (
{
hints = (
{
horizontal = 1;
place = (-13, 103);
place = (-13, 103);
type = Stem;
},
{
horizontal = 1;
place = (624, 103);
place = (624, 103);
type = Stem;
},
{
place = (55, 109);
place = (55, 109);
type = Stem;
},
{
horizontal = 1;
place = (767, 129);
place = (767, 129);
type = Stem;
}
);
layerId = m01;
shapes = (
{
closed = 1;
nodes = (
(535,525,l),
(510,648,o),
(447,727,o),
(313,727,cs),
(128,727,o),
(55,577,o),
(55,357,cs),
(55,138,o),
(128,-13,o),
(313,-13,cs),
(454,-13,o),
(521,75,o),
(544,209,c),
(436,209,l),
(417,117,o),
(375,90,o),
(308,90,cs),
(201,90,o),
(164,190,o),
(164,357,cs),
(164,524,o),
(201,624,o),
(308,624,cs),
(375,624,o),
(408,595,o),
(428,525,c)
);
},
{
closed = 1;
nodes = (
(465,896,l),
(335,896,l),
(250,767,l),
(356,767,l)
);
}
);
width = 584;
}
);
note = cacute;
unicode = 263;
},
{
glyphname = Ccaron;
kernLeft = zero;
layers = (
{
hints = (
{
horizontal = 1;
place = (-13, 103);
place = (-13, 103);
type = Stem;
},
{
horizontal = 1;
place = (624, 103);
place = (624, 103);
type = Stem;
},
{
place = (55, 109);
place = (55, 109);
type = Stem;
},
{
horizontal = 1;
place = (767, 21);
target = up;
type = BottomGhost;
},
{
horizontal = 1;
place = (896, -20);
target = down;
type = TopGhost;
}
);
layerId = m01;
shapes = (
{
closed = 1;
nodes = (
(535,525,l),
(510,648,o),
(447,727,o),
(313,727,cs),
(128,727,o),
(55,577,o),
(55,357,cs),
(55,138,o),
(128,-13,o),
(313,-13,cs),
(454,-13,o),
(521,75,o),
(544,209,c),
(436,209,l),
(417,117,o),
(375,90,o),
(308,90,cs),
(201,90,o),
(164,190,o),
(164,357,cs),
(164,524,o),
(201,624,o),
(308,624,cs),
(375,624,o),
(408,595,o),
(428,525,c)
);
},
{
closed = 1;
nodes = (
(495,896,l),
(388,896,l),
(328,825,l),
(300,825,l),
(240,896,l),
(135,896,l),
(241,767,l),
(389,767,l)
);
}
);
width = 584;
}
);
note = Ccaron;
unicode = 268;
},
{
glyphname = ccaron;
kernLeft = zero;
layers = (
{
hints = (
{
horizontal = 1;
place = (-13, 103);
place = (-13, 103);
type = Stem;
},
{
horizontal = 1;
place = (624, 103);
place = (624, 103);
type = Stem;
},
{
place = (55, 109);
place = (55, 109);
type = Stem;
},
{
horizontal = 1;
place = (767, 21);
target = up;
type = BottomGhost;
},
{
horizontal = 1;
place = (896, -20);
target = down;
type = TopGhost;
}
);
layerId = m01;
shapes = (
{
closed = 1;
nodes = (
(535,525,l),
(510,648,o),
(447,727,o),
(313,727,cs),
(128,727,o),
(55,577,o),
(55,357,cs),
(55,138,o),
(128,-13,o),
(313,-13,cs),
(454,-13,o),
(521,75,o),
(544,209,c),
(436,209,l),
(417,117,o),
(375,90,o),
(308,90,cs),
(201,90,o),
(164,190,o),
(164,357,cs),
(164,524,o),
(201,624,o),
(308,624,cs),
(375,624,o),
(408,595,o),
(428,525,c)
);
},
{
closed = 1;
nodes = (
(495,896,l),
(388,896,l),
(328,825,l),
(300,825,l),
(240,896,l),
(135,896,l),
(241,767,l),
(389,767,l)
);
}
);
width = 584;
}
);
note = ccaron;
unicode = 269;
},
{
glyphname = Dcaron;
kernRight = zero;
layers = (
{
hints = (
{
horizontal = 1;
place = (0, 100);
place = (0, 100);
type = Stem;
},
{
horizontal = 1;
place = (614, 100);
place = (614, 100);
type = Stem;
},
{
place = (87, 107);
place = (87, 107);
type = Stem;
},
{
place = (442, 109);
place = (442, 109);
type = Stem;
},
{
horizontal = 1;
place = (767, 21);
target = up;
type = BottomGhost;
},
{
horizontal = 1;
place = (896, -20);
target = down;
type = TopGhost;
}
);
layerId = m01;
shapes = (
{
closed = 1;
nodes = (
(87,714,l),
(87,0,l),
(272,0,ls),
(481,0,o),
(551,144,o),
(551,357,cs),
(551,571,o),
(481,714,o),
(272,714,cs)
);
},
{
closed = 1;
nodes = (
(194,614,l),
(260,614,ls),
(417,614,o),
(442,501,o),
(442,357,cs),
(442,213,o),
(417,100,o),
(260,100,cs),
(194,100,l)
);
},
{
closed = 1;
nodes = (
(471,896,l),
(364,896,l),
(304,825,l),
(276,825,l),
(216,896,l),
(111,896,l),
(217,767,l),
(365,767,l)
);
}
);
width = 606;
}
);
note = Dcaron;
unicode = 270;
},
{
glyphname = dcaron;
kernRight = zero;
layers = (
{
hints = (
{
horizontal = 1;
place = (0, 100);
place = (0, 100);
type = Stem;
},
{
horizontal = 1;
place = (614, 100);
place = (614, 100);
type = Stem;
},
{
place = (87, 107);
place = (87, 107);
type = Stem;
},
{
place = (442, 109);
place = (442, 109);
type = Stem;
},
{
horizontal = 1;
place = (767, 21);
target = up;
type = BottomGhost;
},
{
horizontal = 1;
place = (896, -20);
target = down;
type = TopGhost;
}
);
layerId = m01;
shapes = (
{
closed = 1;
nodes = (
(87,714,l),
(87,0,l),
(272,0,ls),
(481,0,o),
(551,144,o),
(551,357,cs),
(551,571,o),
(481,714,o),
(272,714,cs)
);
},
{
closed = 1;
nodes = (
(194,614,l),
(260,614,ls),
(417,614,o),
(442,501,o),
(442,357,cs),
(442,213,o),
(417,100,o),
(260,100,cs),
(194,100,l)
);
},
{
closed = 1;
nodes = (
(471,896,l),
(364,896,l),
(304,825,l),
(276,825,l),
(216,896,l),
(111,896,l),
(217,767,l),
(365,767,l)
);
}
);
width = 606;
}
);
note = dcaron;
unicode = 271;
},
{
glyphname = Dcroat;
kernRight = zero;
layers = (
{
hints = (
{
horizontal = 1;
place = (0, 100);
place = (0, 100);
type = Stem;
},
{
horizontal = 1;
place = (320, 100);
place = (320, 100);
type = Stem;
},
{
horizontal = 1;
place = (614, 100);
place = (614, 100);
type = Stem;
},
{
place = (87, 107);
place = (87, 107);
type = Stem;
},
{
place = (442, 109);
place = (442, 109);
type = Stem;
}
);
layerId = m01;
shapes = (
{
closed = 1;
nodes = (
(87,714,l),
(87,420,l),
(24,420,l),
(24,320,l),
(87,320,l),
(87,0,l),
(272,0,ls),
(481,0,o),
(551,144,o),
(551,357,cs),
(551,571,o),
(481,714,o),
(272,714,cs)
);
},
{
closed = 1;
nodes = (
(194,614,l),
(260,614,ls),
(417,614,o),
(442,501,o),
(442,357,cs),
(442,213,o),
(417,100,o),
(260,100,cs),
(194,100,l),
(194,320,l),
(303,320,l),
(303,420,l),
(194,420,l)
);
}
);
width = 606;
}
);
note = Dcroat;
unicode = 272;
},
{
glyphname = dcroat;
kernRight = zero;
layers = (
{
hints = (
{
horizontal = 1;
place = (0, 100);
place = (0, 100);
type = Stem;
},
{
horizontal = 1;
place = (320, 100);
place = (320, 100);
type = Stem;
},
{
horizontal = 1;
place = (614, 100);
place = (614, 100);
type = Stem;
},
{
place = (87, 107);
place = (87, 107);
type = Stem;
},
{
place = (442, 109);
place = (442, 109);
type = Stem;
}
);
layerId = m01;
shapes = (
{
closed = 1;
nodes = (
(87,714,l),
(87,420,l),
(24,420,l),
(24,320,l),
(87,320,l),
(87,0,l),
(272,0,ls),
(481,0,o),
(551,144,o),
(551,357,cs),
(551,571,o),
(481,714,o),
(272,714,cs)
);
},
{
closed = 1;
nodes = (
(194,614,l),
(260,614,ls),
(417,614,o),
(442,501,o),
(442,357,cs),
(442,213,o),
(417,100,o),
(260,100,cs),
(194,100,l),
(194,320,l),
(303,320,l),
(303,420,l),
(194,420,l)
);
}
);
width = 606;
}
);
note = dcroat;
unicode = 273;
},
{
glyphname = Emacron;
kernRight = E;
layers = (
{
hints = (
{
horizontal = 1;
place = (0, 100);
place = (0, 100);
type = Stem;
},
{
horizontal = 1;
place = (320, 100);
place = (320, 100);
type = Stem;
},
{
horizontal = 1;
place = (614, 100);
place = (614, 100);
type = Stem;
},
{
place = (87, 107);
place = (87, 107);
type = Stem;
},
{
horizontal = 1;
place = (805, 84);
place = (805, 84);
type = Stem;
}
);
layerId = m01;
shapes = (
{
closed = 1;
nodes = (
(194,100,l),
(194,320,l),
(410,320,l),
(410,420,l),
(194,420,l),
(194,614,l),
(488,614,l),
(488,714,l),
(87,714,l),
(87,0,l),
(488,0,l),
(488,100,l)
);
},
{
closed = 1;
nodes = (
(430,805,l),
(430,889,l),
(148,889,l),
(148,805,l)
);
}
);
width = 538;
}
);
note = Emacron;
unicode = 274;
},
{
glyphname = emacron;
kernRight = E;
layers = (
{
hints = (
{
horizontal = 1;
place = (0, 100);
place = (0, 100);
type = Stem;
},
{
horizontal = 1;
place = (320, 100);
place = (320, 100);
type = Stem;
},
{
horizontal = 1;
place = (614, 100);
place = (614, 100);
type = Stem;
},
{
place = (87, 107);
place = (87, 107);
type = Stem;
},
{
horizontal = 1;
place = (805, 84);
place = (805, 84);
type = Stem;
}
);
layerId = m01;
shapes = (
{
closed = 1;
nodes = (
(194,100,l),
(194,320,l),
(410,320,l),
(410,420,l),
(194,420,l),
(194,614,l),
(488,614,l),
(488,714,l),
(87,714,l),
(87,0,l),
(488,0,l),
(488,100,l)
);
},
{
closed = 1;
nodes = (
(430,805,l),
(430,889,l),
(148,889,l),
(148,805,l)
);
}
);
width = 538;
}
);
note = emacron;
unicode = 275;
},
{
glyphname = Edotaccent;
kernRight = E;
layers = (
{
hints = (
{
horizontal = 1;
place = (0, 100);
place = (0, 100);
type = Stem;
},
{
horizontal = 1;
place = (320, 100);
place = (320, 100);
type = Stem;
},
{
horizontal = 1;
place = (614, 100);
place = (614, 100);
type = Stem;
},
{
place = (87, 107);
place = (87, 107);
type = Stem;
},
{
horizontal = 1;
place = (787, 109);
place = (787, 109);
type = Stem;
},
{
place = (236, 110);
place = (236, 110);
type = Stem;
}
);
layerId = m01;
shapes = (
{
closed = 1;
nodes = (
(194,100,l),
(194,320,l),
(410,320,l),
(410,420,l),
(194,420,l),
(194,614,l),
(488,614,l),
(488,714,l),
(87,714,l),
(87,0,l),
(488,0,l),
(488,100,l)
);
},
{
closed = 1;
nodes = (
(346,787,l),
(346,896,l),
(236,896,l),
(236,787,l)
);
}
);
width = 538;
}
);
note = Edotaccent;
unicode = 278;
},
{
glyphname = edotaccent;
kernRight = E;
layers = (
{
hints = (
{
horizontal = 1;
place = (0, 100);
place = (0, 100);
type = Stem;
},
{
horizontal = 1;
place = (320, 100);
place = (320, 100);
type = Stem;
},
{
horizontal = 1;
place = (614, 100);
place = (614, 100);
type = Stem;
},
{
place = (87, 107);
place = (87, 107);
type = Stem;
},
{
horizontal = 1;
place = (787, 109);
place = (787, 109);
type = Stem;
},
{
place = (236, 110);
place = (236, 110);
type = Stem;
}
);
layerId = m01;
shapes = (
{
closed = 1;
nodes = (
(194,100,l),
(194,320,l),
(410,320,l),
(410,420,l),
(194,420,l),
(194,614,l),
(488,614,l),
(488,714,l),
(87,714,l),
(87,0,l),
(488,0,l),
(488,100,l)
);
},
{
closed = 1;
nodes = (
(346,787,l),
(346,896,l),
(236,896,l),
(236,787,l)
);
}
);
width = 538;
}
);
note = edotaccent;
unicode = 279;
},
{
glyphname = Eogonek;
kernRight = E;
layers = (
{
hints = (
{
horizontal = 1;
place = (-200, 72);
place = (-200, 72);
type = Stem;
},
{
horizontal = 1;
place = (0, 100);
place = (0, 100);
type = Stem;
},
{
horizontal = 1;
place = (320, 100);
place = (320, 100);
type = Stem;
},
{
horizontal = 1;
place = (614, 100);
place = (614, 100);
type = Stem;
},
{
place = (87, 107);
place = (87, 107);
type = Stem;
},
{
place = (328, 82);
place = (328, 82);
type = Stem;
}
);
layerId = m01;
shapes = (
{
closed = 1;
nodes = (
(194,100,l),
(194,320,l),
(410,320,l),
(410,420,l),
(194,420,l),
(194,614,l),
(488,614,l),
(488,714,l),
(87,714,l),
(87,0,l),
(380,0,l),
(346,-25,o),
(328,-64,o),
(328,-99,cs),
(328,-169,o),
(377,-200,o),
(458,-200,cs),
(488,-200,l),
(488,-128,l),
(442,-128,o),
(416,-117,o),
(416,-83,cs),
(416,-56,o),
(436,-25,o),
(488,0,c),
(488,100,l)
);
}
);
width = 538;
}
);
note = Eogonek;
unicode = 280;
},
{
glyphname = eogonek;
kernRight = E;
layers = (
{
hints = (
{
horizontal = 1;
place = (-200, 72);
place = (-200, 72);
type = Stem;
},
{
horizontal = 1;
place = (0, 100);
place = (0, 100);
type = Stem;
},
{
horizontal = 1;
place = (320, 100);
place = (320, 100);
type = Stem;
},
{
horizontal = 1;
place = (614, 100);
place = (614, 100);
type = Stem;
},
{
place = (87, 107);
place = (87, 107);
type = Stem;
},
{
place = (328, 82);
place = (328, 82);
type = Stem;
}
);
layerId = m01;
shapes = (
{
closed = 1;
nodes = (
(194,100,l),
(194,320,l),
(410,320,l),
(410,420,l),
(194,420,l),
(194,614,l),
(488,614,l),
(488,714,l),
(87,714,l),
(87,0,l),
(380,0,l),
(346,-25,o),
(328,-64,o),
(328,-99,cs),
(328,-169,o),
(377,-200,o),
(458,-200,cs),
(488,-200,l),
(488,-128,l),
(442,-128,o),
(416,-117,o),
(416,-83,cs),
(416,-56,o),
(436,-25,o),
(488,0,c),
(488,100,l)
);
}
);
width = 538;
}
);
note = eogonek;
unicode = 281;
},
{
glyphname = Ecaron;
kernRight = E;
layers = (
{
hints = (
{
horizontal = 1;
place = (0, 100);
place = (0, 100);
type = Stem;
},
{
horizontal = 1;
place = (320, 100);
place = (320, 100);
type = Stem;
},
{
horizontal = 1;
place = (614, 100);
place = (614, 100);
type = Stem;
},
{
place = (87, 107);
place = (87, 107);
type = Stem;
},
{
horizontal = 1;
place = (767, 21);
target = up;
type = BottomGhost;
},
{
horizontal = 1;
place = (896, -20);
target = down;
type = TopGhost;
}
);
layerId = m01;
shapes = (
{
closed = 1;
nodes = (
(194,100,l),
(194,320,l),
(410,320,l),
(410,420,l),
(194,420,l),
(194,614,l),
(488,614,l),
(488,714,l),
(87,714,l),
(87,0,l),
(488,0,l),
(488,100,l)
);
},
{
closed = 1;
nodes = (
(470,896,l),
(363,896,l),
(303,825,l),
(275,825,l),
(215,896,l),
(110,896,l),
(216,767,l),
(364,767,l)
);
}
);
width = 538;
}
);
note = Ecaron;
unicode = 282;
},
{
glyphname = ecaron;
kernRight = E;
layers = (
{
hints = (
{
horizontal = 1;
place = (0, 100);
place = (0, 100);
type = Stem;
},
{
horizontal = 1;
place = (320, 100);
place = (320, 100);
type = Stem;
},
{
horizontal = 1;
place = (614, 100);
place = (614, 100);
type = Stem;
},
{
place = (87, 107);
place = (87, 107);
type = Stem;
},
{
horizontal = 1;
place = (767, 21);
target = up;
type = BottomGhost;
},
{
horizontal = 1;
place = (896, -20);
target = down;
type = TopGhost;
}
);
layerId = m01;
shapes = (
{
closed = 1;
nodes = (
(194,100,l),
(194,320,l),
(410,320,l),
(410,420,l),
(194,420,l),
(194,614,l),
(488,614,l),
(488,714,l),
(87,714,l),
(87,0,l),
(488,0,l),
(488,100,l)
);
},
{
closed = 1;
nodes = (
(470,896,l),
(363,896,l),
(303,825,l),
(275,825,l),
(215,896,l),
(110,896,l),
(216,767,l),
(364,767,l)
);
}
);
width = 538;
}
);
note = ecaron;
unicode = 283;
},
{
glyphname = uni0122;
kernLeft = zero;
kernRight = zero;
layers = (
{
hints = (
{
horizontal = 1;
place = (-13, 103);
place = (-13, 103);
type = Stem;
},
{
horizontal = 1;
place = (289, 100);
place = (289, 100);
type = Stem;
},
{
horizontal = 1;
place = (624, 103);
place = (624, 103);
type = Stem;
},
{
place = (55, 109);
place = (55, 109);
type = Stem;
},
{
place = (438, 108);
place = (438, 108);
type = Stem;
},
{
horizontal = 1;
place = (-221, 21);
target = up;
type = BottomGhost;
},
{
horizontal = 1;
place = (-141, 90);
place = (-141, 90);
type = Stem;
},
{
place = (255, 118);
place = (255, 118);
type = Stem;
}
);
layerId = m01;
shapes = (
{
closed = 1;
nodes = (
(55,138,o),
(128,-13,o),
(313,-13,cs),
(478,-13,o),
(546,106,o),
(546,308,cs),
(546,389,l),
(276,389,l),
(276,289,l),
(438,289,l),
(438,279,ls),
(438,178,o),
(423,90,o),
(308,90,cs),
(201,90,o),
(164,190,o),
(164,357,cs),
(164,524,o),
(201,624,o),
(308,624,cs),
(375,624,o),
(408,595,o),
(428,525,c),
(535,525,l),
(510,648,o),
(447,727,o),
(313,727,cs),
(128,727,o),
(55,577,o),
(55,357,cs)
);
},
{
closed = 1;
nodes = (
(303,-141,l),
(303,-160,l),
(250,-221,l),
(320,-221,l),
(373,-160,l),
(373,-51,l),
(255,-51,l),
(255,-141,l)
);
}
);
width = 601;
}
);
note = uni0122;
unicode = 290;
},
{
glyphname = uni0123;
kernLeft = zero;
kernRight = zero;
layers = (
{
hints = (
{
horizontal = 1;
place = (-13, 103);
place = (-13, 103);
type = Stem;
},
{
horizontal = 1;
place = (289, 100);
place = (289, 100);
type = Stem;
},
{
horizontal = 1;
place = (624, 103);
place = (624, 103);
type = Stem;
},
{
place = (55, 109);
place = (55, 109);
type = Stem;
},
{
place = (438, 108);
place = (438, 108);
type = Stem;
},
{
horizontal = 1;
place = (-221, 21);
target = up;
type = BottomGhost;
},
{
horizontal = 1;
place = (-141, 90);
place = (-141, 90);
type = Stem;
},
{
place = (255, 118);
place = (255, 118);
type = Stem;
}
);
layerId = m01;
shapes = (
{
closed = 1;
nodes = (
(55,138,o),
(128,-13,o),
(313,-13,cs),
(478,-13,o),
(546,106,o),
(546,308,cs),
(546,389,l),
(276,389,l),
(276,289,l),
(438,289,l),
(438,279,ls),
(438,178,o),
(423,90,o),
(308,90,cs),
(201,90,o),
(164,190,o),
(164,357,cs),
(164,524,o),
(201,624,o),
(308,624,cs),
(375,624,o),
(408,595,o),
(428,525,c),
(535,525,l),
(510,648,o),
(447,727,o),
(313,727,cs),
(128,727,o),
(55,577,o),
(55,357,cs)
);
},
{
closed = 1;
nodes = (
(303,-141,l),
(303,-160,l),
(250,-221,l),
(320,-221,l),
(373,-160,l),
(373,-51,l),
(255,-51,l),
(255,-141,l)
);
}
);
width = 601;
}
);
note = uni0123;
unicode = 291;
},
{
glyphname = Itilde;
layers = (
{
hints = (
{
horizontal = 1;
place = (0, 21);
target = up;
type = BottomGhost;
},
{
horizontal = 1;
place = (714, -20);
target = down;
type = TopGhost;
},
{
place = (87, 107);
place = (87, 107);
type = Stem;
},
{
horizontal = 1;
place = (818, 78);
place = (818, 78);
type = Stem;
},
{
place = (-23, 69);
place = (-23, 69);
type = Stem;
},
{
place = (235, 69);
place = (235, 69);
type = Stem;
},
{
horizontal = 1;
place = (767, 77);
place = (767, 77);
type = Stem;
}
);
layerId = m01;
shapes = (
{
closed = 1;
nodes = (
(194,714,l),
(87,714,l),
(87,0,l),
(194,0,l)
);
},
{
closed = 1;
nodes = (
(235,896,l),
(235,858,o),
(226,844,o),
(204,844,cs),
(169,844,o),
(139,896,o),
(74,896,cs),
(15,896,o),
(-23,856,o),
(-23,767,c),
(46,767,l),
(46,804,o),
(58,818,o),
(80,818,cs),
(115,818,o),
(142,767,o),
(208,767,cs),
(268,767,o),
(304,806,o),
(304,896,c)
);
}
);
width = 281;
}
);
note = Itilde;
unicode = 296;
},
{
glyphname = itilde;
layers = (
{
hints = (
{
horizontal = 1;
place = (0, 21);
target = up;
type = BottomGhost;
},
{
horizontal = 1;
place = (714, -20);
target = down;
type = TopGhost;
},
{
place = (87, 107);
place = (87, 107);
type = Stem;
},
{
horizontal = 1;
place = (818, 78);
place = (818, 78);
type = Stem;
},
{
place = (-23, 69);
place = (-23, 69);
type = Stem;
},
{
place = (235, 69);
place = (235, 69);
type = Stem;
},
{
horizontal = 1;
place = (767, 77);
place = (767, 77);
type = Stem;
}
);
layerId = m01;
shapes = (
{
closed = 1;
nodes = (
(194,714,l),
(87,714,l),
(87,0,l),
(194,0,l)
);
},
{
closed = 1;
nodes = (
(235,896,l),
(235,858,o),
(226,844,o),
(204,844,cs),
(169,844,o),
(139,896,o),
(74,896,cs),
(15,896,o),
(-23,856,o),
(-23,767,c),
(46,767,l),
(46,804,o),
(58,818,o),
(80,818,cs),
(115,818,o),
(142,767,o),
(208,767,cs),
(268,767,o),
(304,806,o),
(304,896,c)
);
}
);
width = 281;
}
);
note = itilde;
unicode = 297;
},
{
glyphname = Imacron;
layers = (
{
hints = (
{
horizontal = 1;
place = (0, 21);
target = up;
type = BottomGhost;
},
{
horizontal = 1;
place = (714, -20);
target = down;
type = TopGhost;
},
{
place = (87, 107);
place = (87, 107);
type = Stem;
},
{
horizontal = 1;
place = (805, 84);
place = (805, 84);
type = Stem;
}
);
layerId = m01;
shapes = (
{
closed = 1;
nodes = (
(194,714,l),
(87,714,l),
(87,0,l),
(194,0,l)
);
},
{
closed = 1;
nodes = (
(282,805,l),
(282,889,l),
(0,889,l),
(0,805,l)
);
}
);
width = 281;
}
);
note = Imacron;
unicode = 298;
},
{
glyphname = imacron;
layers = (
{
hints = (
{
horizontal = 1;
place = (0, 21);
target = up;
type = BottomGhost;
},
{
horizontal = 1;
place = (714, -20);
target = down;
type = TopGhost;
},
{
place = (87, 107);
place = (87, 107);
type = Stem;
},
{
horizontal = 1;
place = (805, 84);
place = (805, 84);
type = Stem;
}
);
layerId = m01;
shapes = (
{
closed = 1;
nodes = (
(194,714,l),
(87,714,l),
(87,0,l),
(194,0,l)
);
},
{
closed = 1;
nodes = (
(282,805,l),
(282,889,l),
(0,889,l),
(0,805,l)
);
}
);
width = 281;
}
);
note = imacron;
unicode = 299;
},
{
glyphname = Iogonek;
layers = (
{
hints = (
{
horizontal = 1;
place = (-200, 72);
place = (-200, 72);
type = Stem;
},
{
horizontal = 1;
place = (714, -20);
target = down;
type = TopGhost;
},
{
place = (87, 107);
place = (87, 107);
type = Stem;
},
{
place = (34, 88);
place = (34, 88);
type = Stem;
}
);
layerId = m01;
shapes = (
{
closed = 1;
nodes = (
(194,714,l),
(87,714,l),
(87,0,l),
(52,-24,o),
(34,-64,o),
(34,-99,cs),
(34,-169,o),
(83,-200,o),
(164,-200,cs),
(194,-200,l),
(194,-128,l),
(148,-128,o),
(122,-117,o),
(122,-83,cs),
(122,-56,o),
(142,-25,o),
(194,0,c)
);
}
);
width = 281;
}
);
note = Iogonek;
unicode = 302;
},
{
glyphname = iogonek;
layers = (
{
hints = (
{
horizontal = 1;
place = (-200, 72);
place = (-200, 72);
type = Stem;
},
{
horizontal = 1;
place = (714, -20);
target = down;
type = TopGhost;
},
{
place = (87, 107);
place = (87, 107);
type = Stem;
},
{
place = (34, 88);
place = (34, 88);
type = Stem;
}
);
layerId = m01;
shapes = (
{
closed = 1;
nodes = (
(194,714,l),
(87,714,l),
(87,0,l),
(52,-24,o),
(34,-64,o),
(34,-99,cs),
(34,-169,o),
(83,-200,o),
(164,-200,cs),
(194,-200,l),
(194,-128,l),
(148,-128,o),
(122,-117,o),
(122,-83,cs),
(122,-56,o),
(142,-25,o),
(194,0,c)
);
}
);
width = 281;
}
);
note = iogonek;
unicode = 303;
},
{
glyphname = dotlessi;
layers = (
{
hints = (
{
horizontal = 1;
place = (0, 21);
target = up;
type = BottomGhost;
},
{
horizontal = 1;
place = (714, -20);
target = down;
type = TopGhost;
},
{
place = (87, 107);
place = (87, 107);
type = Stem;
}
);
layerId = m01;
shapes = (
{
closed = 1;
nodes = (
(194,714,l),
(87,714,l),
(87,0,l),
(194,0,l)
);
}
);
width = 281;
}
);
note = dotlessi;
unicode = 305;
},
{
glyphname = uni0136;
kernRight = K;
layers = (
{
hints = (
{
horizontal = 1;
place = (0, 21);
target = up;
type = BottomGhost;
},
{
horizontal = 1;
place = (714, -20);
target = down;
type = TopGhost;
},
{
place = (87, 107);
place = (87, 107);
type = Stem;
},
{
horizontal = 1;
place = (-221, 21);
target = up;
type = BottomGhost;
},
{
horizontal = 1;
place = (-141, 90);
place = (-141, 90);
type = Stem;
},
{
place = (257, 118);
place = (257, 118);
type = Stem;
}
);
layerId = m01;
shapes = (
{
closed = 1;
nodes = (
(194,212,l),
(289,352,l),
(332,352,l),
(445,0,l),
(555,0,l),
(395,506,l),
(536,714,l),
(421,714,l),
(194,379,l),
(194,714,l),
(87,714,l),
(87,0,l),
(194,0,l)
);
},
{
closed = 1;
nodes = (
(305,-141,l),
(305,-160,l),
(252,-221,l),
(322,-221,l),
(375,-160,l),
(375,-51,l),
(257,-51,l),
(257,-141,l)
);
}
);
width = 575;
}
);
note = uni0136;
unicode = 310;
},
{
glyphname = uni0137;
kernRight = K;
layers = (
{
hints = (
{
horizontal = 1;
place = (0, 21);
target = up;
type = BottomGhost;
},
{
horizontal = 1;
place = (714, -20);
target = down;
type = TopGhost;
},
{
place = (87, 107);
place = (87, 107);
type = Stem;
},
{
horizontal = 1;
place = (-221, 21);
target = up;
type = BottomGhost;
},
{
horizontal = 1;
place = (-141, 90);
place = (-141, 90);
type = Stem;
},
{
place = (257, 118);
place = (257, 118);
type = Stem;
}
);
layerId = m01;
shapes = (
{
closed = 1;
nodes = (
(194,212,l),
(289,352,l),
(332,352,l),
(445,0,l),
(555,0,l),
(395,506,l),
(536,714,l),
(421,714,l),
(194,379,l),
(194,714,l),
(87,714,l),
(87,0,l),
(194,0,l)
);
},
{
closed = 1;
nodes = (
(305,-141,l),
(305,-160,l),
(252,-221,l),
(322,-221,l),
(375,-160,l),
(375,-51,l),
(257,-51,l),
(257,-141,l)
);
}
);
width = 575;
}
);
note = uni0137;
unicode = 311;
},
{
glyphname = kgreenlandic;
kernRight = K;
layers = (
{
hints = (
{
horizontal = 1;
place = (0, 21);
target = up;
type = BottomGhost;
},
{
horizontal = 1;
place = (714, -20);
target = down;
type = TopGhost;
},
{
place = (87, 107);
place = (87, 107);
type = Stem;
}
);
layerId = m01;
shapes = (
{
closed = 1;
nodes = (
(194,212,l),
(289,352,l),
(332,352,l),
(445,0,l),
(555,0,l),
(395,506,l),
(536,714,l),
(421,714,l),
(194,379,l),
(194,714,l),
(87,714,l),
(87,0,l),
(194,0,l)
);
}
);
width = 575;
}
);
note = kgreenlandic;
unicode = 312;
},
{
glyphname = Lacute;
kernRight = L;
layers = (
{
hints = (
{
horizontal = 1;
place = (0, 100);
place = (0, 100);
type = Stem;
},
{
horizontal = 1;
place = (714, -20);
target = down;
type = TopGhost;
},
{
place = (87, 107);
place = (87, 107);
type = Stem;
},
{
horizontal = 1;
place = (767, 129);
place = (767, 129);
type = Stem;
}
);
layerId = m01;
shapes = (
{
closed = 1;
nodes = (
(194,100,l),
(194,714,l),
(87,714,l),
(87,0,l),
(506,0,l),
(506,100,l)
);
},
{
closed = 1;
nodes = (
(306,896,l),
(176,896,l),
(91,767,l),
(197,767,l)
);
}
);
width = 526;
}
);
note = Lacute;
unicode = 313;
},
{
glyphname = lacute;
kernRight = L;
layers = (
{
hints = (
{
horizontal = 1;
place = (0, 100);
place = (0, 100);
type = Stem;
},
{
horizontal = 1;
place = (714, -20);
target = down;
type = TopGhost;
},
{
place = (87, 107);
place = (87, 107);
type = Stem;
},
{
horizontal = 1;
place = (767, 129);
place = (767, 129);
type = Stem;
}
);
layerId = m01;
shapes = (
{
closed = 1;
nodes = (
(194,100,l),
(194,714,l),
(87,714,l),
(87,0,l),
(506,0,l),
(506,100,l)
);
},
{
closed = 1;
nodes = (
(306,896,l),
(176,896,l),
(91,767,l),
(197,767,l)
);
}
);
width = 526;
}
);
note = lacute;
unicode = 314;
},
{
glyphname = uni013B;
kernRight = L;
layers = (
{
hints = (
{
horizontal = 1;
place = (0, 100);
place = (0, 100);
type = Stem;
},
{
horizontal = 1;
place = (714, -20);
target = down;
type = TopGhost;
},
{
place = (87, 107);
place = (87, 107);
type = Stem;
},
{
horizontal = 1;
place = (-221, 21);
target = up;
type = BottomGhost;
},
{
horizontal = 1;
place = (-141, 90);
place = (-141, 90);
type = Stem;
},
{
place = (240, 118);
place = (240, 118);
type = Stem;
}
);
layerId = m01;
shapes = (
{
closed = 1;
nodes = (
(194,100,l),
(194,714,l),
(87,714,l),
(87,0,l),
(506,0,l),
(506,100,l)
);
},
{
closed = 1;
nodes = (
(288,-141,l),
(288,-160,l),
(235,-221,l),
(305,-221,l),
(358,-160,l),
(358,-51,l),
(240,-51,l),
(240,-141,l)
);
}
);
width = 526;
}
);
note = uni013B;
unicode = 315;
},
{
glyphname = uni013C;
kernRight = L;
layers = (
{
hints = (
{
horizontal = 1;
place = (0, 100);
place = (0, 100);
type = Stem;
},
{
horizontal = 1;
place = (714, -20);
target = down;
type = TopGhost;
},
{
place = (87, 107);
place = (87, 107);
type = Stem;
},
{
horizontal = 1;
place = (-221, 21);
target = up;
type = BottomGhost;
},
{
horizontal = 1;
place = (-141, 90);
place = (-141, 90);
type = Stem;
},
{
place = (240, 118);
place = (240, 118);
type = Stem;
}
);
layerId = m01;
shapes = (
{
closed = 1;
nodes = (
(194,100,l),
(194,714,l),
(87,714,l),
(87,0,l),
(506,0,l),
(506,100,l)
);
},
{
closed = 1;
nodes = (
(288,-141,l),
(288,-160,l),
(235,-221,l),
(305,-221,l),
(358,-160,l),
(358,-51,l),
(240,-51,l),
(240,-141,l)
);
}
);
width = 526;
}
);
note = uni013C;
unicode = 316;
},
{
glyphname = Lcaron;
layers = (
{
hints = (
{
horizontal = 1;
place = (0, 100);
place = (0, 100);
type = Stem;
},
{
horizontal = 1;
place = (597, 117);
place = (597, 117);
type = Stem;
},
{
place = (87, 107);
place = (87, 107);
type = Stem;
},
{
place = (342, 124);
place = (342, 124);
type = Stem;
}
);
layerId = m01;
shapes = (
{
closed = 1;
nodes = (
(401,597,l),
(401,569,l),
(335,482,l),
(400,482,l),
(466,569,l),
(466,714,l),
(342,714,l),
(342,597,l)
);
},
{
closed = 1;
nodes = (
(194,100,l),
(194,714,l),
(87,714,l),
(87,0,l),
(506,0,l),
(506,100,l)
);
}
);
width = 526;
}
);
note = Lcaron;
unicode = 317;
},
{
glyphname = lcaron;
layers = (
{
hints = (
{
horizontal = 1;
place = (0, 100);
place = (0, 100);
type = Stem;
},
{
horizontal = 1;
place = (597, 117);
place = (597, 117);
type = Stem;
},
{
place = (87, 107);
place = (87, 107);
type = Stem;
},
{
place = (342, 124);
place = (342, 124);
type = Stem;
}
);
layerId = m01;
shapes = (
{
closed = 1;
nodes = (
(401,597,l),
(401,569,l),
(335,482,l),
(400,482,l),
(466,569,l),
(466,714,l),
(342,714,l),
(342,597,l)
);
},
{
closed = 1;
nodes = (
(194,100,l),
(194,714,l),
(87,714,l),
(87,0,l),
(506,0,l),
(506,100,l)
);
}
);
width = 526;
}
);
note = lcaron;
unicode = 318;
},
{
glyphname = Lslash;
kernRight = L;
layers = (
{
hints = (
{
horizontal = 1;
place = (0, 100);
place = (0, 100);
type = Stem;
},
{
horizontal = 1;
place = (714, -20);
target = down;
type = TopGhost;
},
{
place = (87, 107);
place = (87, 107);
type = Stem;
}
);
layerId = m01;
shapes = (
{
closed = 1;
nodes = (
(194,100,l),
(194,331,l),
(378,406,l),
(378,503,l),
(194,429,l),
(194,714,l),
(87,714,l),
(87,386,l),
(25,361,l),
(25,263,l),
(87,288,l),
(87,0,l),
(506,0,l),
(506,100,l)
);
}
);
width = 526;
}
);
note = Lslash;
unicode = 321;
},
{
glyphname = lslash;
kernRight = L;
layers = (
{
hints = (
{
horizontal = 1;
place = (0, 100);
place = (0, 100);
type = Stem;
},
{
horizontal = 1;
place = (714, -20);
target = down;
type = TopGhost;
},
{
place = (87, 107);
place = (87, 107);
type = Stem;
}
);
layerId = m01;
shapes = (
{
closed = 1;
nodes = (
(194,100,l),
(194,331,l),
(378,406,l),
(378,503,l),
(194,429,l),
(194,714,l),
(87,714,l),
(87,386,l),
(25,361,l),
(25,263,l),
(87,288,l),
(87,0,l),
(506,0,l),
(506,100,l)
);
}
);
width = 526;
}
);
note = lslash;
unicode = 322;
},
{
glyphname = Nacute;
layers = (
{
hints = (
{
horizontal = 1;
place = (767, 129);
place = (767, 129);
type = Stem;
},
{
horizontal = 1;
place = (0, 21);
target = up;
type = BottomGhost;
},
{
horizontal = 1;
place = (714, -20);
target = down;
type = TopGhost;
},
{
place = (87, 103);
place = (87, 103);
type = Stem;
},
{
place = (456, 103);
place = (456, 103);
type = Stem;
}
);
layerId = m01;
shapes = (
{
closed = 1;
nodes = (
(471,896,l),
(341,896,l),
(256,767,l),
(362,767,l)
);
},
{
closed = 1;
nodes = (
(456,714,l),
(456,110,l),
(428,110,l),
(297,714,l),
(87,714,l),
(87,0,l),
(190,0,l),
(190,604,l),
(218,604,l),
(349,0,l),
(559,0,l),
(559,714,l)
);
}
);
width = 646;
}
);
note = Nacute;
unicode = 323;
},
{
glyphname = nacute;
layers = (
{
hints = (
{
horizontal = 1;
place = (767, 129);
place = (767, 129);
type = Stem;
},
{
horizontal = 1;
place = (0, 21);
target = up;
type = BottomGhost;
},
{
horizontal = 1;
place = (714, -20);
target = down;
type = TopGhost;
},
{
place = (87, 103);
place = (87, 103);
type = Stem;
},
{
place = (456, 103);
place = (456, 103);
type = Stem;
}
);
layerId = m01;
shapes = (
{
closed = 1;
nodes = (
(471,896,l),
(341,896,l),
(256,767,l),
(362,767,l)
);
},
{
closed = 1;
nodes = (
(456,714,l),
(456,110,l),
(428,110,l),
(297,714,l),
(87,714,l),
(87,0,l),
(190,0,l),
(190,604,l),
(218,604,l),
(349,0,l),
(559,0,l),
(559,714,l)
);
}
);
width = 646;
}
);
note = nacute;
unicode = 324;
},
{
glyphname = uni0145;
layers = (
{
hints = (
{
horizontal = 1;
place = (-221, 21);
target = up;
type = BottomGhost;
},
{
horizontal = 1;
place = (-141, 90);
place = (-141, 90);
type = Stem;
},
{
place = (266, 118);
place = (266, 118);
type = Stem;
},
{
horizontal = 1;
place = (0, 21);
target = up;
type = BottomGhost;
},
{
horizontal = 1;
place = (714, -20);
target = down;
type = TopGhost;
},
{
place = (87, 103);
place = (87, 103);
type = Stem;
},
{
place = (456, 103);
place = (456, 103);
type = Stem;
}
);
layerId = m01;
shapes = (
{
closed = 1;
nodes = (
(314,-141,l),
(314,-160,l),
(261,-221,l),
(331,-221,l),
(384,-160,l),
(384,-51,l),
(266,-51,l),
(266,-141,l)
);
},
{
closed = 1;
nodes = (
(456,714,l),
(456,110,l),
(428,110,l),
(297,714,l),
(87,714,l),
(87,0,l),
(190,0,l),
(190,604,l),
(218,604,l),
(349,0,l),
(559,0,l),
(559,714,l)
);
}
);
width = 646;
}
);
note = uni0145;
unicode = 325;
},
{
glyphname = uni0146;
layers = (
{
hints = (
{
horizontal = 1;
place = (-221, 21);
target = up;
type = BottomGhost;
},
{
horizontal = 1;
place = (-141, 90);
place = (-141, 90);
type = Stem;
},
{
place = (266, 118);
place = (266, 118);
type = Stem;
},
{
horizontal = 1;
place = (0, 21);
target = up;
type = BottomGhost;
},
{
horizontal = 1;
place = (714, -20);
target = down;
type = TopGhost;
},
{
place = (87, 103);
place = (87, 103);
type = Stem;
},
{
place = (456, 103);
place = (456, 103);
type = Stem;
}
);
layerId = m01;
shapes = (
{
closed = 1;
nodes = (
(314,-141,l),
(314,-160,l),
(261,-221,l),
(331,-221,l),
(384,-160,l),
(384,-51,l),
(266,-51,l),
(266,-141,l)
);
},
{
closed = 1;
nodes = (
(456,714,l),
(456,110,l),
(428,110,l),
(297,714,l),
(87,714,l),
(87,0,l),
(190,0,l),
(190,604,l),
(218,604,l),
(349,0,l),
(559,0,l),
(559,714,l)
);
}
);
width = 646;
}
);
note = uni0146;
unicode = 326;
},
{
glyphname = Ncaron;
layers = (
{
hints = (
{
horizontal = 1;
place = (767, 21);
target = up;
type = BottomGhost;
},
{
horizontal = 1;
place = (896, -20);
target = down;
type = TopGhost;
},
{
horizontal = 1;
place = (0, 21);
target = up;
type = BottomGhost;
},
{
horizontal = 1;
place = (714, -20);
target = down;
type = TopGhost;
},
{
place = (87, 103);
place = (87, 103);
type = Stem;
},
{
place = (456, 103);
place = (456, 103);
type = Stem;
}
);
layerId = m01;
shapes = (
{
closed = 1;
nodes = (
(509,896,l),
(402,896,l),
(342,825,l),
(314,825,l),
(254,896,l),
(149,896,l),
(255,767,l),
(403,767,l)
);
},
{
closed = 1;
nodes = (
(456,714,l),
(456,110,l),
(428,110,l),
(297,714,l),
(87,714,l),
(87,0,l),
(190,0,l),
(190,604,l),
(218,604,l),
(349,0,l),
(559,0,l),
(559,714,l)
);
}
);
width = 646;
}
);
note = Ncaron;
unicode = 327;
},
{
glyphname = ncaron;
layers = (
{
hints = (
{
horizontal = 1;
place = (767, 21);
target = up;
type = BottomGhost;
},
{
horizontal = 1;
place = (896, -20);
target = down;
type = TopGhost;
},
{
horizontal = 1;
place = (0, 21);
target = up;
type = BottomGhost;
},
{
horizontal = 1;
place = (714, -20);
target = down;
type = TopGhost;
},
{
place = (87, 103);
place = (87, 103);
type = Stem;
},
{
place = (456, 103);
place = (456, 103);
type = Stem;
}
);
layerId = m01;
shapes = (
{
closed = 1;
nodes = (
(509,896,l),
(402,896,l),
(342,825,l),
(314,825,l),
(254,896,l),
(149,896,l),
(255,767,l),
(403,767,l)
);
},
{
closed = 1;
nodes = (
(456,714,l),
(456,110,l),
(428,110,l),
(297,714,l),
(87,714,l),
(87,0,l),
(190,0,l),
(190,604,l),
(218,604,l),
(349,0,l),
(559,0,l),
(559,714,l)
);
}
);
width = 646;
}
);
note = ncaron;
unicode = 328;
},
{
glyphname = Eng;
layers = (
{
hints = (
{
horizontal = 1;
place = (-200, 104);
place = (-200, 104);
type = Stem;
},
{
horizontal = 1;
place = (0, 21);
target = up;
type = BottomGhost;
},
{
horizontal = 1;
place = (714, -20);
target = down;
type = TopGhost;
},
{
place = (87, 103);
place = (87, 103);
type = Stem;
},
{
place = (456, 103);
place = (456, 103);
type = Stem;
}
);
layerId = m01;
shapes = (
{
closed = 1;
nodes = (
(452,0,l),
(452,-68,o),
(421,-96,o),
(366,-96,c),
(366,-200,l),
(490,-200,o),
(559,-125,o),
(559,5,cs),
(559,714,l),
(456,714,l),
(456,110,l),
(428,110,l),
(297,714,l),
(87,714,l),
(87,0,l),
(190,0,l),
(190,604,l),
(218,604,l),
(349,0,l)
);
}
);
width = 646;
}
);
note = Eng;
unicode = 330;
},
{
glyphname = eng;
layers = (
{
hints = (
{
horizontal = 1;
place = (-200, 104);
place = (-200, 104);
type = Stem;
},
{
horizontal = 1;
place = (0, 21);
target = up;
type = BottomGhost;
},
{
horizontal = 1;
place = (714, -20);
target = down;
type = TopGhost;
},
{
place = (87, 103);
place = (87, 103);
type = Stem;
},
{
place = (456, 103);
place = (456, 103);
type = Stem;
}
);
layerId = m01;
shapes = (
{
closed = 1;
nodes = (
(452,0,l),
(452,-68,o),
(421,-96,o),
(366,-96,c),
(366,-200,l),
(490,-200,o),
(559,-125,o),
(559,5,cs),
(559,714,l),
(456,714,l),
(456,110,l),
(428,110,l),
(297,714,l),
(87,714,l),
(87,0,l),
(190,0,l),
(190,604,l),
(218,604,l),
(349,0,l)
);
}
);
width = 646;
}
);
note = eng;
unicode = 331;
},
{
glyphname = Omacron;
kernLeft = zero;
kernRight = zero;
layers = (
{
hints = (
{
horizontal = 1;
place = (-13, 103);
place = (-13, 103);
type = Stem;
},
{
horizontal = 1;
place = (624, 103);
place = (624, 103);
type = Stem;
},
{
place = (55, 109);
place = (55, 109);
type = Stem;
},
{
place = (450, 109);
place = (450, 109);
type = Stem;
},
{
horizontal = 1;
place = (805, 84);
place = (805, 84);
type = Stem;
}
);
layerId = m01;
shapes = (
{
closed = 1;
nodes = (
(124,727,o),
(55,573,o),
(55,357,cs),
(55,142,o),
(124,-13,o),
(307,-13,cs),
(490,-13,o),
(559,142,o),
(559,357,cs),
(559,573,o),
(490,727,o),
(307,727,cs)
);
},
{
closed = 1;
nodes = (
(195,90,o),
(164,194,o),
(164,357,cs),
(164,520,o),
(195,624,o),
(307,624,cs),
(419,624,o),
(450,520,o),
(450,357,cs),
(450,194,o),
(419,90,o),
(307,90,cs)
);
},
{
closed = 1;
nodes = (
(448,805,l),
(448,889,l),
(166,889,l),
(166,805,l)
);
}
);
width = 614;
}
);
note = Omacron;
unicode = 332;
},
{
glyphname = omacron;
kernLeft = zero;
kernRight = zero;
layers = (
{
hints = (
{
horizontal = 1;
place = (-13, 103);
place = (-13, 103);
type = Stem;
},
{
horizontal = 1;
place = (624, 103);
place = (624, 103);
type = Stem;
},
{
place = (55, 109);
place = (55, 109);
type = Stem;
},
{
place = (450, 109);
place = (450, 109);
type = Stem;
},
{
horizontal = 1;
place = (805, 84);
place = (805, 84);
type = Stem;
}
);
layerId = m01;
shapes = (
{
closed = 1;
nodes = (
(124,727,o),
(55,573,o),
(55,357,cs),
(55,142,o),
(124,-13,o),
(307,-13,cs),
(490,-13,o),
(559,142,o),
(559,357,cs),
(559,573,o),
(490,727,o),
(307,727,cs)
);
},
{
closed = 1;
nodes = (
(195,90,o),
(164,194,o),
(164,357,cs),
(164,520,o),
(195,624,o),
(307,624,cs),
(419,624,o),
(450,520,o),
(450,357,cs),
(450,194,o),
(419,90,o),
(307,90,cs)
);
},
{
closed = 1;
nodes = (
(448,805,l),
(448,889,l),
(166,889,l),
(166,805,l)
);
}
);
width = 614;
}
);
note = omacron;
unicode = 333;
},
{
glyphname = Ohungarumlaut;
kernLeft = zero;
kernRight = zero;
layers = (
{
hints = (
{
horizontal = 1;
place = (-13, 103);
place = (-13, 103);
type = Stem;
},
{
horizontal = 1;
place = (624, 103);
place = (624, 103);
type = Stem;
},
{
place = (55, 109);
place = (55, 109);
type = Stem;
},
{
place = (450, 109);
place = (450, 109);
type = Stem;
},
{
horizontal = 1;
place = (767, 129);
place = (767, 129);
type = Stem;
}
);
layerId = m01;
shapes = (
{
closed = 1;
nodes = (
(124,727,o),
(55,573,o),
(55,357,cs),
(55,142,o),
(124,-13,o),
(307,-13,cs),
(490,-13,o),
(559,142,o),
(559,357,cs),
(559,573,o),
(490,727,o),
(307,727,cs)
);
},
{
closed = 1;
nodes = (
(195,90,o),
(164,194,o),
(164,357,cs),
(164,520,o),
(195,624,o),
(307,624,cs),
(419,624,o),
(450,520,o),
(450,357,cs),
(450,194,o),
(419,90,o),
(307,90,cs)
);
},
{
closed = 1;
nodes = (
(358,896,l),
(244,896,l),
(167,767,l),
(259,767,l)
);
},
{
closed = 1;
nodes = (
(534,896,l),
(420,896,l),
(343,767,l),
(434,767,l)
);
}
);
width = 614;
}
);
note = Ohungarumlaut;
unicode = 336;
},
{
glyphname = ohungarumlaut;
kernLeft = zero;
kernRight = zero;
layers = (
{
hints = (
{
horizontal = 1;
place = (-13, 103);
place = (-13, 103);
type = Stem;
},
{
horizontal = 1;
place = (624, 103);
place = (624, 103);
type = Stem;
},
{
place = (55, 109);
place = (55, 109);
type = Stem;
},
{
place = (450, 109);
place = (450, 109);
type = Stem;
},
{
horizontal = 1;
place = (767, 129);
place = (767, 129);
type = Stem;
}
);
layerId = m01;
shapes = (
{
closed = 1;
nodes = (
(124,727,o),
(55,573,o),
(55,357,cs),
(55,142,o),
(124,-13,o),
(307,-13,cs),
(490,-13,o),
(559,142,o),
(559,357,cs),
(559,573,o),
(490,727,o),
(307,727,cs)
);
},
{
closed = 1;
nodes = (
(195,90,o),
(164,194,o),
(164,357,cs),
(164,520,o),
(195,624,o),
(307,624,cs),
(419,624,o),
(450,520,o),
(450,357,cs),
(450,194,o),
(419,90,o),
(307,90,cs)
);
},
{
closed = 1;
nodes = (
(358,896,l),
(244,896,l),
(167,767,l),
(259,767,l)
);
},
{
closed = 1;
nodes = (
(534,896,l),
(420,896,l),
(343,767,l),
(434,767,l)
);
}
);
width = 614;
}
);
note = ohungarumlaut;
unicode = 337;
},
{
glyphname = OE;
kernLeft = zero;
kernRight = E;
layers = (
{
hints = (
{
horizontal = 1;
place = (-13, 95);
place = (-13, 95);
type = Stem;
},
{
horizontal = 1;
place = (320, 100);
place = (320, 100);
type = Stem;
},
{
horizontal = 1;
place = (614, 100);
place = (614, 100);
type = Stem;
},
{
place = (55, 109);
place = (55, 109);
type = Stem;
},
{
place = (366, 107);
place = (366, 107);
type = Stem;
},
{
horizontal = 1;
place = (614, 113);
place = (614, 113);
type = Stem;
}
);
layerId = m01;
shapes = (
{
closed = 1;
nodes = (
(473,82,l),
(473,320,l),
(629,320,l),
(629,420,l),
(473,420,l),
(473,614,l),
(688,614,l),
(688,714,l),
(366,714,l),
(366,679,l),
(338,679,l),
(320,710,o),
(285,727,o),
(241,727,cs),
(110,727,o),
(55,592,o),
(55,357,cs),
(55,121,o),
(110,-13,o),
(241,-13,cs),
(283,-13,o),
(318,3,o),
(338,32,c),
(366,32,l),
(366,0,l),
(688,0,l),
(688,82,l)
);
},
{
closed = 1;
nodes = (
(183,90,o),
(164,198,o),
(164,357,cs),
(164,516,o),
(183,624,o),
(266,624,cs),
(345,624,o),
(366,510,o),
(366,357,cs),
(366,204,o),
(345,90,o),
(266,90,cs)
);
}
);
width = 738;
}
);
note = OE;
unicode = 338;
},
{
glyphname = oe;
kernLeft = zero;
kernRight = E;
layers = (
{
hints = (
{
horizontal = 1;
place = (-13, 95);
place = (-13, 95);
type = Stem;
},
{
horizontal = 1;
place = (320, 100);
place = (320, 100);
type = Stem;
},
{
horizontal = 1;
place = (614, 100);
place = (614, 100);
type = Stem;
},
{
place = (55, 109);
place = (55, 109);
type = Stem;
},
{
place = (366, 107);
place = (366, 107);
type = Stem;
},
{
horizontal = 1;
place = (614, 113);
place = (614, 113);
type = Stem;
}
);
layerId = m01;
shapes = (
{
closed = 1;
nodes = (
(473,82,l),
(473,320,l),
(629,320,l),
(629,420,l),
(473,420,l),
(473,614,l),
(688,614,l),
(688,714,l),
(366,714,l),
(366,679,l),
(338,679,l),
(320,710,o),
(285,727,o),
(241,727,cs),
(110,727,o),
(55,592,o),
(55,357,cs),
(55,121,o),
(110,-13,o),
(241,-13,cs),
(283,-13,o),
(318,3,o),
(338,32,c),
(366,32,l),
(366,0,l),
(688,0,l),
(688,82,l)
);
},
{
closed = 1;
nodes = (
(183,90,o),
(164,198,o),
(164,357,cs),
(164,516,o),
(183,624,o),
(266,624,cs),
(345,624,o),
(366,510,o),
(366,357,cs),
(366,204,o),
(345,90,o),
(266,90,cs)
);
}
);
width = 738;
}
);
note = oe;
unicode = 339;
},
{
glyphname = Racute;
kernRight = R;
layers = (
{
hints = (
{
horizontal = 1;
place = (0, 21);
target = up;
type = BottomGhost;
},
{
horizontal = 1;
place = (304, 100);
place = (304, 100);
type = Stem;
},
{
horizontal = 1;
place = (614, 100);
place = (614, 100);
type = Stem;
},
{
place = (87, 107);
place = (87, 107);
type = Stem;
},
{
place = (428, 108);
place = (428, 108);
type = Stem;
},
{
horizontal = 1;
place = (767, 129);
place = (767, 129);
type = Stem;
}
);
layerId = m01;
shapes = (
{
closed = 1;
nodes = (
(308,304,ls),
(321,304,o),
(334,304,o),
(346,306,c),
(435,0,l),
(548,0,l),
(448,337,l),
(505,372,o),
(536,432,o),
(536,509,cs),
(536,636,o),
(455,714,o),
(308,714,cs),
(87,714,l),
(87,0,l),
(194,0,l),
(194,304,l)
);
},
{
closed = 1;
nodes = (
(194,404,l),
(194,614,l),
(295,614,ls),
(393,614,o),
(428,575,o),
(428,509,cs),
(428,443,o),
(393,404,o),
(295,404,cs)
);
},
{
closed = 1;
nodes = (
(441,896,l),
(311,896,l),
(226,767,l),
(332,767,l)
);
}
);
width = 603;
}
);
note = Racute;
unicode = 340;
},
{
glyphname = racute;
kernRight = R;
layers = (
{
hints = (
{
horizontal = 1;
place = (0, 21);
target = up;
type = BottomGhost;
},
{
horizontal = 1;
place = (304, 100);
place = (304, 100);
type = Stem;
},
{
horizontal = 1;
place = (614, 100);
place = (614, 100);
type = Stem;
},
{
place = (87, 107);
place = (87, 107);
type = Stem;
},
{
place = (428, 108);
place = (428, 108);
type = Stem;
},
{
horizontal = 1;
place = (767, 129);
place = (767, 129);
type = Stem;
}
);
layerId = m01;
shapes = (
{
closed = 1;
nodes = (
(308,304,ls),
(321,304,o),
(334,304,o),
(346,306,c),
(435,0,l),
(548,0,l),
(448,337,l),
(505,372,o),
(536,432,o),
(536,509,cs),
(536,636,o),
(455,714,o),
(308,714,cs),
(87,714,l),
(87,0,l),
(194,0,l),
(194,304,l)
);
},
{
closed = 1;
nodes = (
(194,404,l),
(194,614,l),
(295,614,ls),
(393,614,o),
(428,575,o),
(428,509,cs),
(428,443,o),
(393,404,o),
(295,404,cs)
);
},
{
closed = 1;
nodes = (
(441,896,l),
(311,896,l),
(226,767,l),
(332,767,l)
);
}
);
width = 603;
}
);
note = racute;
unicode = 341;
},
{
glyphname = uni0156;
kernRight = R;
layers = (
{
hints = (
{
horizontal = 1;
place = (0, 21);
target = up;
type = BottomGhost;
},
{
horizontal = 1;
place = (304, 100);
place = (304, 100);
type = Stem;
},
{
horizontal = 1;
place = (614, 100);
place = (614, 100);
type = Stem;
},
{
place = (87, 107);
place = (87, 107);
type = Stem;
},
{
place = (428, 108);
place = (428, 108);
type = Stem;
},
{
horizontal = 1;
place = (-221, 21);
target = up;
type = BottomGhost;
},
{
horizontal = 1;
place = (-141, 90);
place = (-141, 90);
type = Stem;
},
{
place = (255, 118);
place = (255, 118);
type = Stem;
}
);
layerId = m01;
shapes = (
{
closed = 1;
nodes = (
(308,304,ls),
(321,304,o),
(334,304,o),
(346,306,c),
(435,0,l),
(548,0,l),
(448,337,l),
(505,372,o),
(536,432,o),
(536,509,cs),
(536,636,o),
(455,714,o),
(308,714,cs),
(87,714,l),
(87,0,l),
(194,0,l),
(194,304,l)
);
},
{
closed = 1;
nodes = (
(194,404,l),
(194,614,l),
(295,614,ls),
(393,614,o),
(428,575,o),
(428,509,cs),
(428,443,o),
(393,404,o),
(295,404,cs)
);
},
{
closed = 1;
nodes = (
(303,-141,l),
(303,-160,l),
(250,-221,l),
(320,-221,l),
(373,-160,l),
(373,-51,l),
(255,-51,l),
(255,-141,l)
);
}
);
width = 603;
}
);
note = uni0156;
unicode = 342;
},
{
glyphname = uni0157;
kernRight = R;
layers = (
{
hints = (
{
horizontal = 1;
place = (0, 21);
target = up;
type = BottomGhost;
},
{
horizontal = 1;
place = (304, 100);
place = (304, 100);
type = Stem;
},
{
horizontal = 1;
place = (614, 100);
place = (614, 100);
type = Stem;
},
{
place = (87, 107);
place = (87, 107);
type = Stem;
},
{
place = (428, 108);
place = (428, 108);
type = Stem;
},
{
horizontal = 1;
place = (-221, 21);
target = up;
type = BottomGhost;
},
{
horizontal = 1;
place = (-141, 90);
place = (-141, 90);
type = Stem;
},
{
place = (255, 118);
place = (255, 118);
type = Stem;
}
);
layerId = m01;
shapes = (
{
closed = 1;
nodes = (
(308,304,ls),
(321,304,o),
(334,304,o),
(346,306,c),
(435,0,l),
(548,0,l),
(448,337,l),
(505,372,o),
(536,432,o),
(536,509,cs),
(536,636,o),
(455,714,o),
(308,714,cs),
(87,714,l),
(87,0,l),
(194,0,l),
(194,304,l)
);
},
{
closed = 1;
nodes = (
(194,404,l),
(194,614,l),
(295,614,ls),
(393,614,o),
(428,575,o),
(428,509,cs),
(428,443,o),
(393,404,o),
(295,404,cs)
);
},
{
closed = 1;
nodes = (
(303,-141,l),
(303,-160,l),
(250,-221,l),
(320,-221,l),
(373,-160,l),
(373,-51,l),
(255,-51,l),
(255,-141,l)
);
}
);
width = 603;
}
);
note = uni0157;
unicode = 343;
},
{
glyphname = Rcaron;
kernRight = R;
layers = (
{
hints = (
{
horizontal = 1;
place = (0, 21);
target = up;
type = BottomGhost;
},
{
horizontal = 1;
place = (304, 100);
place = (304, 100);
type = Stem;
},
{
horizontal = 1;
place = (614, 100);
place = (614, 100);
type = Stem;
},
{
place = (87, 107);
place = (87, 107);
type = Stem;
},
{
place = (428, 108);
place = (428, 108);
type = Stem;
},
{
horizontal = 1;
place = (767, 21);
target = up;
type = BottomGhost;
},
{
horizontal = 1;
place = (896, -20);
target = down;
type = TopGhost;
}
);
layerId = m01;
shapes = (
{
closed = 1;
nodes = (
(308,304,ls),
(321,304,o),
(334,304,o),
(346,306,c),
(435,0,l),
(548,0,l),
(448,337,l),
(505,372,o),
(536,432,o),
(536,509,cs),
(536,636,o),
(455,714,o),
(308,714,cs),
(87,714,l),
(87,0,l),
(194,0,l),
(194,304,l)
);
},
{
closed = 1;
nodes = (
(194,404,l),
(194,614,l),
(295,614,ls),
(393,614,o),
(428,575,o),
(428,509,cs),
(428,443,o),
(393,404,o),
(295,404,cs)
);
},
{
closed = 1;
nodes = (
(485,896,l),
(378,896,l),
(318,825,l),
(290,825,l),
(230,896,l),
(125,896,l),
(231,767,l),
(379,767,l)
);
}
);
width = 603;
}
);
note = Rcaron;
unicode = 344;
},
{
glyphname = rcaron;
kernRight = R;
layers = (
{
hints = (
{
horizontal = 1;
place = (0, 21);
target = up;
type = BottomGhost;
},
{
horizontal = 1;
place = (304, 100);
place = (304, 100);
type = Stem;
},
{
horizontal = 1;
place = (614, 100);
place = (614, 100);
type = Stem;
},
{
place = (87, 107);
place = (87, 107);
type = Stem;
},
{
place = (428, 108);
place = (428, 108);
type = Stem;
},
{
horizontal = 1;
place = (767, 21);
target = up;
type = BottomGhost;
},
{
horizontal = 1;
place = (896, -20);
target = down;
type = TopGhost;
}
);
layerId = m01;
shapes = (
{
closed = 1;
nodes = (
(308,304,ls),
(321,304,o),
(334,304,o),
(346,306,c),
(435,0,l),
(548,0,l),
(448,337,l),
(505,372,o),
(536,432,o),
(536,509,cs),
(536,636,o),
(455,714,o),
(308,714,cs),
(87,714,l),
(87,0,l),
(194,0,l),
(194,304,l)
);
},
{
closed = 1;
nodes = (
(194,404,l),
(194,614,l),
(295,614,ls),
(393,614,o),
(428,575,o),
(428,509,cs),
(428,443,o),
(393,404,o),
(295,404,cs)
);
},
{
closed = 1;
nodes = (
(485,896,l),
(378,896,l),
(318,825,l),
(290,825,l),
(230,896,l),
(125,896,l),
(231,767,l),
(379,767,l)
);
}
);
width = 603;
}
);
note = rcaron;
unicode = 345;
},
{
glyphname = Sacute;
kernLeft = dollar;
kernRight = dollar;
layers = (
{
hints = (
{
horizontal = 1;
place = (-13, 104);
place = (-13, 104);
type = Stem;
},
{
horizontal = 1;
place = (623, 104);
place = (623, 104);
type = Stem;
},
{
place = (67, 109);
place = (67, 109);
type = Stem;
},
{
place = (413, 109);
place = (413, 109);
type = Stem;
},
{
horizontal = 1;
place = (767, 129);
place = (767, 129);
type = Stem;
}
);
layerId = m01;
shapes = (
{
closed = 1;
nodes = (
(512,528,l),
(496,646,o),
(428,727,o),
(284,727,cs),
(133,727,o),
(67,638,o),
(67,531,cs),
(67,419,o),
(133,381,o),
(221,344,cs),
(323,301,ls),
(388,274,o),
(413,250,o),
(413,194,cs),
(413,138,o),
(372,91,o),
(296,91,cs),
(230,91,o),
(170,114,o),
(155,205,c),
(47,205,l),
(58,81,o),
(136,-13,o),
(290,-13,cs),
(459,-13,o),
(522,92,o),
(522,201,cs),
(522,318,o),
(454,362,o),
(358,403,cs),
(256,446,ls),
(197,471,o),
(176,489,o),
(176,538,cs),
(176,589,o),
(214,623,o),
(280,623,cs),
(350,623,o),
(387,597,o),
(404,528,c)
);
},
{
closed = 1;
nodes = (
(442,896,l),
(312,896,l),
(227,767,l),
(333,767,l)
);
}
);
width = 579;
}
);
note = Sacute;
unicode = 346;
},
{
glyphname = sacute;
kernLeft = dollar;
kernRight = dollar;
layers = (
{
hints = (
{
horizontal = 1;
place = (-13, 104);
place = (-13, 104);
type = Stem;
},
{
horizontal = 1;
place = (623, 104);
place = (623, 104);
type = Stem;
},
{
place = (67, 109);
place = (67, 109);
type = Stem;
},
{
place = (413, 109);
place = (413, 109);
type = Stem;
},
{
horizontal = 1;
place = (767, 129);
place = (767, 129);
type = Stem;
}
);
layerId = m01;
shapes = (
{
closed = 1;
nodes = (
(512,528,l),
(496,646,o),
(428,727,o),
(284,727,cs),
(133,727,o),
(67,638,o),
(67,531,cs),
(67,419,o),
(133,381,o),
(221,344,cs),
(323,301,ls),
(388,274,o),
(413,250,o),
(413,194,cs),
(413,138,o),
(372,91,o),
(296,91,cs),
(230,91,o),
(170,114,o),
(155,205,c),
(47,205,l),
(58,81,o),
(136,-13,o),
(290,-13,cs),
(459,-13,o),
(522,92,o),
(522,201,cs),
(522,318,o),
(454,362,o),
(358,403,cs),
(256,446,ls),
(197,471,o),
(176,489,o),
(176,538,cs),
(176,589,o),
(214,623,o),
(280,623,cs),
(350,623,o),
(387,597,o),
(404,528,c)
);
},
{
closed = 1;
nodes = (
(442,896,l),
(312,896,l),
(227,767,l),
(333,767,l)
);
}
);
width = 579;
}
);
note = sacute;
unicode = 347;
},
{
glyphname = Scaron;
kernLeft = dollar;
kernRight = dollar;
layers = (
{
hints = (
{
horizontal = 1;
place = (-13, 104);
place = (-13, 104);
type = Stem;
},
{
horizontal = 1;
place = (623, 104);
place = (623, 104);
type = Stem;
},
{
place = (67, 109);
place = (67, 109);
type = Stem;
},
{
place = (413, 109);
place = (413, 109);
type = Stem;
},
{
horizontal = 1;
place = (767, 21);
target = up;
type = BottomGhost;
},
{
horizontal = 1;
place = (896, -20);
target = down;
type = TopGhost;
}
);
layerId = m01;
shapes = (
{
closed = 1;
nodes = (
(512,528,l),
(496,646,o),
(428,727,o),
(284,727,cs),
(133,727,o),
(67,638,o),
(67,531,cs),
(67,419,o),
(133,381,o),
(221,344,cs),
(323,301,ls),
(388,274,o),
(413,250,o),
(413,194,cs),
(413,138,o),
(372,91,o),
(296,91,cs),
(230,91,o),
(170,114,o),
(155,205,c),
(47,205,l),
(58,81,o),
(136,-13,o),
(290,-13,cs),
(459,-13,o),
(522,92,o),
(522,201,cs),
(522,318,o),
(454,362,o),
(358,403,cs),
(256,446,ls),
(197,471,o),
(176,489,o),
(176,538,cs),
(176,589,o),
(214,623,o),
(280,623,cs),
(350,623,o),
(387,597,o),
(404,528,c)
);
},
{
closed = 1;
nodes = (
(472,896,l),
(365,896,l),
(305,825,l),
(277,825,l),
(217,896,l),
(112,896,l),
(218,767,l),
(366,767,l)
);
}
);
width = 579;
}
);
note = Scaron;
unicode = 352;
},
{
glyphname = scaron;
kernLeft = dollar;
kernRight = dollar;
layers = (
{
hints = (
{
horizontal = 1;
place = (-13, 104);
place = (-13, 104);
type = Stem;
},
{
horizontal = 1;
place = (623, 104);
place = (623, 104);
type = Stem;
},
{
place = (67, 109);
place = (67, 109);
type = Stem;
},
{
place = (413, 109);
place = (413, 109);
type = Stem;
},
{
horizontal = 1;
place = (767, 21);
target = up;
type = BottomGhost;
},
{
horizontal = 1;
place = (896, -20);
target = down;
type = TopGhost;
}
);
layerId = m01;
shapes = (
{
closed = 1;
nodes = (
(512,528,l),
(496,646,o),
(428,727,o),
(284,727,cs),
(133,727,o),
(67,638,o),
(67,531,cs),
(67,419,o),
(133,381,o),
(221,344,cs),
(323,301,ls),
(388,274,o),
(413,250,o),
(413,194,cs),
(413,138,o),
(372,91,o),
(296,91,cs),
(230,91,o),
(170,114,o),
(155,205,c),
(47,205,l),
(58,81,o),
(136,-13,o),
(290,-13,cs),
(459,-13,o),
(522,92,o),
(522,201,cs),
(522,318,o),
(454,362,o),
(358,403,cs),
(256,446,ls),
(197,471,o),
(176,489,o),
(176,538,cs),
(176,589,o),
(214,623,o),
(280,623,cs),
(350,623,o),
(387,597,o),
(404,528,c)
);
},
{
closed = 1;
nodes = (
(472,896,l),
(365,896,l),
(305,825,l),
(277,825,l),
(217,896,l),
(112,896,l),
(218,767,l),
(366,767,l)
);
}
);
width = 579;
}
);
note = scaron;
unicode = 353;
},
{
glyphname = Tcaron;
kernLeft = T;
kernRight = T;
layers = (
{
hints = (
{
horizontal = 1;
place = (0, 21);
target = up;
type = BottomGhost;
},
{
horizontal = 1;
place = (614, 100);
place = (614, 100);
type = Stem;
},
{
place = (201, 107);
place = (201, 107);
type = Stem;
},
{
horizontal = 1;
place = (767, 21);
target = up;
type = BottomGhost;
},
{
horizontal = 1;
place = (896, -20);
target = down;
type = TopGhost;
}
);
layerId = m01;
shapes = (
{
closed = 1;
nodes = (
(479,714,l),
(30,714,l),
(30,614,l),
(201,614,l),
(201,0,l),
(308,0,l),
(308,614,l),
(479,614,l)
);
},
{
closed = 1;
nodes = (
(435,896,l),
(328,896,l),
(268,825,l),
(240,825,l),
(180,896,l),
(75,896,l),
(181,767,l),
(329,767,l)
);
}
);
width = 509;
}
);
note = Tcaron;
unicode = 356;
},
{
glyphname = tcaron;
kernLeft = T;
kernRight = T;
layers = (
{
hints = (
{
horizontal = 1;
place = (0, 21);
target = up;
type = BottomGhost;
},
{
horizontal = 1;
place = (614, 100);
place = (614, 100);
type = Stem;
},
{
place = (201, 107);
place = (201, 107);
type = Stem;
},
{
horizontal = 1;
place = (767, 21);
target = up;
type = BottomGhost;
},
{
horizontal = 1;
place = (896, -20);
target = down;
type = TopGhost;
}
);
layerId = m01;
shapes = (
{
closed = 1;
nodes = (
(479,714,l),
(30,714,l),
(30,614,l),
(201,614,l),
(201,0,l),
(308,0,l),
(308,614,l),
(479,614,l)
);
},
{
closed = 1;
nodes = (
(435,896,l),
(328,896,l),
(268,825,l),
(240,825,l),
(180,896,l),
(75,896,l),
(181,767,l),
(329,767,l)
);
}
);
width = 509;
}
);
note = tcaron;
unicode = 357;
},
{
glyphname = Tbar;
kernLeft = T;
kernRight = T;
layers = (
{
hints = (
{
horizontal = 1;
place = (0, 21);
target = up;
type = BottomGhost;
},
{
horizontal = 1;
place = (322, 94);
place = (322, 94);
type = Stem;
},
{
horizontal = 1;
place = (614, 100);
place = (614, 100);
type = Stem;
},
{
place = (201, 107);
place = (201, 107);
type = Stem;
}
);
layerId = m01;
shapes = (
{
closed = 1;
nodes = (
(479,714,l),
(30,714,l),
(30,614,l),
(201,614,l),
(201,416,l),
(103,416,l),
(103,322,l),
(201,322,l),
(201,0,l),
(308,0,l),
(308,322,l),
(406,322,l),
(406,416,l),
(308,416,l),
(308,614,l),
(479,614,l)
);
}
);
width = 509;
}
);
note = Tbar;
unicode = 358;
},
{
glyphname = tbar;
kernLeft = T;
kernRight = T;
layers = (
{
hints = (
{
horizontal = 1;
place = (0, 21);
target = up;
type = BottomGhost;
},
{
horizontal = 1;
place = (322, 94);
place = (322, 94);
type = Stem;
},
{
horizontal = 1;
place = (614, 100);
place = (614, 100);
type = Stem;
},
{
place = (201, 107);
place = (201, 107);
type = Stem;
}
);
layerId = m01;
shapes = (
{
closed = 1;
nodes = (
(479,714,l),
(30,714,l),
(30,614,l),
(201,614,l),
(201,416,l),
(103,416,l),
(103,322,l),
(201,322,l),
(201,0,l),
(308,0,l),
(308,322,l),
(406,322,l),
(406,416,l),
(308,416,l),
(308,614,l),
(479,614,l)
);
}
);
width = 509;
}
);
note = tbar;
unicode = 359;
},
{
glyphname = Utilde;
kernLeft = U;
kernRight = J;
layers = (
{
hints = (
{
horizontal = 1;
place = (-13, 103);
place = (-13, 103);
type = Stem;
},
{
horizontal = 1;
place = (714, -20);
target = down;
type = TopGhost;
},
{
place = (80, 107);
place = (80, 107);
type = Stem;
},
{
place = (433, 107);
place = (433, 107);
type = Stem;
},
{
horizontal = 1;
place = (818, 78);
place = (818, 78);
type = Stem;
},
{
place = (147, 69);
place = (147, 69);
type = Stem;
},
{
place = (405, 69);
place = (405, 69);
type = Stem;
},
{
horizontal = 1;
place = (767, 77);
place = (767, 77);
type = Stem;
}
);
layerId = m01;
shapes = (
{
closed = 1;
nodes = (
(433,714,l),
(433,248,ls),
(433,147,o),
(399,90,o),
(310,90,cs),
(221,90,o),
(187,147,o),
(187,248,cs),
(187,714,l),
(80,714,l),
(80,248,ls),
(80,76,o),
(151,-13,o),
(310,-13,cs),
(469,-13,o),
(540,76,o),
(540,248,cs),
(540,714,l)
);
},
{
closed = 1;
nodes = (
(405,896,l),
(405,858,o),
(396,844,o),
(374,844,cs),
(339,844,o),
(309,896,o),
(244,896,cs),
(185,896,o),
(147,856,o),
(147,767,c),
(216,767,l),
(216,804,o),
(228,818,o),
(250,818,cs),
(285,818,o),
(312,767,o),
(378,767,cs),
(438,767,o),
(474,806,o),
(474,896,c)
);
}
);
width = 620;
}
);
note = Utilde;
unicode = 360;
},
{
glyphname = utilde;
kernLeft = U;
kernRight = J;
layers = (
{
hints = (
{
horizontal = 1;
place = (-13, 103);
place = (-13, 103);
type = Stem;
},
{
horizontal = 1;
place = (714, -20);
target = down;
type = TopGhost;
},
{
place = (80, 107);
place = (80, 107);
type = Stem;
},
{
place = (433, 107);
place = (433, 107);
type = Stem;
},
{
horizontal = 1;
place = (818, 78);
place = (818, 78);
type = Stem;
},
{
place = (147, 69);
place = (147, 69);
type = Stem;
},
{
place = (405, 69);
place = (405, 69);
type = Stem;
},
{
horizontal = 1;
place = (767, 77);
place = (767, 77);
type = Stem;
}
);
layerId = m01;
shapes = (
{
closed = 1;
nodes = (
(433,714,l),
(433,248,ls),
(433,147,o),
(399,90,o),
(310,90,cs),
(221,90,o),
(187,147,o),
(187,248,cs),
(187,714,l),
(80,714,l),
(80,248,ls),
(80,76,o),
(151,-13,o),
(310,-13,cs),
(469,-13,o),
(540,76,o),
(540,248,cs),
(540,714,l)
);
},
{
closed = 1;
nodes = (
(405,896,l),
(405,858,o),
(396,844,o),
(374,844,cs),
(339,844,o),
(309,896,o),
(244,896,cs),
(185,896,o),
(147,856,o),
(147,767,c),
(216,767,l),
(216,804,o),
(228,818,o),
(250,818,cs),
(285,818,o),
(312,767,o),
(378,767,cs),
(438,767,o),
(474,806,o),
(474,896,c)
);
}
);
width = 620;
}
);
note = utilde;
unicode = 361;
},
{
glyphname = Umacron;
kernLeft = U;
kernRight = J;
layers = (
{
hints = (
{
horizontal = 1;
place = (-13, 103);
place = (-13, 103);
type = Stem;
},
{
horizontal = 1;
place = (714, -20);
target = down;
type = TopGhost;
},
{
place = (80, 107);
place = (80, 107);
type = Stem;
},
{
place = (433, 107);
place = (433, 107);
type = Stem;
},
{
horizontal = 1;
place = (805, 84);
place = (805, 84);
type = Stem;
}
);
layerId = m01;
shapes = (
{
closed = 1;
nodes = (
(433,714,l),
(433,248,ls),
(433,147,o),
(399,90,o),
(310,90,cs),
(221,90,o),
(187,147,o),
(187,248,cs),
(187,714,l),
(80,714,l),
(80,248,ls),
(80,76,o),
(151,-13,o),
(310,-13,cs),
(469,-13,o),
(540,76,o),
(540,248,cs),
(540,714,l)
);
},
{
closed = 1;
nodes = (
(451,805,l),
(451,889,l),
(169,889,l),
(169,805,l)
);
}
);
width = 620;
}
);
note = Umacron;
unicode = 362;
},
{
glyphname = umacron;
kernLeft = U;
kernRight = J;
layers = (
{
hints = (
{
horizontal = 1;
place = (-13, 103);
place = (-13, 103);
type = Stem;
},
{
horizontal = 1;
place = (714, -20);
target = down;
type = TopGhost;
},
{
place = (80, 107);
place = (80, 107);
type = Stem;
},
{
place = (433, 107);
place = (433, 107);
type = Stem;
},
{
horizontal = 1;
place = (805, 84);
place = (805, 84);
type = Stem;
}
);
layerId = m01;
shapes = (
{
closed = 1;
nodes = (
(433,714,l),
(433,248,ls),
(433,147,o),
(399,90,o),
(310,90,cs),
(221,90,o),
(187,147,o),
(187,248,cs),
(187,714,l),
(80,714,l),
(80,248,ls),
(80,76,o),
(151,-13,o),
(310,-13,cs),
(469,-13,o),
(540,76,o),
(540,248,cs),
(540,714,l)
);
},
{
closed = 1;
nodes = (
(451,805,l),
(451,889,l),
(169,889,l),
(169,805,l)
);
}
);
width = 620;
}
);
note = umacron;
unicode = 363;
},
{
glyphname = Uring;
kernLeft = U;
kernRight = J;
layers = (
{
hints = (
{
horizontal = 1;
place = (-13, 103);
place = (-13, 103);
type = Stem;
},
{
horizontal = 1;
place = (714, -20);
target = down;
type = TopGhost;
},
{
place = (80, 107);
place = (80, 107);
type = Stem;
},
{
place = (433, 107);
place = (433, 107);
type = Stem;
},
{
horizontal = 1;
place = (753, 69);
place = (753, 69);
type = Stem;
},
{
horizontal = 1;
place = (902, 69);
place = (902, 69);
type = Stem;
},
{
place = (201, 69);
place = (201, 69);
type = Stem;
},
{
place = (350, 69);
place = (350, 69);
type = Stem;
}
);
layerId = m01;
shapes = (
{
closed = 1;
nodes = (
(433,714,l),
(433,248,ls),
(433,147,o),
(399,90,o),
(310,90,cs),
(221,90,o),
(187,147,o),
(187,248,cs),
(187,714,l),
(80,714,l),
(80,248,ls),
(80,76,o),
(151,-13,o),
(310,-13,cs),
(469,-13,o),
(540,76,o),
(540,248,cs),
(540,714,l)
);
},
{
closed = 1;
nodes = (
(201,802,o),
(250,753,o),
(310,753,cs),
(370,753,o),
(419,802,o),
(419,862,cs),
(419,922,o),
(370,971,o),
(310,971,cs),
(250,971,o),
(201,922,o),
(201,862,cs)
);
},
{
closed = 1;
nodes = (
(270,884,o),
(288,902,o),
(310,902,cs),
(332,902,o),
(350,884,o),
(350,862,cs),
(350,840,o),
(332,822,o),
(310,822,cs),
(288,822,o),
(270,840,o),
(270,862,cs)
);
}
);
width = 620;
}
);
note = Uring;
unicode = 366;
},
{
glyphname = uring;
kernLeft = U;
kernRight = J;
layers = (
{
hints = (
{
horizontal = 1;
place = (-13, 103);
place = (-13, 103);
type = Stem;
},
{
horizontal = 1;
place = (714, -20);
target = down;
type = TopGhost;
},
{
place = (80, 107);
place = (80, 107);
type = Stem;
},
{
place = (433, 107);
place = (433, 107);
type = Stem;
},
{
horizontal = 1;
place = (753, 69);
place = (753, 69);
type = Stem;
},
{
horizontal = 1;
place = (902, 69);
place = (902, 69);
type = Stem;
},
{
place = (201, 69);
place = (201, 69);
type = Stem;
},
{
place = (350, 69);
place = (350, 69);
type = Stem;
}
);
layerId = m01;
shapes = (
{
closed = 1;
nodes = (
(433,714,l),
(433,248,ls),
(433,147,o),
(399,90,o),
(310,90,cs),
(221,90,o),
(187,147,o),
(187,248,cs),
(187,714,l),
(80,714,l),
(80,248,ls),
(80,76,o),
(151,-13,o),
(310,-13,cs),
(469,-13,o),
(540,76,o),
(540,248,cs),
(540,714,l)
);
},
{
closed = 1;
nodes = (
(201,802,o),
(250,753,o),
(310,753,cs),
(370,753,o),
(419,802,o),
(419,862,cs),
(419,922,o),
(370,971,o),
(310,971,cs),
(250,971,o),
(201,922,o),
(201,862,cs)
);
},
{
closed = 1;
nodes = (
(270,884,o),
(288,902,o),
(310,902,cs),
(332,902,o),
(350,884,o),
(350,862,cs),
(350,840,o),
(332,822,o),
(310,822,cs),
(288,822,o),
(270,840,o),
(270,862,cs)
);
}
);
width = 620;
}
);
note = uring;
unicode = 367;
},
{
glyphname = Uhungarumlaut;
kernLeft = U;
kernRight = J;
layers = (
{
hints = (
{
horizontal = 1;
place = (-13, 103);
place = (-13, 103);
type = Stem;
},
{
horizontal = 1;
place = (714, -20);
target = down;
type = TopGhost;
},
{
place = (80, 107);
place = (80, 107);
type = Stem;
},
{
place = (433, 107);
place = (433, 107);
type = Stem;
},
{
horizontal = 1;
place = (767, 129);
place = (767, 129);
type = Stem;
}
);
layerId = m01;
shapes = (
{
closed = 1;
nodes = (
(433,714,l),
(433,248,ls),
(433,147,o),
(399,90,o),
(310,90,cs),
(221,90,o),
(187,147,o),
(187,248,cs),
(187,714,l),
(80,714,l),
(80,248,ls),
(80,76,o),
(151,-13,o),
(310,-13,cs),
(469,-13,o),
(540,76,o),
(540,248,cs),
(540,714,l)
);
},
{
closed = 1;
nodes = (
(354,896,l),
(240,896,l),
(163,767,l),
(255,767,l)
);
},
{
closed = 1;
nodes = (
(530,896,l),
(416,896,l),
(339,767,l),
(430,767,l)
);
}
);
width = 620;
}
);
note = Uhungarumlaut;
unicode = 368;
},
{
glyphname = uhungarumlaut;
kernLeft = U;
kernRight = J;
layers = (
{
hints = (
{
horizontal = 1;
place = (-13, 103);
place = (-13, 103);
type = Stem;
},
{
horizontal = 1;
place = (714, -20);
target = down;
type = TopGhost;
},
{
place = (80, 107);
place = (80, 107);
type = Stem;
},
{
place = (433, 107);
place = (433, 107);
type = Stem;
},
{
horizontal = 1;
place = (767, 129);
place = (767, 129);
type = Stem;
}
);
layerId = m01;
shapes = (
{
closed = 1;
nodes = (
(433,714,l),
(433,248,ls),
(433,147,o),
(399,90,o),
(310,90,cs),
(221,90,o),
(187,147,o),
(187,248,cs),
(187,714,l),
(80,714,l),
(80,248,ls),
(80,76,o),
(151,-13,o),
(310,-13,cs),
(469,-13,o),
(540,76,o),
(540,248,cs),
(540,714,l)
);
},
{
closed = 1;
nodes = (
(354,896,l),
(240,896,l),
(163,767,l),
(255,767,l)
);
},
{
closed = 1;
nodes = (
(530,896,l),
(416,896,l),
(339,767,l),
(430,767,l)
);
}
);
width = 620;
}
);
note = uhungarumlaut;
unicode = 369;
},
{
glyphname = Uogonek;
kernLeft = U;
kernRight = J;
layers = (
{
hints = (
{
horizontal = 1;
place = (-200, 72);
place = (-200, 72);
type = Stem;
},
{
horizontal = 1;
place = (-12, 102);
place = (-12, 102);
type = Stem;
},
{
horizontal = 1;
place = (714, -20);
target = down;
type = TopGhost;
},
{
place = (80, 107);
place = (80, 107);
type = Stem;
},
{
place = (242, 88);
place = (242, 88);
type = Stem;
},
{
place = (433, 107);
place = (433, 107);
type = Stem;
}
);
layerId = m01;
shapes = (
{
closed = 1;
nodes = (
(433,714,l),
(433,248,ls),
(433,147,o),
(399,90,o),
(310,90,cs),
(221,90,o),
(187,147,o),
(187,248,cs),
(187,714,l),
(80,714,l),
(80,248,ls),
(80,87,o),
(142,-1,o),
(280,-12,c),
(255,-36,o),
(242,-69,o),
(242,-99,cs),
(242,-169,o),
(291,-200,o),
(372,-200,cs),
(402,-200,l),
(402,-128,l),
(356,-128,o),
(330,-117,o),
(330,-83,cs),
(330,-56,o),
(352,-22,o),
(408,1,cs),
(500,39,o),
(540,113,o),
(540,248,cs),
(540,714,l)
);
}
);
width = 620;
}
);
note = Uogonek;
unicode = 370;
},
{
glyphname = uogonek;
kernLeft = U;
kernRight = J;
layers = (
{
hints = (
{
horizontal = 1;
place = (-200, 72);
place = (-200, 72);
type = Stem;
},
{
horizontal = 1;
place = (-12, 102);
place = (-12, 102);
type = Stem;
},
{
horizontal = 1;
place = (714, -20);
target = down;
type = TopGhost;
},
{
place = (80, 107);
place = (80, 107);
type = Stem;
},
{
place = (242, 88);
place = (242, 88);
type = Stem;
},
{
place = (433, 107);
place = (433, 107);
type = Stem;
}
);
layerId = m01;
shapes = (
{
closed = 1;
nodes = (
(433,714,l),
(433,248,ls),
(433,147,o),
(399,90,o),
(310,90,cs),
(221,90,o),
(187,147,o),
(187,248,cs),
(187,714,l),
(80,714,l),
(80,248,ls),
(80,87,o),
(142,-1,o),
(280,-12,c),
(255,-36,o),
(242,-69,o),
(242,-99,cs),
(242,-169,o),
(291,-200,o),
(372,-200,cs),
(402,-200,l),
(402,-128,l),
(356,-128,o),
(330,-117,o),
(330,-83,cs),
(330,-56,o),
(352,-22,o),
(408,1,cs),
(500,39,o),
(540,113,o),
(540,248,cs),
(540,714,l)
);
}
);
width = 620;
}
);
note = uogonek;
unicode = 371;
},
